CommonSerif-Medium.ufo
<glyph name="exclam" format="2">
  <advance width="281"/>
  <unicode hex="0021"/>
  <outline>
    <contour>
      <point x="140.334" y="658" type="curve" smooth="yes"/>
      <point x="114" y="658"/>
      <point x="81" y="639"/>
      <point x="81" y="584.333" type="curve" smooth="yes"/>
      <point x="81" y="467.256"/>
      <point x="120.386" y="335.71"/>
      <point x="120.528" y="216.806" type="curve" smooth="yes"/>
      <point x="120.533" y="198.548"/>
      <point x="126.915" y="189.333"/>
      <point x="140.334" y="189.333" type="curve" smooth="yes"/>
      <point x="153.055" y="189.333"/>
      <point x="158.985" y="198.887"/>
      <point x="159" y="216.667" type="curve" smooth="yes"/>
      <point x="159.136" y="335.316"/>
      <point x="199.667" y="466.527"/>
      <point x="199.667" y="584.333" type="curve" smooth="yes"/>
      <point x="199.667" y="637.333"/>
      <point x="168.667" y="658"/>
    </contour>
    <contour>
      <point x="80.667" y="48.667" type="curve" smooth="yes"/>
      <point x="80.667" y="16.667"/>
      <point x="107.333" y="-10"/>
      <point x="140" y="-10" type="curve" smooth="yes"/>
      <point x="172.667" y="-10"/>
      <point x="200" y="16.333"/>
      <point x="200" y="48.694" type="curve" smooth="yes"/>
      <point x="200" y="80.667"/>
      <point x="173.334" y="107"/>
      <point x="140.667" y="107" type="curve" smooth="yes"/>
      <point x="108" y="107"/>
      <point x="80.667" y="81"/>
    </contour>
  </outline>
</glyph>
<glyph name="quotedbl" format="2">
  <advance width="349"/>
  <unicode hex="0022"/>
  <outline>
    <contour>
      <point x="91" y="422.333" type="line"/>
      <point x="103.333" y="419.667" type="line"/>
      <point x="122.667" y="425.667" type="line"/>
      <point x="157" y="610" type="line"/>
      <point x="157" y="626.667"/>
      <point x="150" y="644.333"/>
      <point x="121" y="644.333" type="curve" smooth="yes"/>
      <point x="84.333" y="644.333"/>
      <point x="63" y="615.333"/>
      <point x="63" y="593" type="curve"/>
    </contour>
    <contour>
      <point x="222" y="422.333" type="line"/>
      <point x="234.333" y="419.667" type="line"/>
      <point x="253.667" y="425.667" type="line"/>
      <point x="288" y="610" type="line"/>
      <point x="288" y="626.667"/>
      <point x="281" y="644.333"/>
      <point x="252" y="644.333" type="curve" smooth="yes"/>
      <point x="215.333" y="644.333"/>
      <point x="194" y="615.333"/>
      <point x="194" y="593" type="curve"/>
    </contour>
  </outline>
</glyph>
<glyph name="numbersign" format="2">
  <advance width="481"/>
  <unicode hex="0023"/>
  <outline>
    <contour>
      <point x="205.667" y="198.183" type="line"/>
      <point x="205.667" y="240.183" type="line"/>
      <point x="48" y="240.183" type="line" smooth="yes"/>
      <point x="39" y="240.183"/>
      <point x="27" y="226.85"/>
      <point x="27" y="213.183" type="curve" smooth="yes"/>
      <point x="27" y="206.517"/>
      <point x="30" y="198.183"/>
      <point x="37.667" y="198.183" type="curve" smooth="yes"/>
    </contour>
    <contour>
      <point x="234.673" y="368.475" type="line"/>
      <point x="234.673" y="410.475" type="line"/>
      <point x="77.0058" y="410.475" type="line" smooth="yes"/>
      <point x="68.0058" y="410.475"/>
      <point x="56.0058" y="397.142"/>
      <point x="56.0058" y="383.475" type="curve" smooth="yes"/>
      <point x="56.0058" y="376.809"/>
      <point x="59.0058" y="368.475"/>
      <point x="66.6728" y="368.475" type="curve" smooth="yes"/>
    </contour>
    <contour>
      <point x="94" y="14" type="curve"/>
      <point x="108.19" y="9"/>
      <point x="122.81" y="9"/>
      <point x="137" y="14" type="curve"/>
      <point x="157.57" y="141.93"/>
      <point x="209.763" y="466.403"/>
      <point x="230.333" y="594.333" type="curve"/>
      <point x="215.813" y="599.333"/>
      <point x="200.853" y="599.333"/>
      <point x="186.333" y="594.333" type="curve"/>
      <point x="165.983" y="466.403"/>
      <point x="114.35" y="141.93"/>
    </contour>
    <contour>
      <point x="245.333" y="14" type="curve"/>
      <point x="259.523" y="9"/>
      <point x="274.143" y="9"/>
      <point x="288.333" y="14" type="curve"/>
      <point x="308.353" y="141.93"/>
      <point x="359.313" y="466.403"/>
      <point x="379.333" y="594.333" type="curve"/>
      <point x="365.253" y="599.333"/>
      <point x="350.747" y="599.333"/>
      <point x="336.667" y="594.333" type="curve"/>
      <point x="316.537" y="466.403"/>
      <point x="265.463" y="141.93"/>
    </contour>
    <contour>
      <point x="145.604" y="198.417" type="line"/>
      <point x="299.082" y="198.417" type="line"/>
      <point x="299.082" y="240.681" type="line"/>
      <point x="145.604" y="240.681" type="line"/>
    </contour>
    <contour>
      <point x="175.01" y="368.48" type="line"/>
      <point x="324.13" y="368.48" type="line"/>
      <point x="324.13" y="410.625" type="line"/>
      <point x="175.01" y="410.625" type="line"/>
    </contour>
    <contour>
      <point x="269.093" y="198.264" type="line"/>
      <point x="402.76" y="198.264" type="line" smooth="yes"/>
      <point x="414.427" y="198.264"/>
      <point x="425.093" y="212.264"/>
      <point x="425.093" y="225.264" type="curve" smooth="yes"/>
      <point x="425.093" y="231.598"/>
      <point x="422.093" y="240.264"/>
      <point x="413.76" y="240.264" type="curve" smooth="yes"/>
      <point x="269.093" y="240.264" type="line"/>
    </contour>
    <contour>
      <point x="295.561" y="368.481" type="line"/>
      <point x="429.228" y="368.481" type="line" smooth="yes"/>
      <point x="440.895" y="368.481"/>
      <point x="451.561" y="382.481"/>
      <point x="451.561" y="395.481" type="curve" smooth="yes"/>
      <point x="451.561" y="401.815"/>
      <point x="448.561" y="410.481"/>
      <point x="440.228" y="410.481" type="curve" smooth="yes"/>
      <point x="295.561" y="410.481" type="line"/>
    </contour>
  </outline>
</glyph>
<glyph name="dollar" format="2">
  <advance width="481"/>
  <unicode hex="0024"/>
  <outline>
    <contour>
      <point x="57.333" y="11.001" type="curve"/>
      <point x="111.666" y="11.001"/>
      <point x="165" y="-9.333"/>
      <point x="222.667" y="-9.333" type="curve" smooth="yes"/>
      <point x="335" y="-9.333"/>
      <point x="433.667" y="60.001"/>
      <point x="433.667" y="171" type="curve" smooth="yes"/>
      <point x="433.667" y="241"/>
      <point x="376.554" y="305.37"/>
      <point x="275.334" y="348.667" type="curve"/>
      <point x="232" y="366" type="line" smooth="yes"/>
      <point x="173.084" y="391.222"/>
      <point x="139.333" y="417"/>
      <point x="139.333" y="480.333" type="curve" smooth="yes"/>
      <point x="139.333" y="536"/>
      <point x="186" y="576.333"/>
      <point x="240" y="576.333" type="curve" smooth="yes"/>
      <point x="316.334" y="576.333"/>
      <point x="347.667" y="516.666"/>
      <point x="367" y="452.333" type="curve"/>
      <point x="377.333" y="451"/>
      <point x="394.333" y="452"/>
      <point x="403" y="458" type="curve"/>
      <point x="401" y="504.333"/>
      <point x="397" y="534.333"/>
      <point x="388.333" y="585" type="curve"/>
      <point x="337" y="591.333"/>
      <point x="303.667" y="610"/>
      <point x="244.667" y="610" type="curve" smooth="yes"/>
      <point x="141.333" y="610"/>
      <point x="56" y="549.333"/>
      <point x="56" y="450.667" type="curve" smooth="yes"/>
      <point x="56" y="365.333"/>
      <point x="95" y="320.667"/>
      <point x="209.667" y="270.667" type="curve" smooth="yes"/>
      <point x="240.667" y="258" type="line" smooth="yes"/>
      <point x="303" y="232"/>
      <point x="342.667" y="189.334"/>
      <point x="342.667" y="128.334" type="curve" smooth="yes"/>
      <point x="342.667" y="59.001"/>
      <point x="295.667" y="25.334"/>
      <point x="230" y="25.334" type="curve" smooth="yes"/>
      <point x="145" y="25.334"/>
      <point x="92" y="78.667"/>
      <point x="74" y="159" type="curve"/>
      <point x="59.667" y="162"/>
      <point x="47.667" y="160.334"/>
      <point x="38.667" y="156" type="curve"/>
      <point x="41.334" y="84.667"/>
      <point x="46.667" y="53.001"/>
    </contour>
    <contour>
      <point x="200" y="13.001" type="line"/>
      <point x="238" y="11.334" type="line"/>
      <point x="252.334" y="265.667" type="line"/>
      <point x="215" y="283" type="line"/>
    </contour>
    <contour>
      <point x="219.333" y="360.333" type="line"/>
      <point x="256.334" y="341" type="line"/>
      <point x="270" y="587.666" type="line"/>
      <point x="232.333" y="591" type="line"/>
    </contour>
    <contour>
      <point x="194.667" y="-98" type="line"/>
      <point x="204.667" y="-98"/>
      <point x="225" y="-97"/>
      <point x="233" y="-93" type="curve"/>
      <point x="238" y="6" type="line"/>
      <point x="200.667" y="7" type="line"/>
    </contour>
    <contour>
      <point x="231.667" y="595" type="line"/>
      <point x="270" y="594" type="line"/>
      <point x="276" y="695" type="line"/>
      <point x="263" y="695"/>
      <point x="246.667" y="693"/>
      <point x="237.667" y="690" type="curve"/>
    </contour>
  </outline>
</glyph>
<glyph name="percent" format="2">
  <advance width="637"/>
  <unicode hex="0025"/>
  <outline>
    <contour>
      <point x="55" y="410.334" type="curve" smooth="yes"/>
      <point x="55" y="353.667"/>
      <point x="84.667" y="301"/>
      <point x="150" y="301" type="curve" smooth="yes"/>
      <point x="232.334" y="301"/>
      <point x="279.667" y="402.667"/>
      <point x="279.667" y="478.334" type="curve" smooth="yes"/>
      <point x="279.667" y="486.334"/>
      <point x="279" y="494.334"/>
      <point x="277.334" y="501.001" type="curve"/>
      <point x="296.334" y="490.334"/>
      <point x="331.667" y="480.667"/>
      <point x="354" y="480.667" type="curve" smooth="yes"/>
      <point x="384" y="480.667"/>
      <point x="423" y="485.667"/>
      <point x="461.333" y="501.001" type="curve"/>
      <point x="100" y="0.667" type="line"/>
      <point x="140.667" y="-13.333" type="line"/>
      <point x="551" y="555.334" type="line"/>
      <point x="514" y="573.001" type="line"/>
      <point x="479.667" y="530.334"/>
      <point x="406" y="520.334"/>
      <point x="364" y="520.334" type="curve" smooth="yes"/>
      <point x="340" y="520.334"/>
      <point x="305.667" y="523.001"/>
      <point x="258.334" y="545.334" type="curve"/>
      <point x="246" y="558.667"/>
      <point x="218.334" y="569.334"/>
      <point x="191" y="569.334" type="curve" smooth="yes"/>
      <point x="113.333" y="569.334"/>
      <point x="55" y="495.667"/>
    </contour>
    <contour>
      <point x="375.333" y="95.667" type="curve" smooth="yes"/>
      <point x="375.333" y="37.667"/>
      <point x="406.333" y="-14.333"/>
      <point x="471" y="-14.333" type="curve" smooth="yes"/>
      <point x="552.667" y="-14.333"/>
      <point x="600" y="85.334"/>
      <point x="600" y="163" type="curve" smooth="yes"/>
      <point x="600" y="235.666"/>
      <point x="554.667" y="254"/>
      <point x="512" y="254" type="curve" smooth="yes"/>
      <point x="433" y="254"/>
      <point x="375.333" y="177"/>
    </contour>
    <contour>
      <point x="122" y="388.334" type="curve" smooth="yes"/>
      <point x="122" y="439.334"/>
      <point x="150.333" y="536.667"/>
      <point x="202" y="536.667" type="curve" smooth="yes"/>
      <point x="218.667" y="536.667"/>
      <point x="243.667" y="527.667"/>
      <point x="243.667" y="477" type="curve" smooth="yes"/>
      <point x="243.667" y="424.334"/>
      <point x="213" y="334.667"/>
      <point x="159.667" y="334.667" type="curve" smooth="yes"/>
      <point x="141.667" y="334.667"/>
      <point x="122" y="346.667"/>
    </contour>
    <contour>
      <point x="443" y="73" type="curve" smooth="yes"/>
      <point x="443" y="124"/>
      <point x="471.333" y="221.333"/>
      <point x="523" y="221.333" type="curve" smooth="yes"/>
      <point x="537" y="221.333"/>
      <point x="564" y="213.666"/>
      <point x="564" y="161.667" type="curve" smooth="yes"/>
      <point x="564" y="110.334"/>
      <point x="534" y="19.334"/>
      <point x="480.667" y="19.334" type="curve" smooth="yes"/>
      <point x="462" y="19.334"/>
      <point x="443" y="31.334"/>
    </contour>
  </outline>
</glyph>
<glyph name="parenleft" format="2">
  <advance width="304"/>
  <unicode hex="0028"/>
  <outline>
    <contour>
      <point x="41.333" y="252.333" type="curve" smooth="yes"/>
      <point x="41.333" y="207.333"/>
      <point x="45.666" y="-21.667"/>
      <point x="260" y="-207" type="curve"/>
      <point x="268.475" y="-203.738"/>
      <point x="280.485" y="-191.949"/>
      <point x="284" y="-185" type="curve"/>
      <point x="251.333" y="-147.667"/>
      <point x="135" y="-11"/>
      <point x="135" y="252.333" type="curve" smooth="yes"/>
      <point x="135" y="515.667"/>
      <point x="252.667" y="652.333"/>
      <point x="284" y="688" type="curve"/>
      <point x="280.35" y="696.671"/>
      <point x="269.746" y="708.547"/>
      <point x="260.667" y="711.333" type="curve"/>
      <point x="137.667" y="605.667"/>
      <point x="41.333" y="437"/>
    </contour>
  </outline>
</glyph>
<glyph name="parenright" format="2">
  <advance width="304"/>
  <unicode hex="0029"/>
  <outline>
    <contour>
      <point x="262.334" y="251.667" type="curve" smooth="yes"/>
      <point x="262.334" y="296.667"/>
      <point x="258.001" y="525.667"/>
      <point x="43.667" y="711" type="curve"/>
      <point x="35.192" y="707.738"/>
      <point x="23.182" y="695.949"/>
      <point x="19.667" y="689" type="curve"/>
      <point x="52.334" y="651.667"/>
      <point x="168.667" y="515"/>
      <point x="168.667" y="251.667" type="curve" smooth="yes"/>
      <point x="168.667" y="-11.667"/>
      <point x="51" y="-148.333"/>
      <point x="19.667" y="-184" type="curve"/>
      <point x="23.317" y="-192.671"/>
      <point x="33.921" y="-204.547"/>
      <point x="43" y="-207.333" type="curve"/>
      <point x="166" y="-101.667"/>
      <point x="262.334" y="67"/>
    </contour>
  </outline>
</glyph>
<glyph name="asterisk" format="2">
  <advance width="390"/>
  <unicode hex="002A"/>
  <outline>
    <contour>
      <point x="94" y="468.026" type="curve" smooth="yes"/>
      <point x="94" y="449.903"/>
      <point x="106.717" y="437.667"/>
      <point x="125.57" y="437.667" type="curve" smooth="yes"/>
      <point x="167.642" y="437.667"/>
      <point x="173.635" y="505.491"/>
      <point x="193" y="540.091" type="curve"/>
      <point x="214.901" y="506.962"/>
      <point x="221.914" y="437.667"/>
      <point x="262.443" y="437.667" type="curve" smooth="yes"/>
      <point x="280.502" y="437.667"/>
      <point x="294" y="451.088"/>
      <point x="294" y="469.029" type="curve" smooth="yes"/>
      <point x="294" y="508.286"/>
      <point x="238.125" y="522.645"/>
      <point x="210.333" y="552.35" type="curve"/>
      <point x="225.82" y="554.918"/>
      <point x="241.75" y="556"/>
      <point x="265" y="556" type="curve" smooth="yes"/>
      <point x="309.529" y="556"/>
      <point x="334" y="569.672"/>
      <point x="334" y="594.375" type="curve" smooth="yes"/>
      <point x="334" y="612.37"/>
      <point x="319.191" y="626.029"/>
      <point x="299.68" y="626.051" type="curve" smooth="yes"/>
      <point x="268.178" y="626.089"/>
      <point x="234.651" y="585.45"/>
      <point x="205.333" y="572.827" type="curve"/>
      <point x="207.526" y="604.567"/>
      <point x="227.13" y="639.591"/>
      <point x="227.13" y="668.924" type="curve" smooth="yes"/>
      <point x="227.13" y="690.122"/>
      <point x="213.207" y="704.508"/>
      <point x="192.828" y="704.508" type="curve" smooth="yes"/>
      <point x="172.041" y="704.508"/>
      <point x="157.874" y="689.937"/>
      <point x="157.874" y="668.297" type="curve" smooth="yes"/>
      <point x="157.874" y="641.764"/>
      <point x="180.145" y="608.754"/>
      <point x="183.667" y="573.503" type="curve"/>
      <point x="147.784" y="588.643"/>
      <point x="119.466" y="625.333"/>
      <point x="88" y="625.333" type="curve" smooth="yes"/>
      <point x="67.844" y="625.333"/>
      <point x="54.501" y="612.186"/>
      <point x="54.543" y="592.311" type="curve" smooth="yes"/>
      <point x="54.602" y="567.297"/>
      <point x="70.517" y="556.094"/>
      <point x="105.742" y="556.262" type="curve" smooth="yes"/>
      <point x="129.383" y="556.37"/>
      <point x="155.614" y="560.109"/>
      <point x="177.667" y="552.678" type="curve"/>
      <point x="149.907" y="521.437"/>
      <point x="94" y="510.387"/>
    </contour>
  </outline>
</glyph>
<glyph name="comma" format="2">
  <advance width="228"/>
  <unicode hex="002C"/>
  <outline>
    <contour>
      <point x="108.421" y="105.667" type="curve" smooth="yes"/>
      <point x="74.331" y="105.667"/>
      <point x="50.333" y="82.336"/>
      <point x="50.333" y="51.541" type="curve" smooth="yes"/>
      <point x="50.333" y="25.352"/>
      <point x="69.229" y="10.827"/>
      <point x="88.333" y="5" type="curve" smooth="yes"/>
      <point x="96" y="2.667" type="line" smooth="yes"/>
      <point x="118.572" y="-3.978"/>
      <point x="129" y="-11.711"/>
      <point x="129" y="-27.671" type="curve" smooth="yes"/>
      <point x="129" y="-57.962"/>
      <point x="90.989" y="-104.536"/>
      <point x="38.333" y="-118" type="curve"/>
      <point x="38.333" y="-129.897"/>
      <point x="40.408" y="-136.692"/>
      <point x="46.666" y="-144.333" type="curve"/>
      <point x="117.693" y="-132.623"/>
      <point x="179.667" y="-69.275"/>
      <point x="179.667" y="8.213" type="curve" smooth="yes"/>
      <point x="179.667" y="66.723"/>
      <point x="152.692" y="105.667"/>
    </contour>
  </outline>
</glyph>
<glyph name="slash" format="2">
  <advance width="321"/>
  <unicode hex="002F"/>
  <outline>
    <contour>
      <point x="296" y="658" type="line"/>
      <point x="247.667" y="658" type="line"/>
      <point x="10.667" y="-46.333" type="line"/>
      <point x="59" y="-46.333" type="line"/>
    </contour>
  </outline>
</glyph>
<glyph name="zero" format="2">
  <advance width="481"/>
  <unicode hex="0030"/>
  <outline>
    <contour>
      <point x="36" y="295.333" type="curve" smooth="yes"/>
      <point x="36" y="120.666"/>
      <point x="122" y="-10"/>
      <point x="237" y="-10" type="curve" smooth="yes"/>
      <point x="356" y="-10"/>
      <point x="442.666" y="121.666"/>
      <point x="442.666" y="304.333" type="curve" smooth="yes"/>
      <point x="442.666" y="482.334"/>
      <point x="359.333" y="610"/>
      <point x="241.333" y="610" type="curve" smooth="yes"/>
      <point x="122" y="610"/>
      <point x="36" y="477.667"/>
    </contour>
    <contour>
      <point x="141.667" y="284.333" type="curve" smooth="yes"/>
      <point x="141.667" y="469.667"/>
      <point x="177.334" y="572.667"/>
      <point x="241.333" y="572.667" type="curve" smooth="yes"/>
      <point x="298.666" y="572.667"/>
      <point x="337.333" y="472.334"/>
      <point x="337.333" y="323.667" type="curve" smooth="yes"/>
      <point x="337.333" y="135.333"/>
      <point x="301" y="27.333"/>
      <point x="238" y="27.333" type="curve" smooth="yes"/>
      <point x="177" y="27.333"/>
      <point x="141.667" y="121.666"/>
    </contour>
  </outline>
</glyph>
<glyph name="one" format="2">
  <advance width="481"/>
  <unicode hex="0031"/>
  <outline>
    <contour>
      <point x="120.667" y="-2" type="curve"/>
      <point x="180.667" y="-1"/>
      <point x="220.334" y="0"/>
      <point x="269.667" y="0" type="curve" smooth="yes"/>
      <point x="315.001" y="0"/>
      <point x="346.001" y="-1"/>
      <point x="406.667" y="-2" type="curve"/>
      <point x="414.001" y="4"/>
      <point x="414.001" y="25.333"/>
      <point x="406.667" y="31.333" type="curve"/>
      <point x="341.667" y="34.333"/>
      <point x="314.334" y="39"/>
      <point x="314.334" y="122" type="curve" smooth="yes"/>
      <point x="314.334" y="473.666" type="line" smooth="yes"/>
      <point x="314.334" y="531.333"/>
      <point x="317.401" y="589.1"/>
      <point x="319.001" y="599.666" type="curve"/>
      <point x="319.001" y="607.333"/>
      <point x="315.001" y="608.666"/>
      <point x="309.334" y="608.666" type="curve"/>
      <point x="253.876" y="575.004"/>
      <point x="184.877" y="543.601"/>
      <point x="90" y="507.666" type="curve"/>
      <point x="91.667" y="494.666"/>
      <point x="96.667" y="482.666"/>
      <point x="107.334" y="475.333" type="curve"/>
      <point x="152.191" y="493.149"/>
      <point x="179.534" y="500.434"/>
      <point x="197.334" y="500.333" type="curve" smooth="yes"/>
      <point x="213.96" y="500.205"/>
      <point x="219.667" y="489.379"/>
      <point x="219.667" y="464.016" type="curve" smooth="yes"/>
      <point x="219.667" y="122" type="line" smooth="yes"/>
      <point x="219.667" y="39"/>
      <point x="185.667" y="34.333"/>
      <point x="120.667" y="31.333" type="curve"/>
      <point x="113.334" y="25.333"/>
      <point x="113.334" y="4"/>
    </contour>
  </outline>
</glyph>
<glyph name="two" format="2">
  <advance width="481"/>
  <unicode hex="0032"/>
  <outline>
    <contour>
      <point x="45.968" y="22.891" type="curve" smooth="yes"/>
      <point x="45.968" y="16.377"/>
      <point x="47.714" y="6.514"/>
      <point x="50" y="-1.333" type="curve"/>
      <point x="64.085" y="-1.2"/>
      <point x="104.519" y="0"/>
      <point x="136.968" y="0" type="curve" smooth="yes"/>
      <point x="318.383" y="0" type="line" smooth="yes"/>
      <point x="350.293" y="0"/>
      <point x="388.051" y="-1.2"/>
      <point x="401.876" y="-1.333" type="curve"/>
      <point x="406.945" y="43.254"/>
      <point x="417.537" y="116.174"/>
      <point x="428.001" y="158.548" type="curve"/>
      <point x="419.697" y="163.875"/>
      <point x="408.18" y="166.539"/>
      <point x="393.878" y="165.208" type="curve"/>
      <point x="376.824" y="100.499"/>
      <point x="338.422" y="69.667"/>
      <point x="291.293" y="69.667" type="curve" smooth="yes"/>
      <point x="153.208" y="69.667" type="line"/>
      <point x="154.196" y="108.279"/>
      <point x="192.64" y="155.683"/>
      <point x="214.762" y="176.515" type="curve" smooth="yes"/>
      <point x="292.55" y="249.445" type="line" smooth="yes"/>
      <point x="395.503" y="347.64"/>
      <point x="424.334" y="388.257"/>
      <point x="424.334" y="454.583" type="curve" smooth="yes"/>
      <point x="424.334" y="549.621"/>
      <point x="349.939" y="610"/>
      <point x="252.165" y="610" type="curve" smooth="yes"/>
      <point x="138.064" y="610"/>
      <point x="57.333" y="532.795"/>
      <point x="57.333" y="462.913" type="curve" smooth="yes"/>
      <point x="57.333" y="437.829"/>
      <point x="78.871" y="418.858"/>
      <point x="103.667" y="418.858" type="curve" smooth="yes"/>
      <point x="132.285" y="418.858"/>
      <point x="154.419" y="436.752"/>
      <point x="154.419" y="463.243" type="curve" smooth="yes"/>
      <point x="154.419" y="470.243"/>
      <point x="152.405" y="476.582"/>
      <point x="150.057" y="484.257" type="curve"/>
      <point x="147.709" y="491.262"/>
      <point x="142.667" y="499.933"/>
      <point x="142.667" y="508.944" type="curve" smooth="yes"/>
      <point x="142.667" y="537.531"/>
      <point x="173.286" y="572.667"/>
      <point x="236.739" y="572.667" type="curve" smooth="yes"/>
      <point x="280.359" y="572.667"/>
      <point x="323.667" y="543.002"/>
      <point x="323.667" y="450.916" type="curve" smooth="yes"/>
      <point x="323.667" y="382.757"/>
      <point x="300.877" y="329.694"/>
      <point x="240.585" y="271.523" type="curve" smooth="yes"/>
      <point x="171.639" y="204.817" type="line" smooth="yes"/>
      <point x="101.818" y="137.187"/>
      <point x="45.968" y="76.175"/>
    </contour>
  </outline>
</glyph>
<glyph name="three" format="2">
  <advance width="481"/>
  <unicode hex="0033"/>
  <outline>
    <contour>
      <point x="220.718" y="572.667" type="curve" smooth="yes"/>
      <point x="271.058" y="572.667"/>
      <point x="301" y="544.031"/>
      <point x="301" y="495.983" type="curve" smooth="yes"/>
      <point x="301" y="423.649"/>
      <point x="234.447" y="357.685"/>
      <point x="146.509" y="342.43" type="curve"/>
      <point x="152.139" y="307.669" type="line"/>
      <point x="163.904" y="310.591"/>
      <point x="174.564" y="311.684"/>
      <point x="188.569" y="311.684" type="curve" smooth="yes"/>
      <point x="282.757" y="311.684"/>
      <point x="330.333" y="268.294"/>
      <point x="330.333" y="182.859" type="curve" smooth="yes"/>
      <point x="330.333" y="95.0957"/>
      <point x="279.074" y="27.3333"/>
      <point x="212.861" y="27.3333" type="curve" smooth="yes"/>
      <point x="183.251" y="27.3333"/>
      <point x="158.172" y="41.2931"/>
      <point x="139.356" y="68.1887" type="curve" smooth="yes"/>
      <point x="125.136" y="88.4338"/>
      <point x="109.438" y="98.3753"/>
      <point x="91.6838" y="98.3753" type="curve" smooth="yes"/>
      <point x="67.479" y="98.3753"/>
      <point x="44.6667" y="79.4664"/>
      <point x="44.6667" y="59.4181" type="curve" smooth="yes"/>
      <point x="44.6667" y="23.7747"/>
      <point x="119.395" y="-10"/>
      <point x="198.206" y="-10" type="curve" smooth="yes"/>
      <point x="328.405" y="-10"/>
      <point x="431" y="83.2755"/>
      <point x="431" y="201.817" type="curve" smooth="yes"/>
      <point x="431" y="287.204"/>
      <point x="377.672" y="347.475"/>
      <point x="291.886" y="359.119" type="curve"/>
      <point x="291.187" y="360.997" type="line"/>
      <point x="359.87" y="393.741"/>
      <point x="393.667" y="438.106"/>
      <point x="393.667" y="493.514" type="curve" smooth="yes"/>
      <point x="393.667" y="565.436"/>
      <point x="336.523" y="610"/>
      <point x="243.852" y="610" type="curve" smooth="yes"/>
      <point x="145.554" y="610"/>
      <point x="51.6667" y="550.361"/>
      <point x="51.6667" y="487.972" type="curve" smooth="yes"/>
      <point x="51.6667" y="462.924"/>
      <point x="66.0058" y="447.74"/>
      <point x="89.9295" y="447.74" type="curve" smooth="yes"/>
      <point x="117.04" y="447.74"/>
      <point x="133.576" y="466.764"/>
      <point x="133.576" y="497.671" type="curve" smooth="yes"/>
      <point x="133.576" y="542.147"/>
      <point x="168.973" y="572.667"/>
    </contour>
  </outline>
</glyph>
<glyph name="four" format="2">
  <advance width="481"/>
  <unicode hex="0034"/>
  <outline>
    <contour>
      <point x="59.209" y="168.667" type="curve" smooth="yes"/>
      <point x="267.667" y="168.667" type="line"/>
      <point x="267.667" y="114.667" type="line" smooth="yes"/>
      <point x="267.667" y="41.989"/>
      <point x="253.625" y="36.084"/>
      <point x="182.667" y="31.333" type="curve"/>
      <point x="175.334" y="25.333"/>
      <point x="175.334" y="4"/>
      <point x="182.667" y="-2" type="curve"/>
      <point x="228.667" y="-1"/>
      <point x="269.334" y="0"/>
      <point x="308.667" y="0" type="curve" smooth="yes"/>
      <point x="324.334" y="0" type="line" smooth="yes"/>
      <point x="362" y="0"/>
      <point x="391.667" y="-1"/>
      <point x="437.334" y="-2" type="curve"/>
      <point x="444.667" y="4"/>
      <point x="444.667" y="25.333"/>
      <point x="437.334" y="31.333" type="curve"/>
      <point x="377.254" y="35.881"/>
      <point x="359.667" y="43.077"/>
      <point x="359.667" y="114.667" type="curve" smooth="yes"/>
      <point x="359.667" y="168.667" type="line"/>
      <point x="433.667" y="168.667" type="line" smooth="yes"/>
      <point x="447.667" y="168.667"/>
      <point x="462.667" y="187.667"/>
      <point x="462.667" y="199.667" type="curve" smooth="yes"/>
      <point x="462.667" y="209.667"/>
      <point x="458.667" y="215.667"/>
      <point x="447.667" y="215.667" type="curve" smooth="yes"/>
      <point x="359.667" y="215.667" type="line"/>
      <point x="359.667" y="515" type="line" smooth="yes"/>
      <point x="359.667" y="558"/>
      <point x="360" y="593"/>
      <point x="361.667" y="608" type="curve"/>
      <point x="359.667" y="610" type="line"/>
      <point x="311.577" y="610" type="line" smooth="yes"/>
      <point x="302.911" y="610"/>
      <point x="297.155" y="603.856"/>
      <point x="292.088" y="597.325" type="curve" smooth="yes"/>
      <point x="284.673" y="587.735" type="line" smooth="yes"/>
      <point x="217.53" y="502.005"/>
      <point x="118.586" y="358.646"/>
      <point x="34.667" y="226.334" type="curve" smooth="yes"/>
      <point x="26" y="212.667" type="line"/>
      <point x="30.538" y="177.965"/>
      <point x="45.05" y="168.667"/>
    </contour>
    <contour>
      <point x="79" y="215.667" type="line"/>
      <point x="130.924" y="302.657"/>
      <point x="204" y="418.334"/>
      <point x="267.667" y="505" type="curve"/>
      <point x="267.667" y="215.667" type="line"/>
    </contour>
  </outline>
</glyph>
<glyph name="five" format="2">
  <advance width="481"/>
  <unicode hex="0035"/>
  <outline>
    <contour>
      <point x="53.3333" y="66.3333" type="curve" smooth="yes"/>
      <point x="53.3333" y="25.4998"/>
      <point x="124.268" y="-10.6667"/>
      <point x="204.333" y="-10.6667" type="curve" smooth="yes"/>
      <point x="335.764" y="-10.6667"/>
      <point x="425.458" y="80.5829"/>
      <point x="425.458" y="213.933" type="curve" smooth="yes"/>
      <point x="425.458" y="318.18"/>
      <point x="349.303" y="392.265"/>
      <point x="241.853" y="392.301" type="curve" smooth="yes"/>
      <point x="205.255" y="392.312"/>
      <point x="168.147" y="386.523"/>
      <point x="137.667" y="377" type="curve"/>
      <point x="157.333" y="532.333" type="line"/>
      <point x="192.79" y="527.061"/>
      <point x="233.198" y="524.667"/>
      <point x="278" y="524.667" type="curve" smooth="yes"/>
      <point x="293.667" y="524.667" type="line" smooth="yes"/>
      <point x="319.812" y="524.667"/>
      <point x="352.574" y="526.766"/>
      <point x="392" y="530.667" type="curve"/>
      <point x="409" y="604.667" type="line"/>
      <point x="396.667" y="611.667" type="line"/>
      <point x="339.467" y="603.813"/>
      <point x="294.087" y="600"/>
      <point x="241.333" y="600" type="curve" smooth="yes"/>
      <point x="225" y="600" type="line" smooth="yes"/>
      <point x="189.944" y="600"/>
      <point x="155.312" y="601.403"/>
      <point x="115.333" y="606.667" type="curve"/>
      <point x="79.3333" y="315.333" type="line"/>
      <point x="87.5419" y="309.241" type="line"/>
      <point x="124.775" y="328.093"/>
      <point x="172.572" y="340"/>
      <point x="209.667" y="340" type="curve" smooth="yes"/>
      <point x="281.55" y="340"/>
      <point x="320.333" y="287.145"/>
      <point x="320.333" y="188.667" type="curve" smooth="yes"/>
      <point x="320.333" y="94.9815"/>
      <point x="276.823" y="27.3333"/>
      <point x="217" y="27.3333" type="curve" smooth="yes"/>
      <point x="196.375" y="27.3333"/>
      <point x="180.765" y="37.5354"/>
      <point x="160.667" y="64.3333" type="curve" smooth="yes"/>
      <point x="151.667" y="76.3333" type="line" smooth="yes"/>
      <point x="136.899" y="96.0231"/>
      <point x="117.117" y="106.667"/>
      <point x="95.6667" y="106.667" type="curve" smooth="yes"/>
      <point x="72.5078" y="106.667"/>
      <point x="53.3333" y="88.3627"/>
    </contour>
  </outline>
</glyph>
<glyph name="six" format="2">
  <advance width="481"/>
  <unicode hex="0036"/>
  <outline>
    <contour>
      <point x="44" y="236.827" type="curve" smooth="yes"/>
      <point x="44" y="30.659"/>
      <point x="160.313" y="-10.667"/>
      <point x="245" y="-10.667" type="curve" smooth="yes"/>
      <point x="377.191" y="-10.667"/>
      <point x="439.667" y="100.763"/>
      <point x="439.667" y="202.925" type="curve" smooth="yes"/>
      <point x="439.667" y="310.97"/>
      <point x="363.234" y="365"/>
      <point x="254.667" y="365" type="curve" smooth="yes"/>
      <point x="224.431" y="365"/>
      <point x="185.551" y="354.53"/>
      <point x="154.667" y="338.667" type="curve"/>
      <point x="182.448" y="464.859"/>
      <point x="266.37" y="548.77"/>
      <point x="395.334" y="579.667" type="curve"/>
      <point x="396.334" y="591.667"/>
      <point x="393.334" y="604"/>
      <point x="385.334" y="610.667" type="curve"/>
      <point x="185.542" y="570.223"/>
      <point x="44" y="432.964"/>
    </contour>
    <contour>
      <point x="140.667" y="223.242" type="curve" smooth="yes"/>
      <point x="140.667" y="249.367"/>
      <point x="142.605" y="275.303"/>
      <point x="147" y="301.061" type="curve"/>
      <point x="181.667" y="323.671"/>
      <point x="210.667" y="325"/>
      <point x="228" y="325" type="curve" smooth="yes"/>
      <point x="306.531" y="325"/>
      <point x="339.667" y="253.288"/>
      <point x="339.667" y="193.634" type="curve" smooth="yes"/>
      <point x="339.667" y="124.346"/>
      <point x="324.895" y="26.333"/>
      <point x="256.334" y="26.333" type="curve" smooth="yes"/>
      <point x="191.987" y="26.333"/>
      <point x="140.667" y="71.497"/>
    </contour>
  </outline>
</glyph>
<glyph name="seven" format="2">
  <advance width="481"/>
  <unicode hex="0037"/>
  <outline>
    <contour>
      <point x="123" y="-4" type="curve"/>
      <point x="130.333" y="-12.6667" type="line"/>
      <point x="209.667" y="-7.33333" type="line"/>
      <point x="265.446" y="169.772"/>
      <point x="324.667" y="323.667"/>
      <point x="442.333" y="596.333" type="curve"/>
      <point x="429.667" y="607.333" type="line"/>
      <point x="409" y="604"/>
      <point x="385" y="600"/>
      <point x="350.333" y="600" type="curve" smooth="yes"/>
      <point x="129.333" y="600" type="line" smooth="yes"/>
      <point x="95.3333" y="600"/>
      <point x="96" y="610"/>
      <point x="78" y="614" type="curve"/>
      <point x="75" y="614"/>
      <point x="74" y="614"/>
      <point x="74" y="611" type="curve" smooth="yes"/>
      <point x="74" y="563"/>
      <point x="63.9443" y="491.022"/>
      <point x="54" y="438.667" type="curve"/>
      <point x="65.6667" y="435.333"/>
      <point x="75.6667" y="434.333"/>
      <point x="87" y="435.667" type="curve"/>
      <point x="109" y="515.667"/>
      <point x="142.333" y="522.667"/>
      <point x="174.667" y="522.667" type="curve" smooth="yes"/>
      <point x="359" y="522.667" type="line"/>
      <point x="285" y="348"/>
      <point x="194.333" y="145.333"/>
    </contour>
  </outline>
</glyph>
<glyph name="eight" format="2">
  <advance width="481"/>
  <unicode hex="0038"/>
  <outline>
    <contour>
      <point x="412.333" y="489.61" type="curve" smooth="yes"/>
      <point x="412.333" y="562.326"/>
      <point x="347.667" y="610"/>
      <point x="251.333" y="610" type="curve" smooth="yes"/>
      <point x="142.333" y="610"/>
      <point x="69" y="550.985"/>
      <point x="69" y="463.594" type="curve" smooth="yes"/>
      <point x="69" y="410.56"/>
      <point x="96.333" y="370.872"/>
      <point x="159.666" y="334.184" type="curve" smooth="yes"/>
      <point x="184" y="319.843" type="line"/>
      <point x="90" y="273.813"/>
      <point x="42" y="213.78"/>
      <point x="42" y="140.07" type="curve" smooth="yes"/>
      <point x="42" y="48.011"/>
      <point x="114.667" y="-10"/>
      <point x="230" y="-10" type="curve" smooth="yes"/>
      <point x="349.667" y="-10"/>
      <point x="439.333" y="66.356"/>
      <point x="439.333" y="169.085" type="curve" smooth="yes"/>
      <point x="439.333" y="226.121"/>
      <point x="410" y="276.821"/>
      <point x="360.667" y="306.174" type="curve" smooth="yes"/>
      <point x="292.333" y="345.861" type="line"/>
      <point x="364.667" y="376.872"/>
      <point x="412.333" y="433.572"/>
    </contour>
    <contour>
      <point x="238.666" y="27.333" type="curve" smooth="yes"/>
      <point x="171.666" y="27.333"/>
      <point x="127.667" y="72.691"/>
      <point x="127.667" y="143.073" type="curve" smooth="yes"/>
      <point x="127.667" y="206.114"/>
      <point x="159.666" y="263.81"/>
      <point x="215.666" y="300.163" type="curve"/>
      <point x="264.333" y="273.145" type="line"/>
      <point x="324" y="238.126"/>
      <point x="351" y="197.107"/>
      <point x="351" y="139.738" type="curve" smooth="yes"/>
      <point x="351" y="71.693"/>
      <point x="306" y="27.333"/>
    </contour>
    <contour>
      <point x="244.666" y="574.667" type="curve" smooth="yes"/>
      <point x="294.333" y="574.667"/>
      <point x="326.333" y="541.981"/>
      <point x="326.333" y="490.28" type="curve" smooth="yes"/>
      <point x="326.333" y="448.587"/>
      <point x="300.666" y="400.223"/>
      <point x="260" y="367.875" type="curve"/>
      <point x="223.333" y="389.225" type="line" smooth="yes"/>
      <point x="181" y="414.235"/>
      <point x="157.333" y="449.26"/>
      <point x="157.333" y="486.284" type="curve" smooth="yes"/>
      <point x="157.333" y="539.646"/>
      <point x="191.666" y="574.667"/>
    </contour>
  </outline>
</glyph>
<glyph name="nine" format="2">
  <advance width="481"/>
  <unicode hex="0039"/>
  <outline>
    <contour>
      <point x="92.333" y="19.666" type="curve"/>
      <point x="91.333" y="7.666"/>
      <point x="94.333" y="-4.667"/>
      <point x="102.333" y="-11.334" type="curve"/>
      <point x="293" y="25"/>
      <point x="443.666" y="155"/>
      <point x="443.666" y="362.506" type="curve" smooth="yes"/>
      <point x="443.666" y="568.674"/>
      <point x="327.666" y="610"/>
      <point x="242.667" y="610" type="curve" smooth="yes"/>
      <point x="103.333" y="610"/>
      <point x="48" y="482.869"/>
      <point x="48" y="396.408" type="curve" smooth="yes"/>
      <point x="48" y="304.189"/>
      <point x="113.667" y="234.333"/>
      <point x="233" y="234.333" type="curve" smooth="yes"/>
      <point x="263" y="234.333"/>
      <point x="302" y="245"/>
      <point x="332.666" y="260.666" type="curve"/>
      <point x="304.666" y="130.666"/>
      <point x="217.333" y="50.333"/>
    </contour>
    <contour>
      <point x="340.666" y="298.272" type="curve"/>
      <point x="306" y="275.662"/>
      <point x="277" y="274.333"/>
      <point x="259.666" y="274.333" type="curve" smooth="yes"/>
      <point x="182" y="274.333"/>
      <point x="148" y="345.839"/>
      <point x="148" y="414.366" type="curve" smooth="yes"/>
      <point x="148" y="523.447"/>
      <point x="186.667" y="573"/>
      <point x="231.333" y="573" type="curve" smooth="yes"/>
      <point x="305.333" y="573"/>
      <point x="346.333" y="503.331"/>
      <point x="346.333" y="365.83" type="curve" smooth="yes"/>
      <point x="346.333" y="344.855"/>
      <point x="345" y="319.247"/>
    </contour>
  </outline>
</glyph>
<glyph name="colon" format="2">
  <advance width="243"/>
  <unicode hex="003A"/>
  <outline>
    <contour>
      <point x="66.671" y="59.964" type="curve" smooth="yes"/>
      <point x="66.671" y="27.964"/>
      <point x="93.338" y="1.964"/>
      <point x="126.004" y="1.964" type="curve" smooth="yes"/>
      <point x="158.671" y="1.964"/>
      <point x="186.004" y="28.631"/>
      <point x="186.004" y="60.631" type="curve" smooth="yes"/>
      <point x="186.004" y="92.964"/>
      <point x="159.337" y="118.964"/>
      <point x="126.671" y="118.964" type="curve" smooth="yes"/>
      <point x="94.004" y="118.964"/>
      <point x="66.671" y="92.297"/>
    </contour>
    <contour>
      <point x="66.666" y="358" type="curve" smooth="yes"/>
      <point x="66.666" y="326"/>
      <point x="93.333" y="300"/>
      <point x="125.999" y="300" type="curve" smooth="yes"/>
      <point x="158.666" y="300"/>
      <point x="185.999" y="326.667"/>
      <point x="185.999" y="358.667" type="curve" smooth="yes"/>
      <point x="185.999" y="391"/>
      <point x="159.333" y="417"/>
      <point x="126.666" y="417" type="curve" smooth="yes"/>
      <point x="93.999" y="417"/>
      <point x="66.666" y="390.333"/>
    </contour>
  </outline>
</glyph>
<glyph name="less" format="2">
  <advance width="537"/>
  <unicode hex="003C"/>
  <outline>
    <contour>
      <point x="143" y="239.333" type="line"/>
      <point x="460.333" y="354.667" type="line"/>
      <point x="469" y="367.453"/>
      <point x="469.667" y="401.914"/>
      <point x="460.333" y="408.667" type="curve"/>
      <point x="57.333" y="262.667" type="line"/>
      <point x="51.333" y="248.533"/>
      <point x="51.333" y="228.547"/>
      <point x="57.333" y="216" type="curve"/>
      <point x="460.333" y="69.333" type="line"/>
      <point x="469.667" y="76.086"/>
      <point x="469" y="110.547"/>
      <point x="460.333" y="123.333" type="curve"/>
    </contour>
  </outline>
</glyph>
<glyph name="equal" format="2">
  <advance width="550"/>
  <unicode hex="003D"/>
  <outline>
    <contour>
      <point x="59.667" y="312.667" type="curve" smooth="yes"/>
      <point x="59.667" y="303.851"/>
      <point x="66.333" y="294.667"/>
      <point x="77" y="294.667" type="curve" smooth="yes"/>
      <point x="461.667" y="294.667" type="line" smooth="yes"/>
      <point x="473.333" y="294.667"/>
      <point x="491.667" y="316"/>
      <point x="491.667" y="329" type="curve" smooth="yes"/>
      <point x="491.667" y="337.769"/>
      <point x="486.373" y="347"/>
      <point x="475" y="347" type="curve" smooth="yes"/>
      <point x="89.667" y="347" type="line" smooth="yes"/>
      <point x="78.667" y="347"/>
      <point x="59.667" y="329"/>
    </contour>
    <contour>
      <point x="59.667" y="160.667" type="curve" smooth="yes"/>
      <point x="59.667" y="151.737"/>
      <point x="66.333" y="142.667"/>
      <point x="77" y="142.667" type="curve" smooth="yes"/>
      <point x="461.667" y="142.667" type="line" smooth="yes"/>
      <point x="473.333" y="142.667"/>
      <point x="491.667" y="163.667"/>
      <point x="491.667" y="176.667" type="curve" smooth="yes"/>
      <point x="491.667" y="185.969"/>
      <point x="486.037" y="194.667"/>
      <point x="475" y="194.667" type="curve" smooth="yes"/>
      <point x="89.667" y="194.667" type="line" smooth="yes"/>
      <point x="78.667" y="194.667"/>
      <point x="59.667" y="177"/>
    </contour>
  </outline>
</glyph>
<glyph name="greater" format="2">
  <advance width="537"/>
  <unicode hex="003E"/>
  <outline>
    <contour>
      <point x="394.333" y="236.667" type="line"/>
      <point x="77.333" y="121.333" type="line"/>
      <point x="68.667" y="108.547"/>
      <point x="68" y="74.086"/>
      <point x="77.333" y="67.333" type="curve"/>
      <point x="480.333" y="213" type="line"/>
      <point x="486.333" y="227.134"/>
      <point x="486.333" y="247.12"/>
      <point x="480.333" y="259.667" type="curve"/>
      <point x="77.333" y="406.667" type="line"/>
      <point x="68" y="399.914"/>
      <point x="68.667" y="365.453"/>
      <point x="77.333" y="352.667" type="curve"/>
    </contour>
  </outline>
</glyph>
<glyph name="question" format="2">
  <advance width="433"/>
  <unicode hex="003F"/>
  <outline>
    <contour>
      <point x="174" y="200" type="line" smooth="yes"/>
      <point x="174" y="186.522"/>
      <point x="178.986" y="176.667"/>
      <point x="196.431" y="176.667" type="curve" smooth="yes"/>
      <point x="214.919" y="176.667"/>
      <point x="217.667" y="185.085"/>
      <point x="217.667" y="199.333" type="curve" smooth="yes"/>
      <point x="217.667" y="228.333" type="line" smooth="yes"/>
      <point x="217.667" y="291.69"/>
      <point x="233.31" y="313.605"/>
      <point x="281.988" y="349.499" type="curve" smooth="yes"/>
      <point x="352.627" y="401.724"/>
      <point x="393" y="444.309"/>
      <point x="393" y="508.341" type="curve" smooth="yes"/>
      <point x="393" y="598.334"/>
      <point x="325.333" y="658.667"/>
      <point x="219.334" y="658.667" type="curve" smooth="yes"/>
      <point x="147.359" y="658.667"/>
      <point x="39.333" y="618.381"/>
      <point x="39.333" y="534.479" type="curve" smooth="yes"/>
      <point x="39.333" y="497.027"/>
      <point x="64.463" y="483"/>
      <point x="85.666" y="483" type="curve" smooth="yes"/>
      <point x="108.333" y="483"/>
      <point x="129.333" y="496.334"/>
      <point x="129.333" y="522.901" type="curve" smooth="yes"/>
      <point x="129.333" y="533.334"/>
      <point x="127.333" y="540"/>
      <point x="124" y="545.667" type="curve" smooth="yes"/>
      <point x="120.333" y="551.667"/>
      <point x="118.333" y="558"/>
      <point x="118.333" y="566.816" type="curve" smooth="yes"/>
      <point x="118.333" y="600.667"/>
      <point x="156.667" y="624.667"/>
      <point x="209.334" y="624.667" type="curve" smooth="yes"/>
      <point x="272.675" y="624.667"/>
      <point x="299.333" y="562.812"/>
      <point x="299.333" y="504.917" type="curve" smooth="yes"/>
      <point x="299.333" y="460.334"/>
      <point x="283.69" y="429.991"/>
      <point x="247.666" y="395" type="curve" smooth="yes"/>
      <point x="235.667" y="383.334" type="line" smooth="yes"/>
      <point x="184.514" y="333.73"/>
      <point x="174" y="278.612"/>
      <point x="174" y="230.333" type="curve" smooth="yes"/>
    </contour>
    <contour>
      <point x="136.333" y="48" type="curve" smooth="yes"/>
      <point x="136.333" y="16"/>
      <point x="163" y="-10"/>
      <point x="195.667" y="-10" type="curve" smooth="yes"/>
      <point x="228.333" y="-10"/>
      <point x="255.666" y="16.667"/>
      <point x="255.666" y="48.667" type="curve" smooth="yes"/>
      <point x="255.666" y="81"/>
      <point x="229" y="107"/>
      <point x="196.334" y="107" type="curve" smooth="yes"/>
      <point x="163.667" y="107"/>
      <point x="136.333" y="80.333"/>
    </contour>
  </outline>
</glyph>
<glyph name="at" format="2">
  <advance width="926"/>
  <unicode hex="0040"/>
  <outline>
    <contour>
      <point x="602" y="76" type="curve" smooth="yes"/>
      <point x="602" y="84.333"/>
      <point x="609" y="116"/>
      <point x="615" y="142.667" type="curve" smooth="yes"/>
      <point x="674.666" y="399" type="line"/>
      <point x="660.333" y="404.333" type="line"/>
      <point x="599.711" y="393.667" type="line"/>
      <point x="594.318" y="370.333" type="line"/>
      <point x="583.67" y="394.909"/>
      <point x="547.938" y="411.509"/>
      <point x="514.418" y="411.509" type="curve" smooth="yes"/>
      <point x="405.37" y="411.509"/>
      <point x="281" y="292.091"/>
      <point x="281" y="154.667" type="curve" smooth="yes"/>
      <point x="281" y="76.146"/>
      <point x="327.011" y="27.913"/>
      <point x="399.613" y="27.913" type="curve" smooth="yes"/>
      <point x="442.178" y="27.913"/>
      <point x="497.185" y="54.651"/>
      <point x="536.832" y="121.898" type="curve"/>
      <point x="538.57" y="121.232" type="line"/>
      <point x="531.773" y="100.732"/>
      <point x="526.23" y="81.585"/>
      <point x="526.23" y="68.135" type="curve"/>
      <point x="526.231" y="46.214"/>
      <point x="543.75" y="26.158"/>
      <point x="580.008" y="26.122" type="curve" smooth="yes"/>
      <point x="743.792" y="25.839"/>
      <point x="856" y="130.633"/>
      <point x="856" y="283.667" type="curve" smooth="yes"/>
      <point x="856" y="471.333"/>
      <point x="702.333" y="614.333"/>
      <point x="483.667" y="614.333" type="curve" smooth="yes"/>
      <point x="249.333" y="614.333"/>
      <point x="70" y="434.667"/>
      <point x="70" y="222.333" type="curve" smooth="yes"/>
      <point x="70" y="4.333"/>
      <point x="231.667" y="-158.667"/>
      <point x="470" y="-158.667" type="curve" smooth="yes"/>
      <point x="586.333" y="-158.667"/>
      <point x="647.333" y="-123.334"/>
      <point x="708.666" y="-76.334" type="curve"/>
      <point x="693" y="-54.667" type="line"/>
      <point x="636.333" y="-100.334"/>
      <point x="571.333" y="-123.667"/>
      <point x="489" y="-123.667" type="curve" smooth="yes"/>
      <point x="235.667" y="-123.667"/>
      <point x="154.667" y="87.333"/>
      <point x="154.667" y="236.667" type="curve" smooth="yes"/>
      <point x="154.667" y="471.667"/>
      <point x="321" y="581.333"/>
      <point x="474" y="581.333" type="curve" smooth="yes"/>
      <point x="654.089" y="581.333"/>
      <point x="774.333" y="458.748"/>
      <point x="774.333" y="274.333" type="curve" smooth="yes"/>
      <point x="774.333" y="127.109"/>
      <point x="704.53" y="63.333"/>
      <point x="615.333" y="63.333" type="curve" smooth="yes"/>
      <point x="610.333" y="63.333"/>
      <point x="602" y="65"/>
    </contour>
    <contour>
      <point x="574.667" y="317.333" type="curve" smooth="yes"/>
      <point x="574.667" y="287.333"/>
      <point x="557.834" y="234.161"/>
      <point x="546" y="201.333" type="curve" smooth="yes"/>
      <point x="540.333" y="186.333" type="line" smooth="yes"/>
      <point x="514.326" y="113.323"/>
      <point x="468.662" y="71.692"/>
      <point x="436.274" y="71.692" type="curve" smooth="yes"/>
      <point x="381.175" y="71.692"/>
      <point x="368.667" y="115.028"/>
      <point x="368.667" y="162.667" type="curve" smooth="yes"/>
      <point x="368.667" y="246.803"/>
      <point x="416.608" y="378.845"/>
      <point x="516.017" y="378.845" type="curve" smooth="yes"/>
      <point x="550.273" y="378.845"/>
      <point x="574.667" y="353.7"/>
    </contour>
  </outline>
</glyph>
<glyph name="A" format="2">
  <advance width="710"/>
  <unicode hex="0041"/>
  <anchor x="354" y="740" name="t.uni0302"/>
  <anchor x="365.667" y="610" name="t.ring"/>
  <anchor x="352.667" y="-60" name="b.minus-60"/>
  <anchor x="607.333" y="10" name="b.ogonek"/>
  <outline>
    <contour>
      <point x="158.333" y="79" type="curve" smooth="yes"/>
      <point x="212.667" y="222" type="line" smooth="yes"/>
      <point x="217.667" y="235"/>
      <point x="223.667" y="239"/>
      <point x="247.667" y="239" type="curve" smooth="yes"/>
      <point x="451.667" y="239" type="line"/>
      <point x="509" y="72" type="line" smooth="yes"/>
      <point x="520.333" y="39.333"/>
      <point x="476.667" y="34.333"/>
      <point x="435" y="31.333" type="curve"/>
      <point x="429" y="25.333"/>
      <point x="429" y="4"/>
      <point x="435" y="-2" type="curve"/>
      <point x="472" y="-1"/>
      <point x="540.333" y="0"/>
      <point x="579.333" y="0" type="curve" smooth="yes"/>
      <point x="620.333" y="0"/>
      <point x="664.333" y="-1"/>
      <point x="700" y="-2" type="curve"/>
      <point x="706" y="4"/>
      <point x="706" y="25.333"/>
      <point x="700" y="31.333" type="curve"/>
      <point x="661" y="35.333"/>
      <point x="627.611" y="37.099"/>
      <point x="610" y="86" type="curve" smooth="yes"/>
      <point x="404" y="658" type="line"/>
      <point x="389" y="649"/>
      <point x="351" y="630"/>
      <point x="330.667" y="630" type="curve"/>
      <point x="107" y="102" type="line" smooth="yes"/>
      <point x="81" y="40"/>
      <point x="51" y="34.333"/>
      <point x="7" y="31.333" type="curve"/>
      <point x="1" y="25.333"/>
      <point x="1" y="4"/>
      <point x="7" y="-2" type="curve"/>
      <point x="36.667" y="-1"/>
      <point x="64.667" y="0"/>
      <point x="97.667" y="0" type="curve" smooth="yes"/>
      <point x="138.667" y="0"/>
      <point x="190.333" y="-1"/>
      <point x="227.333" y="-2" type="curve"/>
      <point x="233.333" y="4"/>
      <point x="233.333" y="25.333"/>
      <point x="227.333" y="31.333" type="curve"/>
      <point x="189.333" y="34.333"/>
      <point x="142.333" y="38"/>
    </contour>
    <contour>
      <point x="266.333" y="283" type="line" smooth="yes"/>
      <point x="244.333" y="283"/>
      <point x="237.333" y="286"/>
      <point x="241.333" y="296" type="curve" smooth="yes"/>
      <point x="338.667" y="543.333" type="line"/>
      <point x="345" y="543.333" type="line"/>
      <point x="435" y="283" type="line"/>
    </contour>
  </outline>
</glyph>
<glyph name="B" format="2">
  <advance width="606"/>
  <unicode hex="0042"/>
  <anchor x="249.667" y="740" name="t.uni0302"/>
  <anchor x="249.667" y="-60" name="b.minus-60"/>
  <outline>
    <contour>
      <point x="21.6667" y="-2" type="curve"/>
      <point x="62.6667" y="-1"/>
      <point x="135" y="0"/>
      <point x="160" y="0" type="curve"/>
      <point x="160" y="645" type="line"/>
      <point x="136.667" y="645"/>
      <point x="65" y="646"/>
      <point x="21.6667" y="647" type="curve"/>
      <point x="15.6667" y="641"/>
      <point x="15.6667" y="619.667"/>
      <point x="21.6667" y="613.667" type="curve"/>
      <point x="91.6667" y="610.667"/>
      <point x="108.667" y="604.333"/>
      <point x="108.667" y="525.333" type="curve" smooth="yes"/>
      <point x="108.667" y="121" type="line" smooth="yes"/>
      <point x="108.667" y="39"/>
      <point x="91.6667" y="34.3333"/>
      <point x="21.6667" y="31.3333" type="curve"/>
      <point x="15.6667" y="25.3333"/>
      <point x="15.6667" y="4"/>
    </contour>
    <contour>
      <point x="160" y="645" type="curve"/>
      <point x="160" y="0" type="line"/>
      <point x="197.333" y="0"/>
      <point x="236" y="-2"/>
      <point x="312" y="-2" type="curve" smooth="yes"/>
      <point x="513" y="-2"/>
      <point x="570.333" y="93.3333"/>
      <point x="570.333" y="184.667" type="curve" smooth="yes"/>
      <point x="570.333" y="278"/>
      <point x="511" y="333.667"/>
      <point x="417.667" y="359.667" type="curve"/>
      <point x="417.667" y="361.667" type="line"/>
      <point x="469" y="386.333"/>
      <point x="513" y="439.333"/>
      <point x="513" y="492.333" type="curve" smooth="yes"/>
      <point x="513" y="560"/>
      <point x="481.333" y="647"/>
      <point x="290" y="647" type="curve" smooth="yes"/>
      <point x="250" y="647"/>
      <point x="194.667" y="645"/>
    </contour>
    <contour>
      <point x="211" y="332.667" type="line"/>
      <point x="280.667" y="332.667" type="line" smooth="yes"/>
      <point x="406.333" y="332.667"/>
      <point x="459.333" y="261"/>
      <point x="459.333" y="172.333" type="curve" smooth="yes"/>
      <point x="459.333" y="103.667"/>
      <point x="433.667" y="34"/>
      <point x="288.333" y="34" type="curve" smooth="yes"/>
      <point x="221.667" y="34"/>
      <point x="211" y="56.3333"/>
      <point x="211" y="106.667" type="curve" smooth="yes"/>
    </contour>
    <contour>
      <point x="211" y="554" type="line" smooth="yes"/>
      <point x="211" y="599"/>
      <point x="212.667" y="610.333"/>
      <point x="292.333" y="610.333" type="curve" smooth="yes"/>
      <point x="345" y="610.333"/>
      <point x="412.333" y="584.333"/>
      <point x="412.333" y="483.667" type="curve" smooth="yes"/>
      <point x="412.333" y="400.333"/>
      <point x="358" y="369.333"/>
      <point x="279" y="369.333" type="curve" smooth="yes"/>
      <point x="211" y="369.333" type="line"/>
    </contour>
  </outline>
  <guideline angle="90" x="274" y="0"/>
</glyph>
<glyph name="C" format="2">
  <advance width="666"/>
  <unicode hex="0043"/>
  <anchor x="344.333" y="740" name="t.uni0302"/>
  <anchor x="343.667" y="-60" name="b.minus-60"/>
  <anchor x="355.667" y="0" name="b.cedilla"/>
  <outline>
    <contour>
      <point x="370.001" y="-10" type="curve" smooth="yes"/>
      <point x="467.001" y="-10"/>
      <point x="556.001" y="36"/>
      <point x="624.001" y="125" type="curve"/>
      <point x="619.001" y="134"/>
      <point x="608.667" y="142"/>
      <point x="597.667" y="142" type="curve"/>
      <point x="526.667" y="64"/>
      <point x="454.334" y="34.667"/>
      <point x="369.001" y="34.667" type="curve" smooth="yes"/>
      <point x="240.334" y="34.667"/>
      <point x="147.667" y="181.334"/>
      <point x="147.667" y="330.667" type="curve" smooth="yes"/>
      <point x="147.667" y="466.334"/>
      <point x="220.334" y="619.667"/>
      <point x="360.001" y="619.667" type="curve" smooth="yes"/>
      <point x="498.001" y="619.667"/>
      <point x="549.667" y="539"/>
      <point x="575.667" y="453" type="curve"/>
      <point x="587.667" y="449"/>
      <point x="601.001" y="452"/>
      <point x="612.001" y="458" type="curve"/>
      <point x="607.001" y="510"/>
      <point x="599.667" y="558"/>
      <point x="590.001" y="613" type="curve"/>
      <point x="539.001" y="618"/>
      <point x="494.001" y="658"/>
      <point x="371.001" y="658" type="curve" smooth="yes"/>
      <point x="176.334" y="658"/>
      <point x="36.6667" y="509"/>
      <point x="36.6667" y="311.667" type="curve" smooth="yes"/>
      <point x="36.6667" y="121"/>
      <point x="158.334" y="-10"/>
    </contour>
  </outline>
</glyph>
<glyph name="D" format="2">
  <advance width="712"/>
  <unicode hex="0044"/>
  <anchor x="317.667" y="740" name="t.uni0302"/>
  <anchor x="337" y="-60" name="b.minus-60"/>
  <outline>
    <contour>
      <point x="21.667" y="-2" type="curve"/>
      <point x="62.667" y="-1"/>
      <point x="135" y="0"/>
      <point x="160" y="0" type="curve"/>
      <point x="160" y="645" type="line"/>
      <point x="136.667" y="645"/>
      <point x="65" y="646"/>
      <point x="21.667" y="647" type="curve"/>
      <point x="15.667" y="641"/>
      <point x="15.667" y="619.667"/>
      <point x="21.667" y="613.667" type="curve"/>
      <point x="91.667" y="610.667"/>
      <point x="108.667" y="604.333"/>
      <point x="108.667" y="525.333" type="curve" smooth="yes"/>
      <point x="108.667" y="121" type="line" smooth="yes"/>
      <point x="108.667" y="39"/>
      <point x="91.667" y="34.334"/>
      <point x="21.667" y="31.334" type="curve"/>
      <point x="15.667" y="25.334"/>
      <point x="15.667" y="4"/>
    </contour>
    <contour>
      <point x="21.667" y="-2" type="curve"/>
      <point x="62.667" y="-1"/>
      <point x="135" y="0"/>
      <point x="160" y="0" type="curve"/>
      <point x="160" y="645" type="line"/>
      <point x="136.667" y="645"/>
      <point x="65" y="646"/>
      <point x="21.667" y="647" type="curve"/>
      <point x="15.667" y="641"/>
      <point x="15.667" y="619.667"/>
      <point x="21.667" y="613.667" type="curve"/>
      <point x="91.667" y="610.667"/>
      <point x="108.667" y="604.333"/>
      <point x="108.667" y="525.333" type="curve" smooth="yes"/>
      <point x="108.667" y="121" type="line" smooth="yes"/>
      <point x="108.667" y="39"/>
      <point x="91.667" y="34.334"/>
      <point x="21.667" y="31.334" type="curve"/>
      <point x="15.667" y="25.334"/>
      <point x="15.667" y="4"/>
    </contour>
    <contour>
      <point x="159.667" y="0" type="line"/>
      <point x="197.667" y="0"/>
      <point x="254" y="-2"/>
      <point x="336" y="-2" type="curve" smooth="yes"/>
      <point x="498.667" y="-2"/>
      <point x="667" y="73.081"/>
      <point x="667" y="308.485" type="curve" smooth="yes"/>
      <point x="667" y="494"/>
      <point x="525" y="646.667"/>
      <point x="315" y="646.667" type="curve" smooth="yes"/>
      <point x="250" y="646.667"/>
      <point x="199" y="645"/>
      <point x="159.667" y="645" type="curve"/>
    </contour>
    <contour>
      <point x="211" y="95.783" type="curve" smooth="yes"/>
      <point x="211" y="552.333" type="line" smooth="yes"/>
      <point x="211" y="594"/>
      <point x="243" y="610"/>
      <point x="287.667" y="610" type="curve" smooth="yes"/>
      <point x="497.333" y="610"/>
      <point x="552" y="437"/>
      <point x="552" y="284.332" type="curve" smooth="yes"/>
      <point x="552" y="88.758"/>
      <point x="435" y="34.667"/>
      <point x="315.667" y="34.667" type="curve" smooth="yes"/>
      <point x="227" y="34.667"/>
      <point x="211" y="52.018"/>
    </contour>
  </outline>
</glyph>
<glyph name="E" format="2">
  <advance width="579"/>
  <unicode hex="0045"/>
  <anchor x="284.667" y="740" name="t.uni0302"/>
  <anchor x="332.667" y="10" name="b.ogonek"/>
  <anchor x="299.667" y="-60" name="b.minus-60"/>
  <anchor x="360.667" y="0" name="b.cedilla"/>
  <outline>
    <contour>
      <point x="21.6667" y="-2" type="curve"/>
      <point x="62.6667" y="-1"/>
      <point x="134.167" y="0"/>
      <point x="159.667" y="0" type="curve"/>
      <point x="159.667" y="645" type="line"/>
      <point x="136.333" y="645"/>
      <point x="65" y="646"/>
      <point x="21.6667" y="647" type="curve"/>
      <point x="15.6667" y="641"/>
      <point x="15.6667" y="619.667"/>
      <point x="21.6667" y="613.667" type="curve"/>
      <point x="91.6667" y="610.667"/>
      <point x="108.667" y="604.333"/>
      <point x="108.667" y="525.333" type="curve" smooth="yes"/>
      <point x="108.667" y="120.667" type="line" smooth="yes"/>
      <point x="108.667" y="39"/>
      <point x="91.6667" y="34.3333"/>
      <point x="21.6667" y="31.3333" type="curve"/>
      <point x="15.6667" y="25.3333"/>
      <point x="15.6667" y="4"/>
    </contour>
    <contour>
      <point x="212" y="545.333" type="line" smooth="yes"/>
      <point x="212" y="582.667"/>
      <point x="225.667" y="604.333"/>
      <point x="269.667" y="604.333" type="curve" smooth="yes"/>
      <point x="348" y="604.333" type="line" smooth="yes"/>
      <point x="423" y="604.333"/>
      <point x="440.667" y="565"/>
      <point x="462.667" y="496" type="curve"/>
      <point x="474.667" y="494"/>
      <point x="489" y="496"/>
      <point x="499" y="501" type="curve"/>
      <point x="494" y="542"/>
      <point x="482.333" y="638"/>
      <point x="480.333" y="646" type="curve"/>
      <point x="480.333" y="648"/>
      <point x="479.333" y="649"/>
      <point x="476.333" y="649" type="curve"/>
      <point x="459.333" y="646"/>
      <point x="451.333" y="645"/>
      <point x="427.333" y="645" type="curve" smooth="yes"/>
      <point x="159.667" y="645" type="line"/>
      <point x="159.667" y="0" type="line"/>
      <point x="381.667" y="0" type="line" smooth="yes"/>
      <point x="429.667" y="0"/>
      <point x="507.667" y="-1.86667"/>
      <point x="513" y="-2" type="curve"/>
      <point x="527" y="48"/>
      <point x="538.667" y="114"/>
      <point x="546.667" y="165" type="curve"/>
      <point x="536.667" y="171"/>
      <point x="521.333" y="173"/>
      <point x="508.333" y="170" type="curve"/>
      <point x="488.333" y="98"/>
      <point x="450" y="40"/>
      <point x="374" y="40" type="curve" smooth="yes"/>
      <point x="263" y="40" type="line" smooth="yes"/>
      <point x="227.667" y="40"/>
      <point x="212" y="57.6667"/>
      <point x="212" y="98" type="curve" smooth="yes"/>
    </contour>
    <contour>
      <point x="299.667" y="362.333" type="curve" smooth="yes"/>
      <point x="197" y="362.333" type="line"/>
      <point x="197" y="321.667" type="line"/>
      <point x="299.667" y="321.667" type="line" smooth="yes"/>
      <point x="379.333" y="321.667"/>
      <point x="387.667" y="300"/>
      <point x="390.667" y="255" type="curve"/>
      <point x="396.667" y="249"/>
      <point x="421" y="249"/>
      <point x="427" y="255" type="curve"/>
      <point x="426" y="284"/>
      <point x="425" y="309"/>
      <point x="425" y="343" type="curve" smooth="yes"/>
      <point x="425" y="373"/>
      <point x="426" y="403"/>
      <point x="427" y="429" type="curve"/>
      <point x="421" y="435"/>
      <point x="396.667" y="435"/>
      <point x="390.667" y="429" type="curve"/>
      <point x="387.667" y="374"/>
      <point x="378.667" y="362.333"/>
    </contour>
  </outline>
</glyph>
<glyph name="F" format="2">
  <advance width="510"/>
  <unicode hex="0046"/>
  <anchor x="282.667" y="740" name="t.uni0302"/>
  <anchor x="282" y="-60" name="b.minus-60"/>
  <outline>
    <contour>
      <point x="21.6667" y="-2" type="curve"/>
      <point x="62.6667" y="-1"/>
      <point x="134.167" y="0"/>
      <point x="159.667" y="0" type="curve"/>
      <point x="159.667" y="645" type="line"/>
      <point x="136.333" y="645"/>
      <point x="65" y="646"/>
      <point x="21.6667" y="647" type="curve"/>
      <point x="15.6667" y="641"/>
      <point x="15.6667" y="619.667"/>
      <point x="21.6667" y="613.667" type="curve"/>
      <point x="91.6667" y="610.667"/>
      <point x="108.667" y="604.333"/>
      <point x="108.667" y="525.333" type="curve" smooth="yes"/>
      <point x="108.667" y="120.908" type="line" smooth="yes"/>
      <point x="108.667" y="39"/>
      <point x="91.6667" y="34.3333"/>
      <point x="21.6667" y="31.3333" type="curve"/>
      <point x="15.6667" y="25.3333"/>
      <point x="15.6667" y="4"/>
    </contour>
    <contour>
      <point x="159.667" y="0" type="line"/>
      <point x="203" y="0"/>
      <point x="264" y="-1"/>
      <point x="300.667" y="-2" type="curve"/>
      <point x="308" y="4"/>
      <point x="308" y="25.3333"/>
      <point x="300.667" y="31.3333" type="curve"/>
      <point x="235.667" y="34.3333"/>
      <point x="211.667" y="39.6667"/>
      <point x="211.667" y="120.94" type="curve" smooth="yes"/>
      <point x="211.667" y="545.333" type="line" smooth="yes"/>
      <point x="211.667" y="589.333"/>
      <point x="225.333" y="604.333"/>
      <point x="262.667" y="604.333" type="curve" smooth="yes"/>
      <point x="322.667" y="604.333" type="line" smooth="yes"/>
      <point x="418.333" y="604.333"/>
      <point x="443.667" y="563.333"/>
      <point x="465.667" y="494.333" type="curve"/>
      <point x="477.667" y="493.667"/>
      <point x="489.333" y="495.667"/>
      <point x="498" y="499.333" type="curve"/>
      <point x="493.667" y="541.333"/>
      <point x="481" y="638"/>
      <point x="479.333" y="646" type="curve"/>
      <point x="479.333" y="648"/>
      <point x="478.333" y="649"/>
      <point x="475.333" y="649" type="curve"/>
      <point x="458.333" y="646"/>
      <point x="452.333" y="645"/>
      <point x="427.667" y="645" type="curve" smooth="yes"/>
      <point x="159.667" y="645" type="line"/>
    </contour>
    <contour>
      <point x="196.667" y="315" type="line"/>
      <point x="300.667" y="315" type="line" smooth="yes"/>
      <point x="380.333" y="315"/>
      <point x="388.667" y="293.333"/>
      <point x="391.667" y="248.333" type="curve"/>
      <point x="397.667" y="242.333"/>
      <point x="422" y="242.333"/>
      <point x="428" y="248.333" type="curve"/>
      <point x="426.667" y="276.667"/>
      <point x="426" y="306"/>
      <point x="426" y="336.333" type="curve" smooth="yes"/>
      <point x="426" y="366.667"/>
      <point x="427" y="395.333"/>
      <point x="428" y="422.333" type="curve"/>
      <point x="422" y="428.333"/>
      <point x="397.667" y="428.333"/>
      <point x="391.667" y="422.333" type="curve"/>
      <point x="388.667" y="367.333"/>
      <point x="379.667" y="355.667"/>
      <point x="300.667" y="355.667" type="curve" smooth="yes"/>
      <point x="196.667" y="355.667" type="line"/>
    </contour>
  </outline>
</glyph>
<glyph name="G" format="2">
  <advance width="702"/>
  <unicode hex="0047"/>
  <anchor x="361" y="740" name="t.uni0302"/>
  <anchor x="360.333" y="-60" name="b.minus-60"/>
  <outline>
    <contour>
      <point x="384" y="658" type="curve" smooth="yes"/>
      <point x="203.333" y="658"/>
      <point x="36.667" y="524.333"/>
      <point x="36.667" y="307" type="curve" smooth="yes"/>
      <point x="36.667" y="116"/>
      <point x="170.667" y="-10"/>
      <point x="364" y="-10" type="curve" smooth="yes"/>
      <point x="480" y="-10"/>
      <point x="578" y="18"/>
      <point x="644.667" y="74.667" type="curve"/>
      <point x="634" y="83.667"/>
      <point x="629" y="91.667"/>
      <point x="629" y="102.667" type="curve" smooth="yes"/>
      <point x="629" y="219" type="line" smooth="yes"/>
      <point x="629" y="254"/>
      <point x="645.333" y="264"/>
      <point x="674" y="267" type="curve"/>
      <point x="680" y="273"/>
      <point x="680" y="297.333"/>
      <point x="674" y="303.333" type="curve"/>
      <point x="648.667" y="302.333"/>
      <point x="616.333" y="301.333"/>
      <point x="577" y="301.333" type="curve" smooth="yes"/>
      <point x="542.667" y="301.333"/>
      <point x="489.334" y="302.333"/>
      <point x="445" y="303.333" type="curve"/>
      <point x="439" y="297.333"/>
      <point x="439" y="273"/>
      <point x="445" y="267" type="curve"/>
      <point x="499" y="263"/>
      <point x="525.667" y="259"/>
      <point x="525.667" y="219" type="curve" smooth="yes"/>
      <point x="525.667" y="67.333" type="line"/>
      <point x="492.334" y="35.333"/>
      <point x="439.667" y="28"/>
      <point x="386.667" y="28" type="curve" smooth="yes"/>
      <point x="225" y="28"/>
      <point x="151" y="195"/>
      <point x="151" y="327" type="curve" smooth="yes"/>
      <point x="151" y="487.333"/>
      <point x="238.667" y="620"/>
      <point x="370" y="620" type="curve" smooth="yes"/>
      <point x="510" y="620"/>
      <point x="559.334" y="539"/>
      <point x="585" y="453" type="curve"/>
      <point x="597.667" y="451.666"/>
      <point x="610.333" y="453.666"/>
      <point x="621.667" y="459" type="curve"/>
      <point x="617.333" y="501"/>
      <point x="612.333" y="544.333"/>
      <point x="599.333" y="616.333" type="curve"/>
      <point x="542" y="623"/>
      <point x="499.667" y="658"/>
    </contour>
  </outline>
</glyph>
<glyph name="H" format="2">
  <advance width="755"/>
  <unicode hex="0048"/>
  <anchor x="359" y="740" name="t.uni0302"/>
  <anchor x="379" y="-60" name="b.minus-60"/>
  <anchor x="163.333" y="10" name="b.cedilla"/>
  <outline>
    <contour>
      <point x="22.6667" y="-2" type="curve"/>
      <point x="65.3333" y="-1"/>
      <point x="122" y="0"/>
      <point x="160.667" y="0" type="curve" smooth="yes"/>
      <point x="198" y="0"/>
      <point x="254.667" y="-1"/>
      <point x="297.333" y="-2" type="curve"/>
      <point x="304.667" y="4"/>
      <point x="304.667" y="25.3333"/>
      <point x="297.333" y="31.3333" type="curve"/>
      <point x="232.333" y="34.3333"/>
      <point x="211.667" y="39"/>
      <point x="211.667" y="122" type="curve" smooth="yes"/>
      <point x="211.667" y="320.333" type="line"/>
      <point x="543" y="320.333" type="line"/>
      <point x="543" y="122" type="line" smooth="yes"/>
      <point x="543" y="39"/>
      <point x="522.333" y="34.3333"/>
      <point x="457.333" y="31.3333" type="curve"/>
      <point x="450" y="25.3333"/>
      <point x="450" y="4"/>
      <point x="457.333" y="-2" type="curve"/>
      <point x="500.667" y="-1"/>
      <point x="557.333" y="0"/>
      <point x="595.333" y="0" type="curve" smooth="yes"/>
      <point x="633.333" y="0"/>
      <point x="689.333" y="-1"/>
      <point x="732" y="-2" type="curve"/>
      <point x="739.333" y="4"/>
      <point x="739.333" y="25.3333"/>
      <point x="732" y="31.3333" type="curve"/>
      <point x="667" y="34.3333"/>
      <point x="646.333" y="39"/>
      <point x="646.333" y="122" type="curve" smooth="yes"/>
      <point x="646.333" y="523" type="line" smooth="yes"/>
      <point x="646.333" y="606"/>
      <point x="667" y="610.667"/>
      <point x="732" y="613.667" type="curve"/>
      <point x="739.333" y="619.667"/>
      <point x="739.333" y="641"/>
      <point x="732" y="647" type="curve"/>
      <point x="691.333" y="646"/>
      <point x="633.333" y="645"/>
      <point x="594.667" y="645" type="curve" smooth="yes"/>
      <point x="556.667" y="645"/>
      <point x="500" y="646"/>
      <point x="457.333" y="647" type="curve"/>
      <point x="450" y="641"/>
      <point x="450" y="619.667"/>
      <point x="457.333" y="613.667" type="curve"/>
      <point x="522.333" y="610.667"/>
      <point x="543" y="606"/>
      <point x="543" y="523" type="curve" smooth="yes"/>
      <point x="543" y="364.333" type="line"/>
      <point x="211.667" y="364.333" type="line"/>
      <point x="211.667" y="523" type="line" smooth="yes"/>
      <point x="211.667" y="606"/>
      <point x="232.333" y="610.667"/>
      <point x="297.333" y="613.667" type="curve"/>
      <point x="304.667" y="619.667"/>
      <point x="304.667" y="641"/>
      <point x="297.333" y="647" type="curve"/>
      <point x="258.667" y="646"/>
      <point x="207.333" y="645"/>
      <point x="160" y="645" type="curve" smooth="yes"/>
      <point x="113.333" y="645"/>
      <point x="61.3333" y="646"/>
      <point x="22.6667" y="647" type="curve"/>
      <point x="15.3333" y="641"/>
      <point x="15.3333" y="619.667"/>
      <point x="22.6667" y="613.667" type="curve"/>
      <point x="87.6667" y="610.667"/>
      <point x="108.333" y="606"/>
      <point x="108.333" y="523" type="curve" smooth="yes"/>
      <point x="108.333" y="122" type="line" smooth="yes"/>
      <point x="108.333" y="39"/>
      <point x="87.6667" y="34.3333"/>
      <point x="22.6667" y="31.3333" type="curve"/>
      <point x="15.3333" y="25.3333"/>
      <point x="15.3333" y="4"/>
    </contour>
  </outline>
  <guideline angle="90" x="362" y="0"/>
</glyph>
<glyph name="I" format="2">
  <advance width="321"/>
  <unicode hex="0049"/>
  <anchor x="159.667" y="740" name="t.uni0302"/>
  <anchor x="203.667" y="10" name="b.ogonek"/>
  <anchor x="161" y="-60" name="b.minus-60"/>
  <outline>
    <contour>
      <point x="108.333" y="120.666" type="line"/>
      <point x="108.333" y="53"/>
      <point x="92" y="34.333"/>
      <point x="22.666" y="31.333" type="curve"/>
      <point x="15.333" y="25.333"/>
      <point x="15.333" y="4"/>
      <point x="22.666" y="-2" type="curve"/>
      <point x="81.333" y="-1"/>
      <point x="140.333" y="0"/>
      <point x="170.333" y="0" type="curve"/>
      <point x="170.333" y="120.666" type="line"/>
    </contour>
    <contour>
      <point x="150.333" y="0" type="line"/>
      <point x="180.333" y="0"/>
      <point x="240.666" y="-1"/>
      <point x="298.666" y="-2" type="curve"/>
      <point x="306" y="4"/>
      <point x="306.666" y="25.333"/>
      <point x="298.666" y="31.333" type="curve"/>
      <point x="229.333" y="34.333"/>
      <point x="212.333" y="53"/>
      <point x="212.333" y="120.666" type="curve"/>
      <point x="150.333" y="120.666" type="line"/>
    </contour>
    <contour>
      <point x="108.333" y="100.666" type="line"/>
      <point x="212.333" y="100.666" type="line"/>
      <point x="212.333" y="544.334" type="line"/>
      <point x="108.333" y="544.334" type="line"/>
    </contour>
    <contour>
      <point x="108.333" y="524.334" type="curve"/>
      <point x="170.333" y="524.334" type="line"/>
      <point x="170.333" y="645" type="line"/>
      <point x="141" y="645"/>
      <point x="81.333" y="646"/>
      <point x="22.666" y="647" type="curve"/>
      <point x="15.333" y="641"/>
      <point x="15.333" y="619.667"/>
      <point x="22.666" y="613.667" type="curve"/>
      <point x="92" y="610.667"/>
      <point x="108.333" y="592"/>
    </contour>
    <contour>
      <point x="150.333" y="524.334" type="line"/>
      <point x="212.333" y="524.334" type="line"/>
      <point x="212.333" y="592"/>
      <point x="229.333" y="610.667"/>
      <point x="298.666" y="613.667" type="curve"/>
      <point x="306" y="619.667"/>
      <point x="306" y="641"/>
      <point x="298.666" y="647" type="curve"/>
      <point x="242.666" y="646"/>
      <point x="183" y="645"/>
      <point x="150.333" y="645" type="curve"/>
    </contour>
  </outline>
</glyph>
<glyph name="J" format="2">
  <advance width="311"/>
  <unicode hex="004A"/>
  <anchor x="155.667" y="740" name="t.uni0302"/>
  <outline>
    <contour>
      <point x="216.666" y="522.667" type="line" smooth="yes"/>
      <point x="216.666" y="605.667"/>
      <point x="233.666" y="610.667"/>
      <point x="293.666" y="613.667" type="curve"/>
      <point x="299.666" y="619.667"/>
      <point x="299.666" y="641"/>
      <point x="293.666" y="647" type="curve"/>
      <point x="251.999" y="646"/>
      <point x="209.666" y="645"/>
      <point x="164.332" y="645" type="curve" smooth="yes"/>
      <point x="118.666" y="645"/>
      <point x="66.3333" y="646"/>
      <point x="16.3333" y="647" type="curve"/>
      <point x="10.3333" y="641"/>
      <point x="10.3333" y="619.667"/>
      <point x="16.3333" y="613.667" type="curve"/>
      <point x="96.3333" y="610.667"/>
      <point x="113.333" y="605.667"/>
      <point x="113.333" y="522.667" type="curve" smooth="yes"/>
      <point x="113.333" y="81" type="line" smooth="yes"/>
      <point x="113.333" y="-99"/>
      <point x="76.6663" y="-127.333"/>
      <point x="40.3333" y="-127.333" type="curve" smooth="yes"/>
      <point x="21.6663" y="-127.333"/>
      <point x="6.33333" y="-116"/>
      <point x="-1.66667" y="-101.666" type="curve"/>
      <point x="-10.0007" y="-88"/>
      <point x="-17.6667" y="-70"/>
      <point x="-47.6667" y="-70" type="curve" smooth="yes"/>
      <point x="-63.0007" y="-70"/>
      <point x="-96.3337" y="-93"/>
      <point x="-96.3337" y="-117.333" type="curve" smooth="yes"/>
      <point x="-96.3337" y="-157"/>
      <point x="-38.0007" y="-177"/>
      <point x="-13.6667" y="-177" type="curve" smooth="yes"/>
      <point x="35.9993" y="-177"/>
      <point x="73.6663" y="-164"/>
      <point x="114.666" y="-129" type="curve" smooth="yes"/>
      <point x="158.666" y="-92"/>
      <point x="216.666" y="-40"/>
      <point x="216.666" y="103" type="curve" smooth="yes"/>
    </contour>
  </outline>
</glyph>
<glyph name="K" format="2">
  <advance width="672"/>
  <unicode hex="004B"/>
  <anchor x="328.333" y="740" name="t.uni0302"/>
  <anchor x="327.667" y="-60" name="b.minus-60"/>
  <outline>
    <contour>
      <point x="21.6667" y="-2" type="curve"/>
      <point x="62.6667" y="-1"/>
      <point x="134.167" y="0"/>
      <point x="159.667" y="0" type="curve"/>
      <point x="159.667" y="645" type="line"/>
      <point x="136.333" y="645"/>
      <point x="65" y="646"/>
      <point x="21.6667" y="647" type="curve"/>
      <point x="15.6667" y="641"/>
      <point x="15.6667" y="619.667"/>
      <point x="21.6667" y="613.667" type="curve"/>
      <point x="91.6667" y="610.667"/>
      <point x="108.667" y="604.333"/>
      <point x="108.667" y="525.333" type="curve" smooth="yes"/>
      <point x="108.667" y="120.908" type="line" smooth="yes"/>
      <point x="108.667" y="39"/>
      <point x="91.6667" y="34.3333"/>
      <point x="21.6667" y="31.3333" type="curve"/>
      <point x="15.6667" y="25.3333"/>
      <point x="15.6667" y="4"/>
    </contour>
    <contour>
      <point x="159.667" y="0" type="line"/>
      <point x="198.333" y="0"/>
      <point x="253.333" y="-1"/>
      <point x="296.667" y="-2" type="curve"/>
      <point x="304" y="4"/>
      <point x="304" y="25.3333"/>
      <point x="296.667" y="31.3333" type="curve"/>
      <point x="231.667" y="34.3333"/>
      <point x="211" y="39"/>
      <point x="211" y="122" type="curve" smooth="yes"/>
      <point x="211" y="523" type="line" smooth="yes"/>
      <point x="211" y="606"/>
      <point x="231.667" y="610.667"/>
      <point x="296.667" y="613.667" type="curve"/>
      <point x="304" y="619.667"/>
      <point x="304" y="641"/>
      <point x="296.667" y="647" type="curve"/>
      <point x="252.667" y="646"/>
      <point x="197.667" y="645"/>
      <point x="159.667" y="645" type="curve"/>
    </contour>
    <contour>
      <point x="195" y="313" type="line"/>
      <point x="236.667" y="313"/>
      <point x="265.987" y="299.657"/>
      <point x="288" y="271" type="curve" smooth="yes"/>
      <point x="443" y="73.3333" type="line" smooth="yes"/>
      <point x="462.985" y="47.3219"/>
      <point x="477" y="20"/>
      <point x="479" y="4" type="curve"/>
      <point x="479" y="1"/>
      <point x="480" y="-2"/>
      <point x="484" y="-2" type="curve"/>
      <point x="504" y="-1"/>
      <point x="530.333" y="0"/>
      <point x="554.333" y="0" type="curve" smooth="yes"/>
      <point x="590" y="0"/>
      <point x="626" y="-1"/>
      <point x="661" y="-2" type="curve"/>
      <point x="667" y="4"/>
      <point x="667" y="25.3333"/>
      <point x="661" y="31.3333" type="curve"/>
      <point x="631.667" y="34.6667"/>
      <point x="605.544" y="39.2285"/>
      <point x="576.333" y="73.3333" type="curve" smooth="yes"/>
      <point x="357.333" y="333" type="line" smooth="yes"/>
      <point x="346.351" y="345.681"/>
      <point x="338.667" y="356.667"/>
      <point x="338.667" y="364.667" type="curve" smooth="yes"/>
      <point x="338.667" y="371.667"/>
      <point x="339.607" y="380.397"/>
      <point x="366" y="407" type="curve" smooth="yes"/>
      <point x="500.333" y="540" type="line" smooth="yes"/>
      <point x="551.171" y="589.532"/>
      <point x="596" y="609"/>
      <point x="642.333" y="613.667" type="curve"/>
      <point x="648.333" y="619.667"/>
      <point x="648.333" y="641"/>
      <point x="642.333" y="647" type="curve"/>
      <point x="613.333" y="646"/>
      <point x="580.333" y="645"/>
      <point x="547.333" y="645" type="curve" smooth="yes"/>
      <point x="509.333" y="645"/>
      <point x="468.333" y="646"/>
      <point x="431" y="647" type="curve"/>
      <point x="425" y="641"/>
      <point x="425" y="619.667"/>
      <point x="431" y="613.667" type="curve"/>
      <point x="474.667" y="609.667"/>
      <point x="497.203" y="595.411"/>
      <point x="451.333" y="549.667" type="curve" smooth="yes"/>
      <point x="305.667" y="400.667" type="line"/>
      <point x="265.721" y="362.255"/>
      <point x="234" y="343.667"/>
      <point x="195" y="343.667" type="curve"/>
    </contour>
  </outline>
  <guideline angle="90" x="313" y="0"/>
</glyph>
<glyph name="L" format="2">
  <advance width="544"/>
  <unicode hex="004C"/>
  <anchor x="217" y="740" name="t.uni0302"/>
  <anchor x="285.667" y="-60" name="b.minus-60"/>
  <outline>
    <contour>
      <point x="21.6667" y="-2" type="curve"/>
      <point x="62.6667" y="-1"/>
      <point x="134.167" y="0"/>
      <point x="159.667" y="0" type="curve"/>
      <point x="159.667" y="645" type="line"/>
      <point x="136.333" y="645"/>
      <point x="65" y="646"/>
      <point x="21.6667" y="647" type="curve"/>
      <point x="15.6667" y="641"/>
      <point x="15.6667" y="619.667"/>
      <point x="21.6667" y="613.667" type="curve"/>
      <point x="91.6667" y="610.667"/>
      <point x="108.667" y="604.333"/>
      <point x="108.667" y="525.333" type="curve" smooth="yes"/>
      <point x="108.667" y="120.667" type="line" smooth="yes"/>
      <point x="108.667" y="39"/>
      <point x="91.6667" y="34.3333"/>
      <point x="21.6667" y="31.3333" type="curve"/>
      <point x="15.6667" y="25.3333"/>
      <point x="15.6667" y="4"/>
    </contour>
    <contour>
      <point x="159.667" y="0" type="line"/>
      <point x="376.333" y="0" type="line" smooth="yes"/>
      <point x="404" y="0"/>
      <point x="486.667" y="-2"/>
      <point x="495.667" y="-2" type="curve"/>
      <point x="505.667" y="48"/>
      <point x="515.667" y="113"/>
      <point x="521.667" y="165" type="curve"/>
      <point x="511.667" y="170"/>
      <point x="497.333" y="172"/>
      <point x="485.333" y="170" type="curve"/>
      <point x="465.333" y="98"/>
      <point x="428.333" y="40"/>
      <point x="322.667" y="40" type="curve" smooth="yes"/>
      <point x="260.667" y="40" type="line" smooth="yes"/>
      <point x="227.667" y="40"/>
      <point x="211" y="59"/>
      <point x="211" y="113" type="curve" smooth="yes"/>
      <point x="211" y="523" type="line" smooth="yes"/>
      <point x="211" y="606"/>
      <point x="231.667" y="610.667"/>
      <point x="296.667" y="613.667" type="curve"/>
      <point x="304" y="619.667"/>
      <point x="304" y="641"/>
      <point x="296.667" y="647" type="curve"/>
      <point x="239.333" y="646"/>
      <point x="198.333" y="645"/>
      <point x="159.667" y="645" type="curve"/>
    </contour>
  </outline>
  <guideline angle="90" x="149" y="0"/>
</glyph>
<glyph name="O" format="2">
  <advance width="711"/>
  <unicode hex="004F"/>
  <anchor x="344" y="740" name="t.uni0302"/>
  <anchor x="390" y="10" name="b.ogonek"/>
  <anchor x="346.667" y="-60" name="b.minus-60"/>
  <outline>
    <contour>
      <point x="675.333" y="326.895" type="curve" smooth="yes"/>
      <point x="675.333" y="533.334"/>
      <point x="530.667" y="658"/>
      <point x="353.259" y="658" type="curve" smooth="yes"/>
      <point x="155" y="658"/>
      <point x="37" y="502.334"/>
      <point x="37" y="318.295" type="curve" smooth="yes"/>
      <point x="37" y="112.333"/>
      <point x="184.666" y="-10"/>
      <point x="360.835" y="-10" type="curve" smooth="yes"/>
      <point x="554.333" y="-10"/>
      <point x="675.333" y="137.667"/>
    </contour>
    <contour>
      <point x="344.792" y="620.667" type="curve" smooth="yes"/>
      <point x="461.333" y="620.667"/>
      <point x="561" y="512.214"/>
      <point x="561" y="310.385" type="curve" smooth="yes"/>
      <point x="561" y="134.792"/>
      <point x="484.333" y="28"/>
      <point x="371.155" y="28" type="curve" smooth="yes"/>
      <point x="256.666" y="28"/>
      <point x="151.333" y="137.124"/>
      <point x="151.333" y="328.006" type="curve" smooth="yes"/>
      <point x="151.333" y="536.239"/>
      <point x="242" y="620.667"/>
    </contour>
  </outline>
</glyph>
<glyph name="P" format="2">
  <advance width="567"/>
  <unicode hex="0050"/>
  <anchor x="285" y="740" name="t.uni0302"/>
  <anchor x="284.333" y="-60" name="b.minus-60"/>
  <outline>
    <contour>
      <point x="21.6667" y="-2" type="curve"/>
      <point x="62.6667" y="-1"/>
      <point x="134.167" y="0"/>
      <point x="159.667" y="0" type="curve"/>
      <point x="159.667" y="645" type="line"/>
      <point x="136.333" y="645"/>
      <point x="65" y="646"/>
      <point x="21.6667" y="647" type="curve"/>
      <point x="15.6667" y="641"/>
      <point x="15.6667" y="619.667"/>
      <point x="21.6667" y="613.667" type="curve"/>
      <point x="91.6667" y="610.667"/>
      <point x="108.667" y="604.333"/>
      <point x="108.667" y="525.333" type="curve" smooth="yes"/>
      <point x="108.667" y="120.908" type="line" smooth="yes"/>
      <point x="108.667" y="39"/>
      <point x="91.6667" y="34.3333"/>
      <point x="21.6667" y="31.3333" type="curve"/>
      <point x="15.6667" y="25.3333"/>
      <point x="15.6667" y="4"/>
    </contour>
    <contour>
      <point x="159.667" y="0" type="line"/>
      <point x="196.333" y="0"/>
      <point x="261.333" y="-1"/>
      <point x="308" y="-2" type="curve"/>
      <point x="315.333" y="4"/>
      <point x="315.333" y="25.3333"/>
      <point x="308" y="31.3333" type="curve"/>
      <point x="237.667" y="35"/>
      <point x="212.333" y="39"/>
      <point x="212.333" y="122" type="curve" smooth="yes"/>
      <point x="212.333" y="544" type="line" smooth="yes"/>
      <point x="212.333" y="586"/>
      <point x="224.667" y="616.333"/>
      <point x="290.333" y="616.333" type="curve" smooth="yes" name=".hr01"/>
      <point x="355.667" y="616.333"/>
      <point x="424" y="593"/>
      <point x="424" y="467.667" type="curve" smooth="yes"/>
      <point x="424" y="361"/>
      <point x="379.667" y="317"/>
      <point x="287.667" y="317" type="curve" smooth="yes"/>
      <point x="248" y="317"/>
      <point x="226.333" y="319.333"/>
      <point x="198.333" y="324" type="curve"/>
      <point x="198.333" y="309.667"/>
      <point x="203.667" y="297.667"/>
      <point x="214.333" y="288" type="curve"/>
      <point x="235.667" y="283.333"/>
      <point x="257.333" y="280.333"/>
      <point x="292.667" y="280.333" type="curve" smooth="yes"/>
      <point x="461.333" y="280.333"/>
      <point x="536.333" y="374.667"/>
      <point x="536.333" y="485.333" type="curve" smooth="yes"/>
      <point x="536.333" y="571.667"/>
      <point x="466.667" y="652.667"/>
      <point x="305.667" y="652.667" type="curve" smooth="yes"/>
      <point x="273.333" y="652.667"/>
      <point x="210.667" y="645.667"/>
      <point x="159.667" y="645" type="curve"/>
    </contour>
  </outline>
</glyph>
<glyph name="Q" format="2">
  <advance width="724"/>
  <unicode hex="0051"/>
  <anchor x="311.667" y="740" name="t.uni0302"/>
  <outline>
    <contour>
      <point x="36.667" y="309.667" type="curve" smooth="yes"/>
      <point x="36.667" y="127.667"/>
      <point x="162.333" y="10"/>
      <point x="315" y="-8" type="curve"/>
      <point x="259" y="-36.333"/>
      <point x="179.667" y="-98"/>
      <point x="145.333" y="-153" type="curve"/>
      <point x="184.333" y="-176.333" type="line"/>
      <point x="196" y="-159.667"/>
      <point x="209" y="-144.667"/>
      <point x="221.667" y="-130.667" type="curve"/>
      <point x="236" y="-120.667"/>
      <point x="249.333" y="-117.334"/>
      <point x="257.333" y="-117.334" type="curve" smooth="yes"/>
      <point x="300" y="-117.334"/>
      <point x="336.333" y="-137.333"/>
      <point x="375.334" y="-160" type="curve" smooth="yes"/>
      <point x="422.334" y="-187.334"/>
      <point x="472.334" y="-215.667"/>
      <point x="543.334" y="-215.667" type="curve" smooth="yes"/>
      <point x="606.334" y="-215.667"/>
      <point x="648.333" y="-186.334"/>
      <point x="687.333" y="-130.334" type="curve"/>
      <point x="670.333" y="-115" type="line"/>
      <point x="648.333" y="-142"/>
      <point x="612.334" y="-152"/>
      <point x="583.334" y="-152" type="curve" smooth="yes"/>
      <point x="541.667" y="-152"/>
      <point x="502.38" y="-133.236"/>
      <point x="461" y="-112.667" type="curve" smooth="yes"/>
      <point x="414.713" y="-89.902"/>
      <point x="365.667" y="-66.667"/>
      <point x="307.667" y="-66.667" type="curve" smooth="yes"/>
      <point x="303" y="-66.667"/>
      <point x="297.667" y="-66.667"/>
      <point x="292.667" y="-67.334" type="curve"/>
      <point x="340.333" y="-33.333"/>
      <point x="387" y="-13"/>
      <point x="417.334" y="-4.667" type="curve"/>
      <point x="585.667" y="24.333"/>
      <point x="675" y="165.333"/>
      <point x="675" y="329" type="curve" smooth="yes"/>
      <point x="675" y="533.333"/>
      <point x="530.334" y="658"/>
      <point x="350" y="658" type="curve" smooth="yes"/>
      <point x="154.667" y="658"/>
      <point x="36.667" y="502.333"/>
    </contour>
    <contour>
      <point x="151" y="327.667" type="curve" smooth="yes"/>
      <point x="151" y="535.667"/>
      <point x="241.667" y="620"/>
      <point x="337.333" y="620" type="curve" smooth="yes"/>
      <point x="461" y="620"/>
      <point x="560.667" y="511.667"/>
      <point x="560.667" y="309.333" type="curve" smooth="yes"/>
      <point x="560.667" y="134.667"/>
      <point x="484" y="28"/>
      <point x="374.334" y="28" type="curve" smooth="yes"/>
      <point x="256.333" y="28"/>
      <point x="151" y="137"/>
    </contour>
  </outline>
</glyph>
<glyph name="R" format="2">
  <advance width="632"/>
  <unicode hex="0052"/>
  <anchor x="300.667" y="740" name="t.uni0302"/>
  <anchor x="300" y="-60" name="b.minus-60"/>
  <outline>
    <contour>
      <point x="21.6667" y="-2" type="curve"/>
      <point x="62.6667" y="-1"/>
      <point x="134.167" y="0"/>
      <point x="159.667" y="0" type="curve"/>
      <point x="159.667" y="645" type="line"/>
      <point x="136.333" y="645"/>
      <point x="65" y="646"/>
      <point x="21.6667" y="647" type="curve"/>
      <point x="15.6667" y="641"/>
      <point x="15.6667" y="619.667"/>
      <point x="21.6667" y="613.667" type="curve"/>
      <point x="91.6667" y="610.667"/>
      <point x="108.667" y="604.333"/>
      <point x="108.667" y="525.333" type="curve" smooth="yes"/>
      <point x="108.667" y="120.908" type="line" smooth="yes"/>
      <point x="108.667" y="39"/>
      <point x="91.6667" y="34.3333"/>
      <point x="21.6667" y="31.3333" type="curve"/>
      <point x="15.6667" y="25.3333" name=".hr01"/>
      <point x="15.6667" y="4"/>
    </contour>
    <contour>
      <point x="159.667" y="0" type="line" name=".hr02"/>
      <point x="198.333" y="0"/>
      <point x="255.667" y="-1"/>
      <point x="298.333" y="-2" type="curve"/>
      <point x="305.667" y="4"/>
      <point x="305.667" y="25.3333"/>
      <point x="298.333" y="31.3333" type="curve" name=".hr03"/>
      <point x="233.333" y="34.3333"/>
      <point x="212.667" y="39"/>
      <point x="212.667" y="122" type="curve" smooth="yes"/>
      <point x="212.667" y="288.333" type="line"/>
      <point x="295" y="288.333"/>
      <point x="310.667" y="276"/>
      <point x="324.667" y="253" type="curve" smooth="yes"/>
      <point x="435" y="79" type="line" smooth="yes"/>
      <point x="464.667" y="32.6667"/>
      <point x="507" y="-10"/>
      <point x="567" y="-10" type="curve" smooth="yes"/>
      <point x="590.333" y="-10"/>
      <point x="619" y="-7.66667"/>
      <point x="629" y="-2.66667" type="curve"/>
      <point x="633" y="4.33333" name=".hr04"/>
      <point x="632" y="16.6667"/>
      <point x="628" y="24.6667" type="curve"/>
      <point x="583" y="24.6667" name=".hr05"/>
      <point x="558.667" y="55.3333"/>
      <point x="532" y="98" type="curve" smooth="yes"/>
      <point x="402.667" y="308" type="line"/>
      <point x="449.333" y="324.667"/>
      <point x="535.333" y="376.667"/>
      <point x="535.333" y="480.667" type="curve" smooth="yes"/>
      <point x="535.333" y="618.333"/>
      <point x="418.333" y="652.667"/>
      <point x="303.333" y="652.667" type="curve" smooth="yes"/>
      <point x="264.667" y="652.667"/>
      <point x="210" y="645.667"/>
      <point x="159.667" y="645" type="curve"/>
    </contour>
    <contour>
      <point x="212.667" y="325" type="line"/>
      <point x="212.667" y="544" type="line" smooth="yes"/>
      <point x="212.667" y="586"/>
      <point x="228.333" y="616.333"/>
      <point x="293.333" y="616.333" type="curve" smooth="yes"/>
      <point x="353.333" y="616.333"/>
      <point x="423.667" y="593.667"/>
      <point x="423.667" y="474.333" type="curve" smooth="yes"/>
      <point x="423.667" y="350"/>
      <point x="351.667" y="325"/>
      <point x="259" y="325" type="curve" smooth="yes"/>
    </contour>
  </outline>
  <guideline angle="0" x="0" y="816"/>
  <guideline angle="90" x="273" y="0"/>
</glyph>
<glyph name="S" format="2">
  <advance width="491"/>
  <unicode hex="0053"/>
  <anchor x="236.333" y="740" name="t.uni0302"/>
  <anchor x="234" y="-60" name="b.minus-60"/>
  <anchor x="237.333" y="0" name="b.cedilla"/>
  <outline>
    <contour>
      <point x="46.6667" y="12" type="curve"/>
      <point x="106.668" y="12"/>
      <point x="145.175" y="-10.0207" name=".hr01"/>
      <point x="226.623" y="-10.0207" type="curve" smooth="yes"/>
      <point x="358.264" y="-10.0207"/>
      <point x="450.333" y="69.8025"/>
      <point x="450.333" y="184" type="curve" smooth="yes"/>
      <point x="450.333" y="273.054"/>
      <point x="397.814" y="333.46"/>
      <point x="281.937" y="377.358" type="curve" smooth="yes"/>
      <point x="183.215" y="414.431"/>
      <point x="136.667" y="459.625"/>
      <point x="136.667" y="517" type="curve" smooth="yes"/>
      <point x="136.667" y="574.024"/>
      <point x="183.019" y="621.333"/>
      <point x="238.333" y="621.333" type="curve" smooth="yes"/>
      <point x="295.412" y="621.333"/>
      <point x="353.511" y="581.582"/>
      <point x="380.667" y="488.667" type="curve"/>
      <point x="394.997" y="485.464"/>
      <point x="411.01" y="487.735"/>
      <point x="419.333" y="494.333" type="curve"/>
      <point x="411.401" y="540.701"/>
      <point x="409.509" y="570.689"/>
      <point x="411" y="630.333" type="curve"/>
      <point x="351.333" y="638.333"/>
      <point x="330.397" y="658"/>
      <point x="244.667" y="658" type="curve" smooth="yes"/>
      <point x="131.206" y="658"/>
      <point x="47.6667" y="584.506"/>
      <point x="47.6667" y="485" type="curve" smooth="yes"/>
      <point x="47.6667" y="398.014"/>
      <point x="94.7204" y="338.114"/>
      <point x="218" y="288.333" type="curve" smooth="yes"/>
      <point x="290.721" y="258.527"/>
      <point x="352.333" y="225.853"/>
      <point x="352.333" y="137.667" type="curve" smooth="yes"/>
      <point x="352.333" y="67.2635"/>
      <point x="307.841" y="28"/>
      <point x="234.333" y="28" type="curve" smooth="yes"/>
      <point x="146.837" y="28"/>
      <point x="86.29" y="78.2048"/>
      <point x="65.6667" y="171.333" type="curve" name=".hr02"/>
      <point x="52.7991" y="175.028"/>
      <point x="38.4034" y="173.958"/>
      <point x="27" y="168.333" type="curve"/>
      <point x="38.4913" y="102.312"/>
      <point x="43.6317" y="60.6437"/>
    </contour>
  </outline>
  <guideline angle="90" x="232" y="0"/>
</glyph>
<glyph name="T" format="2">
  <advance width="615"/>
  <unicode hex="0054"/>
  <anchor x="323.333" y="740" name="t.uni0302"/>
  <anchor x="322.667" y="-60" name="b.minus-60"/>
  <anchor x="316" y="0" name="b.cedilla"/>
  <outline>
    <contour>
      <point x="368.333" y="122.333" type="curve" smooth="yes"/>
      <point x="368.333" y="503.666" type="line" smooth="yes"/>
      <point x="368.333" y="567.666"/>
      <point x="378.333" y="605.333"/>
      <point x="414.333" y="605.333" type="curve" smooth="yes"/>
      <point x="436.333" y="605.333" type="line" smooth="yes"/>
      <point x="511.333" y="605.333"/>
      <point x="556.666" y="579.666"/>
      <point x="573.666" y="502.666" type="curve"/>
      <point x="584.666" y="502.666"/>
      <point x="600.333" y="503.666"/>
      <point x="609.333" y="507.666" type="curve"/>
      <point x="602.333" y="553.666"/>
      <point x="597.333" y="605"/>
      <point x="596.333" y="650" type="curve"/>
      <point x="596.333" y="651"/>
      <point x="594.333" y="653"/>
      <point x="593.333" y="653" type="curve"/>
      <point x="559.333" y="650"/>
      <point x="448.333" y="645"/>
      <point x="369.333" y="645" type="curve" smooth="yes"/>
      <point x="265" y="645" type="line" smooth="yes"/>
      <point x="188" y="645"/>
      <point x="70" y="650"/>
      <point x="32" y="653" type="curve"/>
      <point x="30" y="653"/>
      <point x="28" y="651"/>
      <point x="28" y="650" type="curve"/>
      <point x="24" y="605"/>
      <point x="14" y="552.666"/>
      <point x="3" y="504.666" type="curve"/>
      <point x="13" y="500.666"/>
      <point x="26.667" y="499.666"/>
      <point x="38.667" y="499.666" type="curve"/>
      <point x="58.667" y="579.666"/>
      <point x="103" y="605.333"/>
      <point x="169" y="605.333" type="curve" smooth="yes"/>
      <point x="218" y="605.333" type="line" smooth="yes"/>
      <point x="255" y="605.333"/>
      <point x="265" y="567.666"/>
      <point x="265" y="506.666" type="curve" smooth="yes"/>
      <point x="265" y="122.333" type="line" smooth="yes"/>
      <point x="265" y="39.333"/>
      <point x="248" y="34.333"/>
      <point x="168" y="31.333" type="curve"/>
      <point x="165" y="28.333"/>
      <point x="164" y="22"/>
      <point x="164" y="15" type="curve" smooth="yes"/>
      <point x="164" y="8"/>
      <point x="165" y="1"/>
      <point x="168" y="-2" type="curve"/>
      <point x="217" y="-1"/>
      <point x="268.333" y="0"/>
      <point x="316.333" y="0" type="curve" smooth="yes"/>
      <point x="363.666" y="0"/>
      <point x="415.333" y="-1"/>
      <point x="465.333" y="-2" type="curve"/>
      <point x="468.333" y="1"/>
      <point x="470.333" y="8"/>
      <point x="470.333" y="15" type="curve" smooth="yes"/>
      <point x="470.333" y="22"/>
      <point x="468.333" y="28.333"/>
      <point x="465.333" y="31.333" type="curve"/>
      <point x="385.333" y="34.333"/>
      <point x="368.333" y="39.333"/>
    </contour>
  </outline>
</glyph>
<glyph name="U" format="2">
  <advance width="685"/>
  <unicode hex="0055"/>
  <anchor x="355.333" y="730.667" name="t.uni0302"/>
  <anchor x="400.667" y="10" name="b.ogonek"/>
  <anchor x="354" y="-60" name="b.minus-60"/>
  <outline>
    <contour>
      <point x="190.333" y="522.667" type="line" smooth="yes"/>
      <point x="190.333" y="605.667"/>
      <point x="205.333" y="610.667"/>
      <point x="282.333" y="613.667" type="curve"/>
      <point x="288.333" y="619.667"/>
      <point x="288.333" y="641"/>
      <point x="282.333" y="647" type="curve"/>
      <point x="234.666" y="646"/>
      <point x="180" y="645"/>
      <point x="138" y="645" type="curve" smooth="yes"/>
      <point x="97" y="645"/>
      <point x="52.667" y="646"/>
      <point x="10" y="647" type="curve"/>
      <point x="4" y="641"/>
      <point x="4" y="619.667"/>
      <point x="10" y="613.667" type="curve"/>
      <point x="70" y="610.667"/>
      <point x="87" y="605.667"/>
      <point x="87" y="522.667" type="curve" smooth="yes"/>
      <point x="87" y="234" type="line" smooth="yes"/>
      <point x="87" y="32"/>
      <point x="212.666" y="-10"/>
      <point x="339.333" y="-10" type="curve" smooth="yes"/>
      <point x="544.333" y="-10"/>
      <point x="598.666" y="117"/>
      <point x="598.666" y="295" type="curve" smooth="yes"/>
      <point x="598.666" y="522.667" type="line" smooth="yes"/>
      <point x="598.666" y="603.667"/>
      <point x="615.999" y="607"/>
      <point x="675.666" y="613.667" type="curve"/>
      <point x="681.666" y="619.667"/>
      <point x="681.666" y="641"/>
      <point x="675.666" y="647" type="curve"/>
      <point x="637.333" y="646"/>
      <point x="596.666" y="645"/>
      <point x="571.999" y="645" type="curve" smooth="yes"/>
      <point x="548.333" y="645"/>
      <point x="498.333" y="646"/>
      <point x="452.333" y="647" type="curve"/>
      <point x="446.333" y="641"/>
      <point x="446.333" y="619.667"/>
      <point x="452.333" y="613.667" type="curve"/>
      <point x="527.666" y="607"/>
      <point x="544.333" y="604.334"/>
      <point x="544.333" y="522.667" type="curve" smooth="yes"/>
      <point x="544.333" y="277" type="line" smooth="yes"/>
      <point x="544.333" y="165"/>
      <point x="529.333" y="31.333"/>
      <point x="360.333" y="31.333" type="curve" smooth="yes"/>
      <point x="219.333" y="31.333"/>
      <point x="190.333" y="150"/>
      <point x="190.333" y="267" type="curve" smooth="yes"/>
    </contour>
  </outline>
</glyph>
<glyph name="V" format="2">
  <advance width="670"/>
  <unicode hex="0056"/>
  <anchor x="341" y="740" name="t.uni0302"/>
  <anchor x="348.333" y="-60" name="b.minus-60"/>
  <outline>
    <contour>
      <point x="301.667" y="11" type="line" smooth="yes"/>
      <point x="308" y="-5.333"/>
      <point x="316.667" y="-12"/>
      <point x="328" y="-12" type="curve" smooth="yes"/>
      <point x="340" y="-12"/>
      <point x="349" y="-4.333"/>
      <point x="355.334" y="11" type="curve" smooth="yes"/>
      <point x="564.334" y="528.334" type="line" smooth="yes"/>
      <point x="585" y="579.667"/>
      <point x="606.334" y="608"/>
      <point x="663" y="613.667" type="curve"/>
      <point x="669" y="619.667"/>
      <point x="669" y="641"/>
      <point x="663" y="647" type="curve"/>
      <point x="633" y="646"/>
      <point x="599" y="645"/>
      <point x="573" y="645" type="curve" smooth="yes"/>
      <point x="544" y="645"/>
      <point x="495.667" y="646"/>
      <point x="456" y="647" type="curve"/>
      <point x="450" y="641"/>
      <point x="450" y="619.667"/>
      <point x="456" y="613.667" type="curve"/>
      <point x="518" y="609.334"/>
      <point x="533.334" y="589.334"/>
      <point x="514.334" y="540.667" type="curve" smooth="yes"/>
      <point x="358" y="142.667" type="line"/>
      <point x="354.334" y="142.667" type="line"/>
      <point x="201.667" y="547" type="line" smooth="yes"/>
      <point x="182.667" y="598"/>
      <point x="199" y="608"/>
      <point x="260.334" y="613.667" type="curve"/>
      <point x="266.334" y="619.667"/>
      <point x="266.334" y="641"/>
      <point x="260.334" y="647" type="curve"/>
      <point x="221.334" y="646"/>
      <point x="158" y="645"/>
      <point x="121" y="645" type="curve" smooth="yes"/>
      <point x="83.3337" y="645"/>
      <point x="41.3337" y="646"/>
      <point x="6.99967" y="647" type="curve"/>
      <point x="0.999667" y="641"/>
      <point x="1.66667" y="619.667"/>
      <point x="7.66667" y="613.667" type="curve"/>
      <point x="57.3337" y="609"/>
      <point x="73.6667" y="596"/>
      <point x="97.6667" y="535" type="curve" smooth="yes"/>
    </contour>
  </outline>
</glyph>
<glyph name="W" format="2">
  <advance width="973"/>
  <unicode hex="0057"/>
  <anchor x="483" y="740" name="t.uni0302"/>
  <anchor x="404.333" y="-60" name="b.minus-60"/>
  <outline>
    <contour>
      <point x="624.334" y="13.667" type="line" smooth="yes"/>
      <point x="630.667" y="-4"/>
      <point x="637.667" y="-12"/>
      <point x="650.667" y="-12" type="curve" smooth="yes"/>
      <point x="662.334" y="-12"/>
      <point x="671.667" y="-3"/>
      <point x="677.334" y="13" type="curve" smooth="yes"/>
      <point x="874" y="543" type="line" smooth="yes"/>
      <point x="889.667" y="586"/>
      <point x="915" y="610.667"/>
      <point x="966.334" y="613.667" type="curve"/>
      <point x="972.334" y="619.667"/>
      <point x="972.334" y="641"/>
      <point x="966.334" y="647" type="curve"/>
      <point x="936" y="646"/>
      <point x="903.334" y="645"/>
      <point x="874.334" y="645" type="curve" smooth="yes"/>
      <point x="843.334" y="645"/>
      <point x="798.334" y="646"/>
      <point x="759.334" y="647" type="curve"/>
      <point x="753.334" y="641"/>
      <point x="753.334" y="619.667"/>
      <point x="759.334" y="613.667" type="curve"/>
      <point x="805.667" y="608.667"/>
      <point x="838.667" y="599.667"/>
      <point x="824.667" y="558.667" type="curve" smooth="yes"/>
      <point x="679" y="145.334" type="line"/>
      <point x="675" y="146.334" type="line"/>
      <point x="538" y="560.334" type="line" smooth="yes"/>
      <point x="523" y="607.334"/>
      <point x="558.667" y="610.667"/>
      <point x="597.334" y="613.667" type="curve"/>
      <point x="603.334" y="619.667"/>
      <point x="603.334" y="641"/>
      <point x="597.334" y="647" type="curve"/>
      <point x="557.667" y="646"/>
      <point x="495" y="645"/>
      <point x="455.334" y="645" type="curve" smooth="yes"/>
      <point x="419.667" y="645"/>
      <point x="377.667" y="646"/>
      <point x="344" y="647" type="curve"/>
      <point x="338" y="641"/>
      <point x="338" y="619.667"/>
      <point x="344" y="613.667" type="curve"/>
      <point x="392.334" y="610.334"/>
      <point x="418.334" y="587"/>
      <point x="430" y="555.667" type="curve" smooth="yes"/>
    </contour>
    <contour>
      <point x="272.334" y="13.667" type="line" smooth="yes"/>
      <point x="278" y="-4"/>
      <point x="287" y="-12"/>
      <point x="298" y="-12" type="curve" smooth="yes"/>
      <point x="310" y="-12"/>
      <point x="319.334" y="-4.666"/>
      <point x="326.667" y="13.667" type="curve" smooth="yes"/>
      <point x="497.667" y="418.667" type="line"/>
      <point x="472.334" y="489.667" type="line"/>
      <point x="332" y="147.334" type="line"/>
      <point x="327.667" y="148.334" type="line"/>
      <point x="191.667" y="572.334" type="line" smooth="yes"/>
      <point x="180.334" y="606.667"/>
      <point x="210.334" y="611.334"/>
      <point x="249.667" y="613.667" type="curve"/>
      <point x="255.667" y="619.667"/>
      <point x="255.667" y="641"/>
      <point x="249.667" y="647" type="curve"/>
      <point x="215.334" y="646"/>
      <point x="152.667" y="645"/>
      <point x="113.667" y="645" type="curve" smooth="yes"/>
      <point x="76.6667" y="645"/>
      <point x="38.6667" y="646"/>
      <point x="6.99967" y="647" type="curve"/>
      <point x="0.999667" y="641"/>
      <point x="0.999667" y="619.667"/>
      <point x="6.99967" y="613.667" type="curve"/>
      <point x="49.9997" y="610.334"/>
      <point x="66.6667" y="607.334"/>
      <point x="84.3337" y="557" type="curve" smooth="yes"/>
    </contour>
  </outline>
</glyph>
<glyph name="X" format="2">
  <advance width="679"/>
  <unicode hex="0058"/>
  <anchor x="336.667" y="740" name="t.uni0302"/>
  <anchor x="352.667" y="-60" name="b.minus-60"/>
  <outline>
    <contour>
      <point x="419.333" y="-1.667" type="curve"/>
      <point x="457.333" y="-0.667"/>
      <point x="507.333" y="0.333"/>
      <point x="547.333" y="0.333" type="curve" smooth="yes"/>
      <point x="586.333" y="0.333"/>
      <point x="632.667" y="-0.667"/>
      <point x="662.667" y="-1.667" type="curve"/>
      <point x="668.667" y="4.333"/>
      <point x="667.667" y="25.666"/>
      <point x="661.667" y="31.666" type="curve"/>
      <point x="619.667" y="34.666"/>
      <point x="599.667" y="44.333"/>
      <point x="559.333" y="100.999" type="curve" smooth="yes"/>
      <point x="363.667" y="369.333" type="line"/>
      <point x="240.333" y="559" type="line"/>
      <point x="213.667" y="598"/>
      <point x="211.333" y="610.667"/>
      <point x="267.333" y="613.667" type="curve"/>
      <point x="273.333" y="619.667"/>
      <point x="273.333" y="641"/>
      <point x="267.333" y="647" type="curve"/>
      <point x="229.333" y="646"/>
      <point x="182.333" y="645"/>
      <point x="142.333" y="645" type="curve" smooth="yes"/>
      <point x="103.333" y="645"/>
      <point x="52.667" y="646"/>
      <point x="22.667" y="647" type="curve"/>
      <point x="16.667" y="641"/>
      <point x="17.667" y="619.667"/>
      <point x="23.667" y="613.667" type="curve"/>
      <point x="65.667" y="610.667"/>
      <point x="84.667" y="604"/>
      <point x="124.667" y="547" type="curve"/>
      <point x="303" y="300.333" type="line"/>
      <point x="443.333" y="86.333" type="line"/>
      <point x="470.333" y="47.999"/>
      <point x="475.333" y="34.666"/>
      <point x="419.333" y="31.666" type="curve"/>
      <point x="413.333" y="25.666"/>
      <point x="413.333" y="4.333"/>
    </contour>
    <contour>
      <point x="8" y="-1.667" type="curve"/>
      <point x="38" y="-0.667"/>
      <point x="82" y="0.333"/>
      <point x="105" y="0.333" type="curve" smooth="yes"/>
      <point x="128" y="0.333"/>
      <point x="175.667" y="-0.667"/>
      <point x="215.667" y="-1.667" type="curve"/>
      <point x="221.667" y="4.333"/>
      <point x="221.667" y="25.666"/>
      <point x="215.667" y="31.666" type="curve"/>
      <point x="171.667" y="34.666"/>
      <point x="152.667" y="43.999"/>
      <point x="175" y="75.999" type="curve" smooth="yes"/>
      <point x="330" y="299.666" type="line"/>
      <point x="302.333" y="332.333" type="line"/>
      <point x="118" y="88.999" type="line" smooth="yes"/>
      <point x="86" y="46.333"/>
      <point x="53" y="35.666"/>
      <point x="8" y="31.666" type="curve"/>
      <point x="2" y="25.666"/>
      <point x="2" y="4.333"/>
    </contour>
    <contour>
      <point x="339" y="362" type="line"/>
      <point x="363.333" y="331.667" type="line"/>
      <point x="536.667" y="556.334" type="line" smooth="yes"/>
      <point x="569.333" y="598.334"/>
      <point x="600" y="609.667"/>
      <point x="645" y="613.667" type="curve"/>
      <point x="651" y="619.667"/>
      <point x="651" y="641"/>
      <point x="645" y="647" type="curve"/>
      <point x="615" y="646"/>
      <point x="574" y="645"/>
      <point x="551" y="645" type="curve" smooth="yes"/>
      <point x="528" y="645"/>
      <point x="482.333" y="646"/>
      <point x="442.333" y="647" type="curve"/>
      <point x="436.333" y="641"/>
      <point x="436.333" y="619.667"/>
      <point x="442.333" y="613.667" type="curve"/>
      <point x="486.333" y="610.667"/>
      <point x="504" y="601.334"/>
      <point x="483" y="569.334" type="curve"/>
    </contour>
  </outline>
</glyph>
<glyph name="Y" format="2">
  <advance width="591"/>
  <unicode hex="0059"/>
  <anchor x="320" y="740" name="t.uni0302"/>
  <anchor x="352.667" y="-60" name="b.minus-60"/>
  <outline>
    <contour>
      <point x="353.666" y="122" type="curve" smooth="yes"/>
      <point x="353.666" y="261.333" type="line" smooth="yes"/>
      <point x="353.666" y="294.667"/>
      <point x="355.666" y="312.333"/>
      <point x="371.333" y="339.667" type="curve" smooth="yes"/>
      <point x="493.333" y="555" type="line" smooth="yes"/>
      <point x="519.666" y="601.667"/>
      <point x="540.666" y="609.667"/>
      <point x="585.666" y="613.667" type="curve"/>
      <point x="591.666" y="619.667"/>
      <point x="591.666" y="641"/>
      <point x="585.666" y="647" type="curve"/>
      <point x="556.999" y="646"/>
      <point x="522.333" y="645"/>
      <point x="499.333" y="645" type="curve" smooth="yes"/>
      <point x="476.333" y="645"/>
      <point x="436.333" y="646"/>
      <point x="401.666" y="647" type="curve"/>
      <point x="395.666" y="641"/>
      <point x="395.666" y="619.667"/>
      <point x="401.666" y="613.667" type="curve"/>
      <point x="445.666" y="610.667"/>
      <point x="463.999" y="598.667"/>
      <point x="444.666" y="562" type="curve" smooth="yes"/>
      <point x="336.333" y="358" type="line" smooth="yes"/>
      <point x="328.666" y="343.667"/>
      <point x="322.999" y="344.333"/>
      <point x="313.999" y="360.333" type="curve" smooth="yes"/>
      <point x="202" y="558.334" type="line" smooth="yes"/>
      <point x="179" y="599"/>
      <point x="181.666" y="610.667"/>
      <point x="237.666" y="613.667" type="curve"/>
      <point x="243.666" y="619.667"/>
      <point x="243.666" y="641"/>
      <point x="237.666" y="647" type="curve"/>
      <point x="200.333" y="646"/>
      <point x="160.333" y="645"/>
      <point x="120.333" y="645" type="curve" smooth="yes"/>
      <point x="81.333" y="645"/>
      <point x="35" y="646"/>
      <point x="5" y="647" type="curve"/>
      <point x="-1" y="641"/>
      <point x="0" y="619.667"/>
      <point x="6" y="613.667" type="curve"/>
      <point x="48" y="610.667"/>
      <point x="65.666" y="604.334"/>
      <point x="100" y="547" type="curve" smooth="yes"/>
      <point x="229.666" y="328" type="line" smooth="yes"/>
      <point x="247.666" y="299"/>
      <point x="250.333" y="289.333"/>
      <point x="250.333" y="252.333" type="curve" smooth="yes"/>
      <point x="250.333" y="122" type="line" smooth="yes"/>
      <point x="250.333" y="39"/>
      <point x="233.333" y="34.333"/>
      <point x="153.333" y="31.333" type="curve"/>
      <point x="147.333" y="25.333"/>
      <point x="147.333" y="4"/>
      <point x="153.333" y="-2" type="curve"/>
      <point x="202.333" y="-1"/>
      <point x="256.333" y="0"/>
      <point x="304.999" y="0" type="curve" smooth="yes"/>
      <point x="349.333" y="0"/>
      <point x="400.666" y="-1"/>
      <point x="450.666" y="-2" type="curve"/>
      <point x="456.666" y="4"/>
      <point x="456.666" y="25.333"/>
      <point x="450.666" y="31.333" type="curve"/>
      <point x="370.666" y="34.333"/>
      <point x="353.666" y="39"/>
    </contour>
  </outline>
</glyph>
<glyph name="Z" format="2">
  <advance width="611"/>
  <unicode hex="005A"/>
  <anchor x="323.333" y="740" name="t.uni0302"/>
  <anchor x="284" y="-60" name="b.minus-60"/>
  <outline>
    <contour>
      <point x="34" y="15" type="curve" smooth="yes"/>
      <point x="34" y="5"/>
      <point x="39" y="0"/>
      <point x="53" y="0" type="curve" smooth="yes"/>
      <point x="395.333" y="0" type="line" smooth="yes"/>
      <point x="439" y="0"/>
      <point x="538.333" y="-3"/>
      <point x="557" y="-4.667" type="curve"/>
      <point x="557.667" y="-4.667"/>
      <point x="559.667" y="-2.667"/>
      <point x="559.667" y="-2.333" type="curve"/>
      <point x="563.333" y="47.667"/>
      <point x="573.333" y="111.667"/>
      <point x="586" y="167.333" type="curve"/>
      <point x="578" y="170"/>
      <point x="565" y="172.333"/>
      <point x="552.333" y="172.333" type="curve"/>
      <point x="525" y="98.333"/>
      <point x="492.333" y="44"/>
      <point x="397.667" y="42.667" type="curve" smooth="yes"/>
      <point x="202.333" y="40" type="line"/>
      <point x="185" y="40"/>
      <point x="177.333" y="44.333"/>
      <point x="177.333" y="52.333" type="curve" smooth="yes"/>
      <point x="177.333" y="57.333"/>
      <point x="180.667" y="63.333"/>
      <point x="185.667" y="72" type="curve"/>
      <point x="553.667" y="591" type="line" smooth="yes"/>
      <point x="573.667" y="619.333"/>
      <point x="577" y="625.333"/>
      <point x="577" y="636.333" type="curve" smooth="yes"/>
      <point x="577" y="643"/>
      <point x="572.667" y="647"/>
      <point x="562.667" y="647" type="curve" smooth="yes"/>
      <point x="550.333" y="647"/>
      <point x="521.667" y="645"/>
      <point x="492" y="645" type="curve" smooth="yes"/>
      <point x="277.667" y="645" type="line" smooth="yes"/>
      <point x="220.667" y="645"/>
      <point x="118" y="650"/>
      <point x="81.333" y="653.667" type="curve"/>
      <point x="80.667" y="653.667"/>
      <point x="77.333" y="651.667"/>
      <point x="77.333" y="650.667" type="curve"/>
      <point x="74" y="600.333"/>
      <point x="63.667" y="537.667"/>
      <point x="54.667" y="494.333" type="curve"/>
      <point x="64.667" y="491"/>
      <point x="76.333" y="489.333"/>
      <point x="87.667" y="489.333" type="curve"/>
      <point x="108.333" y="562"/>
      <point x="147.671" y="601.052"/>
      <point x="219.667" y="602" type="curve" smooth="yes"/>
      <point x="424" y="604.667" type="line"/>
      <point x="430.667" y="604.667"/>
      <point x="434.333" y="602"/>
      <point x="434.333" y="596.667" type="curve" smooth="yes"/>
      <point x="434.333" y="592.333"/>
      <point x="430.667" y="585.667"/>
      <point x="426" y="579" type="curve" smooth="yes"/>
      <point x="42" y="38" type="line"/>
      <point x="36" y="30"/>
      <point x="34" y="22"/>
    </contour>
  </outline>
</glyph>
<glyph name="underscore" format="2">
  <advance width="486"/>
  <unicode hex="005F"/>
  <outline>
    <contour>
      <point x="181.667" y="-149.667" type="line"/>
      <point x="181.667" y="-107.667" type="line"/>
      <point x="24" y="-107.667" type="line" smooth="yes"/>
      <point x="15" y="-107.667"/>
      <point x="3" y="-121"/>
      <point x="3" y="-134.667" type="curve" smooth="yes"/>
      <point x="3" y="-141.334"/>
      <point x="6" y="-149.667"/>
      <point x="13.667" y="-149.667" type="curve" smooth="yes"/>
    </contour>
    <contour>
      <point x="351.333" y="-107.667" type="line"/>
      <point x="158.333" y="-107.667" type="line"/>
      <point x="158.333" y="-149.667" type="line"/>
      <point x="351.333" y="-149.667" type="line"/>
    </contour>
    <contour>
      <point x="327.666" y="-149.667" type="line"/>
      <point x="461.333" y="-149.667" type="line" smooth="yes"/>
      <point x="473" y="-149.667"/>
      <point x="483.666" y="-135.667"/>
      <point x="483.666" y="-122.667" type="curve" smooth="yes"/>
      <point x="483.666" y="-116.334"/>
      <point x="480.666" y="-107.667"/>
      <point x="472.333" y="-107.667" type="curve" smooth="yes"/>
      <point x="327.666" y="-107.667" type="line"/>
    </contour>
  </outline>
</glyph>
<glyph name="grave" format="2">
  <advance width="392"/>
  <unicode hex="0060"/>
  <anchor x="175" y="500" name="_t.uni0302"/>
  <anchor x="209.333" y="500" name="_top"/>
  <outline>
    <contour>
      <point x="184.667" y="662.667" type="line"/>
      <point x="180.667" y="663.667"/>
      <point x="173" y="664.667"/>
      <point x="168" y="664.667" type="curve" smooth="yes"/>
      <point x="133.333" y="664.667"/>
      <point x="108.333" y="645.667"/>
      <point x="100.333" y="638.667" type="curve"/>
      <point x="98.333" y="627.667" type="line"/>
      <point x="214.667" y="520" type="line" smooth="yes"/>
      <point x="231" y="505"/>
      <point x="239" y="500"/>
      <point x="245.667" y="500" type="curve" smooth="yes"/>
      <point x="254" y="500"/>
      <point x="261.333" y="506.333"/>
      <point x="261.333" y="512.667" type="curve" smooth="yes"/>
      <point x="261.333" y="520"/>
      <point x="259" y="528.333"/>
      <point x="254.333" y="537.333" type="curve"/>
    </contour>
  </outline>
</glyph>
<glyph name="a" format="2">
  <advance width="473"/>
  <unicode hex="0061"/>
  <anchor x="217" y="500" name="t.uni0302"/>
  <anchor x="217.952" y="500" name="t.ring"/>
  <anchor x="433" y="10" name="b.ogonek"/>
  <anchor x="228.667" y="-60" name="b.minus-60"/>
  <outline>
    <contour>
      <point x="292.333" y="48.3333" type="line"/>
      <point x="298.667" y="14"/>
      <point x="316.333" y="-10"/>
      <point x="364.333" y="-10" type="curve" smooth="yes"/>
      <point x="408" y="-10"/>
      <point x="445" y="8.33333"/>
      <point x="471.333" y="33.3333" type="curve"/>
      <point x="469.333" y="45.3333" name=".hr01"/>
      <point x="465.333" y="54"/>
      <point x="454" y="60.6667" type="curve"/>
      <point x="445" y="53.3333"/>
      <point x="430.333" y="45.3333"/>
      <point x="414.588" y="45.3333" type="curve" smooth="yes"/>
      <point x="388.667" y="45.3333"/>
      <point x="386.333" y="77.3333"/>
      <point x="386.333" y="124.333" type="curve" smooth="yes"/>
      <point x="386.333" y="270.333" type="line" smooth="yes"/>
      <point x="386.333" y="391.442"/>
      <point x="323.006" y="440.667"/>
      <point x="232.848" y="440.667" type="curve" smooth="yes"/>
      <point x="148.667" y="440.667"/>
      <point x="56" y="390.667"/>
      <point x="56" y="329.543" type="curve" smooth="yes"/>
      <point x="56" y="305.333"/>
      <point x="68" y="290"/>
      <point x="96.3333" y="290" type="curve" smooth="yes"/>
      <point x="127.667" y="290"/>
      <point x="149" y="311.333"/>
      <point x="149" y="332.222" type="curve" smooth="yes"/>
      <point x="149" y="342.544"/>
      <point x="145.667" y="352.407"/>
      <point x="145.667" y="366.703" type="curve" smooth="yes"/>
      <point x="145.667" y="391.402"/>
      <point x="161.292" y="404.667"/>
      <point x="204.043" y="404.667" type="curve" smooth="yes"/>
      <point x="260.874" y="404.667"/>
      <point x="290.667" y="370.911"/>
      <point x="290.667" y="262.333" type="curve" smooth="yes"/>
      <point x="290.667" y="81.3333" type="line"/>
      <point x="257" y="53.3333"/>
      <point x="226.667" y="37.3333" name=".hr02"/>
      <point x="200" y="37.3333" type="curve" smooth="yes"/>
      <point x="156" y="37.3333"/>
      <point x="132.667" y="72.6667"/>
      <point x="132.667" y="109.579" type="curve" smooth="yes"/>
      <point x="132.667" y="150"/>
      <point x="154.408" y="189.688"/>
      <point x="220.667" y="208.333" type="curve" smooth="yes"/>
      <point x="305.124" y="232.123" type="line"/>
      <point x="305.124" y="266.154" type="line"/>
      <point x="207" y="240.667" type="line" smooth="yes"/>
      <point x="97.4732" y="211.093"/>
      <point x="37.3333" y="163.667"/>
      <point x="37.3333" y="97" type="curve" smooth="yes"/>
      <point x="37.3333" y="20"/>
      <point x="88.6667" y="-10"/>
      <point x="157.795" y="-10" type="curve" smooth="yes"/>
      <point x="193.667" y="-10"/>
      <point x="227.386" y="0.175573"/>
      <point x="265.667" y="30.3333" type="curve" smooth="yes"/>
      <point x="289" y="48.3333" type="line"/>
    </contour>
  </outline>
</glyph>
<glyph name="b" format="2">
  <advance width="509"/>
  <unicode hex="0062"/>
  <anchor x="256.333" y="740" name="t.uni0302"/>
  <anchor x="237.333" y="-60" name="b.minus-60"/>
  <outline>
    <contour>
      <point x="71.333" y="-2" type="curve"/>
      <point x="78.667" y="-8.667"/>
      <point x="85.667" y="-12.333"/>
      <point x="97.333" y="-12.333" type="curve"/>
      <point x="111.667" y="-0.667"/>
      <point x="123.667" y="12.667"/>
      <point x="134" y="28" type="curve"/>
      <point x="167" y="-2"/>
      <point x="206.667" y="-10"/>
      <point x="250" y="-10" type="curve" smooth="yes"/>
      <point x="355" y="-10"/>
      <point x="473.333" y="88.667"/>
      <point x="473.333" y="236.53" type="curve" smooth="yes"/>
      <point x="473.333" y="353.802"/>
      <point x="398.488" y="440.667"/>
      <point x="291.667" y="440.667" type="curve" smooth="yes"/>
      <point x="246.912" y="440.667"/>
      <point x="208.279" y="416.816"/>
      <point x="157.667" y="374.667" type="curve"/>
      <point x="157.667" y="335.334" type="line"/>
      <point x="206.838" y="378.917"/>
      <point x="229.961" y="387.667"/>
      <point x="266.667" y="387.667" type="curve" smooth="yes"/>
      <point x="323.666" y="387.667"/>
      <point x="369.333" y="323.334"/>
      <point x="369.333" y="226" type="curve" smooth="yes"/>
      <point x="369.333" y="122.667"/>
      <point x="334" y="26.667"/>
      <point x="244.333" y="26.667" type="curve" smooth="yes"/>
      <point x="214" y="26.667"/>
      <point x="192.334" y="45.334"/>
      <point x="172.667" y="69.667" type="curve"/>
      <point x="172.667" y="583" type="line" smooth="yes"/>
      <point x="172.667" y="648"/>
      <point x="176.334" y="683.001"/>
      <point x="176.334" y="687.001" type="curve" smooth="yes"/>
      <point x="176.334" y="694.667"/>
      <point x="171.334" y="698.001"/>
      <point x="162.334" y="698.001" type="curve"/>
      <point x="133.334" y="687.334"/>
      <point x="56" y="674.334"/>
      <point x="5.667" y="671.334" type="curve"/>
      <point x="3.333" y="662.001"/>
      <point x="5" y="647.667"/>
      <point x="10.667" y="640.667" type="curve"/>
      <point x="65" y="637.667"/>
      <point x="76" y="632"/>
      <point x="76" y="591.667" type="curve" smooth="yes"/>
      <point x="76" y="89.667" type="line" smooth="yes"/>
      <point x="76" y="36"/>
      <point x="74.667" y="20"/>
    </contour>
  </outline>
</glyph>
<glyph name="c" format="2">
  <advance width="437"/>
  <unicode hex="0063"/>
  <anchor x="239" y="500" name="t.uni0302"/>
  <anchor x="244.333" y="-60" name="b.minus-60"/>
  <anchor x="247.667" y="0" name="b.cedilla"/>
  <outline>
    <contour>
      <point x="406" y="89.667" type="curve"/>
      <point x="403.333" y="99.667"/>
      <point x="397.333" y="108.667"/>
      <point x="387.666" y="109.334" type="curve"/>
      <point x="351.666" y="67.667"/>
      <point x="311.666" y="46.667"/>
      <point x="273.333" y="46.667" type="curve" smooth="yes"/>
      <point x="199.666" y="46.667"/>
      <point x="139.333" y="114"/>
      <point x="139.333" y="232" type="curve" smooth="yes"/>
      <point x="139.333" y="342.334"/>
      <point x="179.666" y="404.667"/>
      <point x="241.333" y="404.667" type="curve" smooth="yes"/>
      <point x="293" y="404.667"/>
      <point x="303.333" y="368.334"/>
      <point x="307" y="334.334" type="curve" smooth="yes"/>
      <point x="310" y="307.334"/>
      <point x="328.333" y="294.667"/>
      <point x="353" y="294.667" type="curve" smooth="yes"/>
      <point x="377.666" y="294.667"/>
      <point x="404" y="311.667"/>
      <point x="404" y="342.667" type="curve" smooth="yes"/>
      <point x="404" y="394.334"/>
      <point x="348" y="440.667"/>
      <point x="247.666" y="440.667" type="curve" smooth="yes"/>
      <point x="142.333" y="440.667"/>
      <point x="37" y="349.667"/>
      <point x="37" y="205.667" type="curve" smooth="yes"/>
      <point x="37" y="74"/>
      <point x="113.666" y="-10"/>
      <point x="241.666" y="-10" type="curve" smooth="yes"/>
      <point x="301.666" y="-10"/>
      <point x="360" y="16.667"/>
    </contour>
  </outline>
</glyph>
<glyph name="d" format="2">
  <advance width="524"/>
  <unicode hex="0064"/>
  <anchor x="270.333" y="740" name="t.uni0302"/>
  <anchor x="255.667" y="-60" name="b.minus-60"/>
  <anchor x="505" y="656" name="apostrophe"/>
  <outline>
    <contour>
      <point x="359.667" y="-4.333" type="curve"/>
      <point x="365.667" y="-10.333"/>
      <point x="371.333" y="-11.333"/>
      <point x="380" y="-10" type="curve"/>
      <point x="407" y="5.333"/>
      <point x="450.334" y="20"/>
      <point x="514" y="27.667" type="curve"/>
      <point x="518.667" y="33.667"/>
      <point x="518" y="50.334"/>
      <point x="513.334" y="56.334" type="curve"/>
      <point x="453.334" y="61.334"/>
      <point x="443.667" y="79.334"/>
      <point x="443.667" y="131.001" type="curve" smooth="yes"/>
      <point x="443.667" y="590" type="line"/>
      <point x="347" y="590" type="line"/>
      <point x="347" y="111.334" type="line" smooth="yes"/>
      <point x="347" y="68.334"/>
      <point x="350.667" y="37.333"/>
    </contour>
    <contour>
      <point x="361.667" y="417.667" type="line"/>
      <point x="332.333" y="431.667"/>
      <point x="296" y="440.667"/>
      <point x="265" y="440.667" type="curve" smooth="yes"/>
      <point x="133.333" y="440.667"/>
      <point x="38.333" y="331.667"/>
      <point x="38.333" y="201.334" type="curve" smooth="yes"/>
      <point x="38.333" y="81.667"/>
      <point x="103" y="-10"/>
      <point x="214" y="-10" type="curve" smooth="yes"/>
      <point x="258.333" y="-10"/>
      <point x="322.333" y="31.334"/>
      <point x="357" y="66.334" type="curve"/>
      <point x="355.667" y="107.001" type="line"/>
      <point x="328.333" y="79.667"/>
      <point x="285" y="43.333"/>
      <point x="245.333" y="43.333" type="curve" smooth="yes"/>
      <point x="192.666" y="43.333"/>
      <point x="142.333" y="101.227"/>
      <point x="142.333" y="223.333" type="curve" smooth="yes"/>
      <point x="142.333" y="298.852"/>
      <point x="159" y="402.667"/>
      <point x="256.667" y="402.667" type="curve" smooth="yes"/>
      <point x="298" y="402.667"/>
      <point x="319.667" y="392.784"/>
      <point x="361.667" y="335.334" type="curve"/>
    </contour>
    <contour>
      <point x="346.999" y="576" type="curve"/>
      <point x="443.666" y="576" type="line"/>
      <point x="443.666" y="627.209"/>
      <point x="444.735" y="657.048"/>
      <point x="447.666" y="687.667" type="curve"/>
      <point x="447.666" y="693.994"/>
      <point x="441.289" y="698"/>
      <point x="431.333" y="698" type="curve"/>
      <point x="399.999" y="685.621"/>
      <point x="331.51" y="672.709"/>
      <point x="279.999" y="669.334" type="curve"/>
      <point x="278.347" y="663.834"/>
      <point x="279.463" y="646.944"/>
      <point x="281.999" y="639.334" type="curve"/>
      <point x="337.534" y="634.314"/>
      <point x="346.999" y="625.167"/>
    </contour>
  </outline>
</glyph>
<glyph name="e" format="2">
  <advance width="462"/>
  <unicode hex="0065"/>
  <anchor x="247.333" y="500" name="t.uni0302"/>
  <anchor x="332.333" y="10" name="b.ogonek"/>
  <anchor x="254.333" y="-60" name="b.minus-60"/>
  <anchor x="245.333" y="0" name="b.cedilla"/>
  <outline>
    <contour>
      <point x="403.667" y="105" type="curve"/>
      <point x="363.434" y="63.715"/>
      <point x="325.42" y="51.333"/>
      <point x="276.667" y="51.333" type="curve" smooth="yes"/>
      <point x="190.641" y="51.333"/>
      <point x="141" y="121.974"/>
      <point x="141" y="243.666" type="curve"/>
      <point x="398.334" y="240.333" type="line" smooth="yes"/>
      <point x="413.358" y="240.099"/>
      <point x="420.667" y="248.87"/>
      <point x="420.667" y="262" type="curve" smooth="yes"/>
      <point x="420.667" y="359.11"/>
      <point x="366.132" y="439.333"/>
      <point x="253.725" y="439.333" type="curve" smooth="yes"/>
      <point x="137.757" y="439.333"/>
      <point x="39.6667" y="340.458"/>
      <point x="39.6667" y="197.931" type="curve" smooth="yes"/>
      <point x="39.6667" y="66.713"/>
      <point x="120.359" y="-10"/>
      <point x="244.5" y="-10" type="curve" smooth="yes"/>
      <point x="315.87" y="-10"/>
      <point x="376.219" y="20.951"/>
      <point x="422.667" y="84" type="curve"/>
      <point x="420.612" y="95.185"/>
      <point x="414.79" y="104.351"/>
    </contour>
    <contour>
      <point x="143.667" y="278.333" type="line"/>
      <point x="155.838" y="362.146"/>
      <point x="193.983" y="403.333"/>
      <point x="244.952" y="403.333" type="curve" smooth="yes"/>
      <point x="288.134" y="403.333"/>
      <point x="321" y="369.357"/>
      <point x="321" y="298.666" type="curve" smooth="yes"/>
      <point x="321" y="289.911"/>
      <point x="316.543" y="282.623"/>
      <point x="306" y="282.333" type="curve" smooth="yes"/>
    </contour>
  </outline>
</glyph>
<glyph name="f" format="2">
  <advance width="337"/>
  <unicode hex="0066"/>
  <anchor x="235" y="740" name="t.uni0302"/>
  <anchor x="352.667" y="-60" name="b.minus-60"/>
  <outline>
    <contour>
      <point x="30" y="-2" type="curve"/>
      <point x="66" y="-1"/>
      <point x="106" y="0"/>
      <point x="150.334" y="0" type="curve"/>
      <point x="192.07" y="-0.22"/>
      <point x="233.597" y="-1"/>
      <point x="270.667" y="-2" type="curve"/>
      <point x="276.667" y="4.083"/>
      <point x="276.667" y="25.208"/>
      <point x="270.667" y="31.333" type="curve"/>
      <point x="209.667" y="35"/>
      <point x="198.667" y="39.666"/>
      <point x="198.667" y="122" type="curve"/>
      <point x="102" y="122" type="line"/>
      <point x="102" y="39.666"/>
      <point x="91" y="35"/>
      <point x="30" y="31.333" type="curve"/>
      <point x="24" y="25.208"/>
      <point x="24" y="4.083"/>
    </contour>
    <contour>
      <point x="102" y="122" type="line"/>
      <point x="198.667" y="122" type="line"/>
      <point x="198.667" y="485.667" type="line" smooth="yes"/>
      <point x="198.667" y="638"/>
      <point x="242.334" y="661.333"/>
      <point x="271.667" y="661.333" type="curve" smooth="yes"/>
      <point x="297.334" y="661.333"/>
      <point x="309.378" y="648.346"/>
      <point x="321" y="617" type="curve" smooth="yes"/>
      <point x="329.378" y="594.346"/>
      <point x="345.334" y="576.667"/>
      <point x="371.334" y="576.667" type="curve" smooth="yes"/>
      <point x="393.667" y="576.667"/>
      <point x="417.667" y="597.667"/>
      <point x="417.667" y="625.333" type="curve" smooth="yes"/>
      <point x="417.667" y="673"/>
      <point x="354.667" y="698"/>
      <point x="290.667" y="698" type="curve" smooth="yes"/>
      <point x="189.667" y="698"/>
      <point x="102" y="609.666"/>
      <point x="102" y="464" type="curve" smooth="yes"/>
    </contour>
    <contour>
      <point x="183.667" y="388" type="line"/>
      <point x="293.817" y="388" type="line" smooth="yes"/>
      <point x="305.817" y="388"/>
      <point x="316.334" y="392.333"/>
      <point x="316.334" y="402.333" type="curve" smooth="yes"/>
      <point x="316.334" y="424.526" type="line" smooth="yes"/>
      <point x="316.334" y="428.771"/>
      <point x="313.788" y="430.667"/>
      <point x="309.106" y="430.667" type="curve" smooth="yes"/>
      <point x="183.667" y="430.667" type="line"/>
    </contour>
    <contour>
      <point x="107.938" y="430.758" type="line"/>
      <point x="51.667" y="430.87" type="line" smooth="yes"/>
      <point x="34" y="430.903"/>
      <point x="28.667" y="418.667"/>
      <point x="28.667" y="410.667" type="curve" smooth="yes"/>
      <point x="28.667" y="393" type="line" smooth="yes"/>
      <point x="28.667" y="389"/>
      <point x="29.667" y="388"/>
      <point x="34" y="388" type="curve" smooth="yes"/>
      <point x="108" y="388" type="line"/>
    </contour>
  </outline>
</glyph>
<glyph name="g" format="2">
  <advance width="507"/>
  <unicode hex="0067"/>
  <anchor x="244" y="500" name="t.uni0302"/>
  <outline>
    <contour>
      <point x="55.333" y="290" type="curve" smooth="yes"/>
      <point x="55.333" y="192.333"/>
      <point x="141" y="138"/>
      <point x="230.333" y="138" type="curve" smooth="yes"/>
      <point x="319" y="138"/>
      <point x="403.333" y="191"/>
      <point x="403.333" y="289.666" type="curve" smooth="yes"/>
      <point x="403.333" y="339.666"/>
      <point x="384.666" y="370"/>
      <point x="354" y="399.333" type="curve"/>
      <point x="361.333" y="409.333"/>
      <point x="385.666" y="424.666"/>
      <point x="397.666" y="424.666" type="curve" smooth="yes"/>
      <point x="405.333" y="424.666"/>
      <point x="412.333" y="420.666"/>
      <point x="417.333" y="412.666" type="curve"/>
      <point x="421.333" y="403"/>
      <point x="436" y="389.333"/>
      <point x="451.666" y="389.333" type="curve" smooth="yes"/>
      <point x="473.666" y="389.333"/>
      <point x="490.999" y="405.333"/>
      <point x="490.999" y="430.999" type="curve" smooth="yes"/>
      <point x="490.999" y="451.333"/>
      <point x="469.666" y="471.666"/>
      <point x="439" y="471.666" type="curve" smooth="yes"/>
      <point x="407" y="471.666"/>
      <point x="355.666" y="449.333"/>
      <point x="328.666" y="418" type="curve"/>
      <point x="314.666" y="426.666"/>
      <point x="285.666" y="440.666"/>
      <point x="231.333" y="440.666" type="curve" smooth="yes"/>
      <point x="143" y="440.666"/>
      <point x="55.333" y="384.333"/>
    </contour>
    <contour>
      <point x="25" y="-118" type="curve" smooth="yes"/>
      <point x="25" y="-215.666"/>
      <point x="110.666" y="-238"/>
      <point x="195" y="-238" type="curve" smooth="yes"/>
      <point x="331.333" y="-238"/>
      <point x="481.666" y="-170.333"/>
      <point x="481.666" y="-61.667" type="curve" smooth="yes"/>
      <point x="481.666" y="43.666"/>
      <point x="346.666" y="56.666"/>
      <point x="268.666" y="56.666" type="curve" smooth="yes"/>
      <point x="239.657" y="56.666"/>
      <point x="208.713" y="50.76"/>
      <point x="183.144" y="50.76" type="curve" smooth="yes"/>
      <point x="142.174" y="50.76"/>
      <point x="115" y="62.995"/>
      <point x="115" y="103" type="curve" smooth="yes"/>
      <point x="115" y="120"/>
      <point x="131.667" y="146"/>
      <point x="153" y="167.333" type="curve"/>
      <point x="127" y="180.666" type="line"/>
      <point x="88" y="150"/>
      <point x="46.667" y="98.666"/>
      <point x="46.667" y="71.999" type="curve" smooth="yes"/>
      <point x="46.667" y="11.035"/>
      <point x="113.366" y="-18.509"/>
      <point x="168.587" y="-18.552" type="curve" smooth="yes"/>
      <point x="196.978" y="-18.571"/>
      <point x="223.354" y="-15.398"/>
      <point x="240.47" y="-15.391" type="curve" smooth="yes"/>
      <point x="300.719" y="-15.366"/>
      <point x="411.333" y="-23.463"/>
      <point x="411.333" y="-87.667" type="curve" smooth="yes"/>
      <point x="411.333" y="-170.398"/>
      <point x="311.79" y="-199.333"/>
      <point x="224.333" y="-199.333" type="curve" smooth="yes"/>
      <point x="178.333" y="-199.333"/>
      <point x="107.333" y="-163.666"/>
      <point x="107.333" y="-101.333" type="curve" smooth="yes"/>
      <point x="107.333" y="-62"/>
      <point x="109.333" y="-35.667"/>
      <point x="144.333" y="1.333" type="curve"/>
      <point x="124.667" y="4.333" type="line"/>
      <point x="65.666" y="-23.667"/>
      <point x="25" y="-80.333"/>
    </contour>
    <contour>
      <point x="150" y="303" type="curve" smooth="yes"/>
      <point x="150" y="374.333"/>
      <point x="172.667" y="407.333"/>
      <point x="222.333" y="407.333" type="curve" smooth="yes"/>
      <point x="280" y="407.333"/>
      <point x="309.333" y="363.666"/>
      <point x="309.333" y="282" type="curve" smooth="yes"/>
      <point x="309.333" y="188"/>
      <point x="268.666" y="171.333"/>
      <point x="235.333" y="171.333" type="curve" smooth="yes"/>
      <point x="158.667" y="171.333"/>
      <point x="150" y="243.333"/>
    </contour>
  </outline>
</glyph>
<glyph name="h" format="2">
  <advance width="570"/>
  <unicode hex="0068"/>
  <anchor x="304.333" y="740" name="t.uni0302"/>
  <anchor x="336" y="-60" name="b.minus-60"/>
  <anchor x="292" y="3.333" name="b.cedilla"/>
  <outline>
    <contour>
      <point x="24" y="-2" type="curve"/>
      <point x="58" y="-1"/>
      <point x="98.667" y="0"/>
      <point x="143.001" y="0" type="curve" smooth="yes"/>
      <point x="185.001" y="0"/>
      <point x="215.001" y="-1"/>
      <point x="249.334" y="-2" type="curve"/>
      <point x="255.334" y="4"/>
      <point x="255.334" y="25.333"/>
      <point x="249.334" y="31.333" type="curve"/>
      <point x="201.334" y="36"/>
      <point x="191.334" y="39.666"/>
      <point x="191.334" y="122" type="curve"/>
      <point x="94.667" y="122" type="line"/>
      <point x="94.667" y="39.666"/>
      <point x="84.334" y="36.333"/>
      <point x="24" y="31.333" type="curve"/>
      <point x="18" y="25.333"/>
      <point x="18" y="4"/>
    </contour>
    <contour>
      <point x="326.334" y="-2" type="curve"/>
      <point x="360.334" y="-1"/>
      <point x="392.334" y="0"/>
      <point x="435.001" y="0" type="curve" smooth="yes"/>
      <point x="480.001" y="0"/>
      <point x="519.334" y="-1"/>
      <point x="553.667" y="-2" type="curve"/>
      <point x="559.001" y="4"/>
      <point x="559.001" y="25.333"/>
      <point x="553.667" y="31.333" type="curve"/>
      <point x="496.001" y="35.666"/>
      <point x="483.334" y="39.666"/>
      <point x="483.334" y="122" type="curve"/>
      <point x="386.667" y="122" type="line"/>
      <point x="386.667" y="39.666"/>
      <point x="374.667" y="35.666"/>
      <point x="326.334" y="31.333" type="curve"/>
      <point x="321" y="25.333"/>
      <point x="321" y="4"/>
    </contour>
    <contour>
      <point x="191.334" y="122" type="line"/>
      <point x="191.334" y="576" type="line"/>
      <point x="94.667" y="576" type="line"/>
      <point x="94.667" y="122" type="line"/>
    </contour>
    <contour>
      <point x="483.334" y="122" type="line"/>
      <point x="483.334" y="275.333" type="line" smooth="yes"/>
      <point x="483.334" y="391.045"/>
      <point x="447.52" y="440.666"/>
      <point x="365" y="440.666" type="curve" smooth="yes"/>
      <point x="319.28" y="440.666"/>
      <point x="251.944" y="405.759"/>
      <point x="176.334" y="342.333" type="curve"/>
      <point x="177.667" y="305.333" type="line"/>
      <point x="225.695" y="354.137"/>
      <point x="276.184" y="381.333"/>
      <point x="318.334" y="381.333" type="curve" smooth="yes"/>
      <point x="362.079" y="381.333"/>
      <point x="386.667" y="345.11"/>
      <point x="386.667" y="281" type="curve" smooth="yes"/>
      <point x="386.667" y="122" type="line"/>
    </contour>
    <contour>
      <point x="94.714" y="576" type="curve"/>
      <point x="191.381" y="576" type="line"/>
      <point x="191.381" y="626"/>
      <point x="192.381" y="656.333"/>
      <point x="195.381" y="687.666" type="curve"/>
      <point x="195.381" y="694"/>
      <point x="189.047" y="698"/>
      <point x="179.047" y="698" type="curve"/>
      <point x="150.381" y="686.666"/>
      <point x="82.714" y="673"/>
      <point x="27.714" y="669.333" type="curve"/>
      <point x="25.714" y="662.666"/>
      <point x="27.714" y="645.333"/>
      <point x="29.714" y="639.333" type="curve"/>
      <point x="84.952" y="634.311"/>
      <point x="94.714" y="625"/>
    </contour>
  </outline>
</glyph>
<glyph name="i" format="2">
  <advance width="288"/>
  <unicode hex="0069"/>
  <anchor x="137" y="795" name="t.uni0302"/>
  <anchor x="221.667" y="10" name="b.ogonek"/>
  <anchor x="160" y="-60" name="b.minus-60"/>
  <outline>
    <component base="dotlessi"/>
    <contour>
      <point x="92.3333" y="596" type="curve" smooth="yes"/>
      <point x="92.3333" y="567.053"/>
      <point x="114.579" y="541.333"/>
      <point x="148" y="541.333" type="curve" smooth="yes"/>
      <point x="181.761" y="541.333"/>
      <point x="204" y="567.044"/>
      <point x="204" y="596" type="curve" smooth="yes"/>
      <point x="204" y="625.29"/>
      <point x="181.773" y="650.667"/>
      <point x="148" y="650.667" type="curve" smooth="yes"/>
      <point x="114.567" y="650.667"/>
      <point x="92.3333" y="625.281"/>
    </contour>
  </outline>
  <guideline angle="90" x="140" y="0"/>
  <guideline angle="0" x="0" y="597"/>
</glyph>
<glyph name="j" format="2">
  <advance width="285"/>
  <unicode hex="006A"/>
  <outline>
    <component base="uni0237"/>
    <contour>
      <point x="92.333" y="595.999" type="curve" smooth="yes"/>
      <point x="92.333" y="567.052"/>
      <point x="114.579" y="541.333"/>
      <point x="148" y="541.333" type="curve" smooth="yes"/>
      <point x="181.761" y="541.333"/>
      <point x="204" y="567.043"/>
      <point x="204" y="595.999" type="curve" smooth="yes"/>
      <point x="204" y="625.289"/>
      <point x="181.773" y="650.666"/>
      <point x="148" y="650.666" type="curve" smooth="yes"/>
      <point x="114.566" y="650.666"/>
      <point x="92.333" y="625.28"/>
    </contour>
  </outline>
</glyph>
<glyph name="k" format="2">
  <advance width="548"/>
  <unicode hex="006B"/>
  <anchor x="280.667" y="740" name="t.uni0302"/>
  <anchor x="283.333" y="-60" name="b.minus-60"/>
  <outline>
    <contour>
      <point x="28.3333" y="-2" type="curve"/>
      <point x="62.3333" y="-1"/>
      <point x="103" y="0"/>
      <point x="147.333" y="0" type="curve" smooth="yes"/>
      <point x="189.333" y="0"/>
      <point x="219.333" y="-1"/>
      <point x="253.666" y="-2" type="curve"/>
      <point x="259.666" y="4"/>
      <point x="259.666" y="25.333"/>
      <point x="253.666" y="31.333" type="curve"/>
      <point x="205.666" y="36"/>
      <point x="195.666" y="39.666"/>
      <point x="195.666" y="122" type="curve"/>
      <point x="99.0003" y="122" type="line"/>
      <point x="99.0003" y="39.666"/>
      <point x="88.6663" y="36.333"/>
      <point x="28.3333" y="31.333" type="curve"/>
      <point x="22.3333" y="25.333"/>
      <point x="22.3333" y="4"/>
    </contour>
    <contour>
      <point x="99.0003" y="110" type="line"/>
      <point x="195.666" y="110" type="line"/>
      <point x="195.666" y="583" type="line" smooth="yes"/>
      <point x="195.666" y="648"/>
      <point x="199.333" y="683.001"/>
      <point x="199.333" y="687.001" type="curve" smooth="yes"/>
      <point x="199.333" y="694.667"/>
      <point x="194.333" y="698.001"/>
      <point x="185.333" y="698.001" type="curve"/>
      <point x="156.333" y="687.334"/>
      <point x="79.0003" y="674.334"/>
      <point x="28.6663" y="671.334" type="curve"/>
      <point x="26.3333" y="662.001"/>
      <point x="28.0003" y="647.667"/>
      <point x="33.6663" y="640.667" type="curve"/>
      <point x="86.6663" y="639"/>
      <point x="99.0003" y="630.667"/>
      <point x="99.0003" y="585" type="curve" smooth="yes"/>
    </contour>
    <contour>
      <point x="175" y="209.666" type="line"/>
      <point x="225" y="209.666"/>
      <point x="251.333" y="200"/>
      <point x="270" y="174" type="curve" smooth="yes"/>
      <point x="339.333" y="74.666" type="line" smooth="yes"/>
      <point x="362.333" y="42.666"/>
      <point x="372" y="22.333"/>
      <point x="372.666" y="2.667" type="curve"/>
      <point x="372.666" y="0"/>
      <point x="374" y="-2"/>
      <point x="377" y="-2" type="curve"/>
      <point x="392" y="-1.333"/>
      <point x="419" y="0"/>
      <point x="444" y="0" type="curve" smooth="yes"/>
      <point x="478.333" y="0"/>
      <point x="517.666" y="-1"/>
      <point x="543.333" y="-2" type="curve"/>
      <point x="549.333" y="4"/>
      <point x="549.333" y="25.333"/>
      <point x="543.333" y="31.333" type="curve"/>
      <point x="501.666" y="36"/>
      <point x="479.666" y="42.333"/>
      <point x="455.666" y="74.666" type="curve" smooth="yes"/>
      <point x="329" y="242.333" type="line" smooth="yes"/>
      <point x="325.333" y="247"/>
      <point x="322.666" y="251.333"/>
      <point x="322.666" y="256" type="curve" smooth="yes"/>
      <point x="322.666" y="259.333"/>
      <point x="323.251" y="262.243"/>
      <point x="327.028" y="266.131" type="curve" smooth="yes"/>
      <point x="401.333" y="344" type="line" smooth="yes"/>
      <point x="438.95" y="384.712"/>
      <point x="469.333" y="395"/>
      <point x="516.333" y="399.333" type="curve"/>
      <point x="522.333" y="405.333"/>
      <point x="522.333" y="426.666"/>
      <point x="516.333" y="432.666" type="curve"/>
      <point x="493.666" y="431.666"/>
      <point x="454" y="430.666"/>
      <point x="421.333" y="430.666" type="curve" smooth="yes"/>
      <point x="383.666" y="430.666"/>
      <point x="343.333" y="431.666"/>
      <point x="315.666" y="432.666" type="curve"/>
      <point x="309.666" y="426.666"/>
      <point x="309.666" y="405.333"/>
      <point x="315.666" y="399.333" type="curve"/>
      <point x="346.333" y="397"/>
      <point x="358" y="389.333"/>
      <point x="358" y="377.666" type="curve" smooth="yes"/>
      <point x="358" y="350.333"/>
      <point x="291" y="282.333"/>
      <point x="265.333" y="264.333" type="curve" smooth="yes"/>
      <point x="241.666" y="248"/>
      <point x="200.666" y="238"/>
      <point x="175" y="238" type="curve"/>
    </contour>
  </outline>
</glyph>
<glyph name="l" format="2">
  <advance width="284"/>
  <unicode hex="006C"/>
  <anchor x="134" y="740" name="t.uni0302"/>
  <anchor x="150.333" y="-60" name="b.minus-60"/>
  <anchor x="270.667" y="656" name="apostrophe"/>
  <outline>
    <contour>
      <point x="30" y="-2" type="curve"/>
      <point x="66" y="-1"/>
      <point x="106" y="0"/>
      <point x="150.334" y="0" type="curve"/>
      <point x="192.07" y="-0.22"/>
      <point x="233.597" y="-1"/>
      <point x="270.667" y="-2" type="curve"/>
      <point x="276.667" y="4.083"/>
      <point x="276.667" y="25.208"/>
      <point x="270.667" y="31.333" type="curve"/>
      <point x="209.667" y="35"/>
      <point x="198.667" y="39.666"/>
      <point x="198.667" y="122" type="curve"/>
      <point x="102" y="122" type="line"/>
      <point x="102" y="39.666"/>
      <point x="91" y="35"/>
      <point x="30" y="31.333" type="curve"/>
      <point x="24" y="25.208"/>
      <point x="24" y="4.083"/>
    </contour>
    <contour>
      <point x="102" y="122" type="line"/>
      <point x="198.667" y="122" type="line"/>
      <point x="198.667" y="576" type="line"/>
      <point x="102" y="576" type="line"/>
    </contour>
    <contour>
      <point x="102" y="576" type="curve"/>
      <point x="198.667" y="576" type="line"/>
      <point x="198.667" y="626"/>
      <point x="199.667" y="656.333"/>
      <point x="202.667" y="687.666" type="curve"/>
      <point x="202.667" y="694"/>
      <point x="196.334" y="698"/>
      <point x="186.334" y="698" type="curve"/>
      <point x="157.667" y="686.666"/>
      <point x="89.9996" y="673"/>
      <point x="34.9996" y="669.333" type="curve"/>
      <point x="32.9996" y="662.666"/>
      <point x="34.9996" y="645.333"/>
      <point x="36.9996" y="639.333" type="curve"/>
      <point x="92.2386" y="634.311"/>
      <point x="102" y="625"/>
    </contour>
  </outline>
</glyph>
<glyph name="m" format="2">
  <advance width="828"/>
  <unicode hex="006D"/>
  <anchor x="392" y="645" name="m.uni0302"/>
  <anchor x="423.667" y="-110" name="m.uni0316_2"/>
  <outline>
    <contour>
      <point x="24.6667" y="-2" type="curve"/>
      <point x="58.6667" y="-1"/>
      <point x="99.3333" y="0"/>
      <point x="143.667" y="0" type="curve" smooth="yes"/>
      <point x="185.667" y="0"/>
      <point x="215.667" y="-1"/>
      <point x="250" y="-2" type="curve"/>
      <point x="256" y="4"/>
      <point x="256" y="25.3333"/>
      <point x="250" y="31.3333" type="curve"/>
      <point x="202" y="36"/>
      <point x="192" y="39.6667"/>
      <point x="192" y="122" type="curve"/>
      <point x="95.3333" y="122" type="line"/>
      <point x="95.3333" y="39.6667"/>
      <point x="85" y="36.3333"/>
      <point x="24.6667" y="31.3333" type="curve"/>
      <point x="18.6667" y="25.3333"/>
      <point x="18.6667" y="4"/>
    </contour>
    <contour>
      <point x="314.333" y="-2" type="curve"/>
      <point x="350.333" y="-1"/>
      <point x="376.333" y="0"/>
      <point x="420.667" y="0" type="curve"/>
      <point x="462.403" y="-0.22"/>
      <point x="489.93" y="-1"/>
      <point x="527" y="-2" type="curve"/>
      <point x="533" y="4.08333"/>
      <point x="533" y="25.2083"/>
      <point x="527" y="31.3333" type="curve"/>
      <point x="479.333" y="35"/>
      <point x="469" y="39.6667"/>
      <point x="469" y="122" type="curve"/>
      <point x="372.333" y="122" type="line"/>
      <point x="372.333" y="39.6667"/>
      <point x="362" y="35"/>
      <point x="314.333" y="31.3333" type="curve"/>
      <point x="308.333" y="25.2083"/>
      <point x="308.333" y="4.08333"/>
    </contour>
    <contour>
      <point x="589" y="-2" type="curve"/>
      <point x="623" y="-1"/>
      <point x="655" y="0"/>
      <point x="697.667" y="0" type="curve" smooth="yes"/>
      <point x="742.667" y="0"/>
      <point x="782" y="-1"/>
      <point x="816.333" y="-2" type="curve"/>
      <point x="821.667" y="4"/>
      <point x="821.667" y="25.3333"/>
      <point x="816.333" y="31.3333" type="curve"/>
      <point x="758.667" y="35.6667"/>
      <point x="746" y="39.6667"/>
      <point x="746" y="122" type="curve"/>
      <point x="649.333" y="122" type="line"/>
      <point x="649.333" y="39.6667"/>
      <point x="637.333" y="35.6667"/>
      <point x="589" y="31.3333" type="curve"/>
      <point x="583.667" y="25.3333"/>
      <point x="583.667" y="4"/>
    </contour>
    <contour>
      <point x="649.333" y="122" type="line"/>
      <point x="746" y="122" type="line"/>
      <point x="746" y="281.333" type="line" smooth="yes"/>
      <point x="746" y="377.333"/>
      <point x="722" y="440.667"/>
      <point x="634.667" y="440.667" type="curve" smooth="yes"/>
      <point x="584.667" y="440.667"/>
      <point x="501.333" y="404"/>
      <point x="447.333" y="350.333" type="curve"/>
      <point x="451.667" y="312.667" type="line"/>
      <point x="500.667" y="365.333"/>
      <point x="552" y="381.333"/>
      <point x="586.667" y="381.333" type="curve" smooth="yes"/>
      <point x="625.333" y="381.333"/>
      <point x="649.333" y="360.667"/>
      <point x="649.333" y="297" type="curve" smooth="yes"/>
    </contour>
    <contour>
      <point x="372.333" y="122" type="line"/>
      <point x="469" y="122" type="line"/>
      <point x="469" y="282" type="line" smooth="yes"/>
      <point x="469" y="361"/>
      <point x="450" y="440.667"/>
      <point x="353" y="440.667" type="curve" smooth="yes"/>
      <point x="298" y="440.667"/>
      <point x="225" y="391"/>
      <point x="178" y="346" type="curve"/>
      <point x="180.667" y="310" type="line"/>
      <point x="218" y="347"/>
      <point x="263.667" y="381.333"/>
      <point x="305" y="381.333" type="curve" smooth="yes"/>
      <point x="343.667" y="381.333"/>
      <point x="372.333" y="359.333"/>
      <point x="372.333" y="295.667" type="curve" smooth="yes"/>
    </contour>
    <contour>
      <point x="95.3333" y="122" type="line"/>
      <point x="192" y="122" type="line"/>
      <point x="192" y="313.667" type="line" smooth="yes"/>
      <point x="192" y="365"/>
      <point x="187.333" y="413"/>
      <point x="181.667" y="430.333" type="curve"/>
      <point x="179.333" y="439"/>
      <point x="175.667" y="442.667"/>
      <point x="165.667" y="442.667" type="curve"/>
      <point x="134.667" y="432"/>
      <point x="97.3333" y="421.333"/>
      <point x="28.3333" y="412.333" type="curve"/>
      <point x="26.3333" y="406.333"/>
      <point x="28.3333" y="389"/>
      <point x="30.3333" y="383" type="curve"/>
      <point x="84.6667" y="378"/>
      <point x="95.3333" y="372"/>
      <point x="95.3333" y="314.333" type="curve" smooth="yes"/>
    </contour>
  </outline>
</glyph>
<glyph name="n" format="2">
  <advance width="571"/>
  <unicode hex="006E"/>
  <anchor x="244" y="500" name="t.uni0302"/>
  <anchor x="273.667" y="-60" name="b.minus-60"/>
  <anchor x="-8.667" y="656" name="apostrophe"/>
  <outline>
    <contour>
      <point x="28.5334" y="-2" type="curve"/>
      <point x="62.5334" y="-1"/>
      <point x="103.2" y="0"/>
      <point x="147.533" y="0" type="curve" smooth="yes"/>
      <point x="189.533" y="0"/>
      <point x="219.533" y="-1"/>
      <point x="253.867" y="-2" type="curve"/>
      <point x="259.867" y="4"/>
      <point x="259.867" y="25.333"/>
      <point x="253.867" y="31.333" type="curve"/>
      <point x="205.867" y="36"/>
      <point x="195.867" y="39.666"/>
      <point x="195.867" y="122" type="curve"/>
      <point x="99.2004" y="122" type="line"/>
      <point x="99.2004" y="39.666"/>
      <point x="88.8664" y="36.333"/>
      <point x="28.5334" y="31.333" type="curve"/>
      <point x="22.5334" y="25.333"/>
      <point x="22.5334" y="4"/>
    </contour>
    <contour>
      <point x="326.867" y="-2" type="curve"/>
      <point x="360.867" y="-1"/>
      <point x="392.867" y="0"/>
      <point x="435.533" y="0" type="curve" smooth="yes"/>
      <point x="480.533" y="0"/>
      <point x="519.867" y="-1"/>
      <point x="554.2" y="-2" type="curve"/>
      <point x="559.533" y="4"/>
      <point x="559.533" y="25.333"/>
      <point x="554.2" y="31.333" type="curve"/>
      <point x="496.533" y="35.666"/>
      <point x="483.867" y="39.666"/>
      <point x="483.867" y="122" type="curve"/>
      <point x="387.2" y="122" type="line"/>
      <point x="387.2" y="39.666"/>
      <point x="375.2" y="35.666"/>
      <point x="326.867" y="31.333" type="curve"/>
      <point x="321.533" y="25.333"/>
      <point x="321.533" y="4"/>
    </contour>
    <contour>
      <point x="99.2004" y="316" type="curve"/>
      <point x="195.867" y="336" type="line"/>
      <point x="195.867" y="368.151"/>
      <point x="190.912" y="414.46"/>
      <point x="185.2" y="431.666" type="curve" smooth="yes"/>
      <point x="182.829" y="438.807"/>
      <point x="178.243" y="442.666"/>
      <point x="169.533" y="442.666" type="curve"/>
      <point x="127.611" y="428.301"/>
      <point x="87.0664" y="419.489"/>
      <point x="32.2004" y="412.333" type="curve"/>
      <point x="30.5404" y="407.355"/>
      <point x="31.6824" y="390.552"/>
      <point x="34.2004" y="383" type="curve"/>
      <point x="91.2764" y="377.746"/>
      <point x="99.2004" y="366.164"/>
    </contour>
    <contour>
      <point x="99.2003" y="110" type="line"/>
      <point x="195.867" y="110" type="line"/>
      <point x="195.867" y="342" type="line"/>
      <point x="99.2003" y="322" type="line"/>
    </contour>
    <contour>
      <point x="387.2" y="110" type="line"/>
      <point x="483.867" y="110" type="line"/>
      <point x="483.867" y="275.333" type="line" smooth="yes"/>
      <point x="483.867" y="390.54"/>
      <point x="447.719" y="440.666"/>
      <point x="365.533" y="440.666" type="curve" smooth="yes"/>
      <point x="317.688" y="440.666"/>
      <point x="254.38" y="399.822"/>
      <point x="184.2" y="342.333" type="curve"/>
      <point x="195.867" y="315" type="line"/>
      <point x="247.784" y="359.083"/>
      <point x="286.089" y="381.333"/>
      <point x="316.221" y="381.333" type="curve" smooth="yes"/>
      <point x="363.645" y="381.333"/>
      <point x="387.2" y="345.586"/>
      <point x="387.2" y="281" type="curve" smooth="yes"/>
    </contour>
  </outline>
</glyph>
<glyph name="o" format="2">
  <advance width="520"/>
  <unicode hex="006F"/>
  <anchor x="245.333" y="500" name="t.uni0302"/>
  <anchor x="346.333" y="10" name="b.ogonek"/>
  <anchor x="257" y="-60" name="b.minus-60"/>
  <outline>
    <contour>
      <point x="39.667" y="210.316" type="curve" smooth="yes"/>
      <point x="39.667" y="92.938"/>
      <point x="113.216" y="-10"/>
      <point x="254.221" y="-10" type="curve" smooth="yes"/>
      <point x="389.95" y="-10"/>
      <point x="480" y="85.611"/>
      <point x="480" y="213.042" type="curve" smooth="yes"/>
      <point x="480" y="331.07"/>
      <point x="413.815" y="440.666"/>
      <point x="268.097" y="440.666" type="curve" smooth="yes"/>
      <point x="125.774" y="440.666"/>
      <point x="39.667" y="337.271"/>
    </contour>
    <contour>
      <point x="143.667" y="230.399" type="curve" smooth="yes"/>
      <point x="143.667" y="324.941"/>
      <point x="180.029" y="403.333"/>
      <point x="253.881" y="403.333" type="curve" smooth="yes"/>
      <point x="328.289" y="403.333"/>
      <point x="376" y="323.172"/>
      <point x="376" y="182.666" type="curve" smooth="yes"/>
      <point x="376" y="67.678"/>
      <point x="320.122" y="27.333"/>
      <point x="269.825" y="27.333" type="curve" smooth="yes"/>
      <point x="181.731" y="27.333"/>
      <point x="143.667" y="141.049"/>
    </contour>
  </outline>
</glyph>
<glyph name="p" format="2">
  <advance width="540"/>
  <unicode hex="0070"/>
  <anchor x="228.333" y="500" name="t.uni0302"/>
  <anchor x="335.667" y="-60" name="b.minus-60"/>
  <outline>
    <contour>
      <point x="85" y="-110" type="line"/>
      <point x="181.667" y="-110" type="line"/>
      <point x="181.667" y="314.333" type="line" smooth="yes"/>
      <point x="181.667" y="362"/>
      <point x="175.621" y="404.657"/>
      <point x="171" y="431.667" type="curve" smooth="yes"/>
      <point x="169.621" y="438.991"/>
      <point x="165.334" y="442.667"/>
      <point x="155.334" y="442.667" type="curve"/>
      <point x="124.334" y="432"/>
      <point x="87" y="421.333"/>
      <point x="18" y="412.333" type="curve"/>
      <point x="16" y="406.333"/>
      <point x="18" y="389"/>
      <point x="20" y="383" type="curve"/>
      <point x="74.333" y="378"/>
      <point x="85" y="372"/>
      <point x="85" y="314.333" type="curve" smooth="yes"/>
    </contour>
    <contour>
      <point x="166" y="15.667" type="line"/>
      <point x="191.334" y="1.667"/>
      <point x="239" y="-10"/>
      <point x="270.667" y="-10" type="curve" smooth="yes"/>
      <point x="414.667" y="-10"/>
      <point x="501.667" y="98"/>
      <point x="501.667" y="235.667" type="curve" smooth="yes"/>
      <point x="501.667" y="346.667"/>
      <point x="426.667" y="440.667"/>
      <point x="318" y="440.667" type="curve" smooth="yes"/>
      <point x="277.667" y="440.667"/>
      <point x="221.667" y="404.333"/>
      <point x="183.334" y="363.667" type="curve"/>
      <point x="172" y="363.667" type="line"/>
      <point x="172" y="309.667" type="line"/>
      <point x="198" y="341.333"/>
      <point x="246.667" y="387.667"/>
      <point x="288.667" y="387.667" type="curve" smooth="yes"/>
      <point x="345" y="387.667"/>
      <point x="397.667" y="323"/>
      <point x="397.667" y="208.667" type="curve" smooth="yes"/>
      <point x="397.667" y="126"/>
      <point x="368.334" y="26.667"/>
      <point x="264.667" y="26.667" type="curve" smooth="yes"/>
      <point x="235.667" y="26.667"/>
      <point x="203" y="40.334"/>
      <point x="166" y="77.667" type="curve"/>
    </contour>
    <contour>
      <point x="13" y="-234" type="curve"/>
      <point x="49" y="-233"/>
      <point x="89" y="-232"/>
      <point x="133.334" y="-232" type="curve"/>
      <point x="175.07" y="-232.22"/>
      <point x="216.597" y="-233"/>
      <point x="253.667" y="-234" type="curve"/>
      <point x="259.667" y="-227.917"/>
      <point x="259.667" y="-206.791"/>
      <point x="253.667" y="-200.666" type="curve"/>
      <point x="192.667" y="-197"/>
      <point x="181.667" y="-192.333"/>
      <point x="181.667" y="-110" type="curve"/>
      <point x="85" y="-110" type="line"/>
      <point x="85" y="-192.333"/>
      <point x="74" y="-197"/>
      <point x="13" y="-200.666" type="curve"/>
      <point x="7" y="-206.791"/>
      <point x="7" y="-227.917"/>
    </contour>
  </outline>
</glyph>
<glyph name="q" format="2">
	<unicode hex="0071"/>
	<advance width="526"/>
	<outline>
		<contour>
			<point x="35.3333" y="207.333" type="curve" smooth="yes"/>
			<point x="35.3333" y="102.667"/>
			<point x="102.667" y="-10"/>
			<point x="241.667" y="-10" type="curve" smooth="yes"/>
			<point x="278" y="-10"/>
			<point x="310.333" y="2.33333"/>
			<point x="345.333" y="22" type="curve"/>
			<point x="364.15" y="22" type="line"/>
			<point x="364.15" y="69.1272" type="line"/>
			<point x="339.267" y="48.094"/>
			<point x="305.954" y="38"/>
			<point x="273.333" y="38" type="curve" smooth="yes"/>
			<point x="218" y="38"/>
			<point x="139.333" y="78"/>
			<point x="139.333" y="227.667" type="curve" smooth="yes"/>
			<point x="139.333" y="330.333"/>
			<point x="182" y="404"/>
			<point x="257" y="404" type="curve" smooth="yes"/>
			<point x="292.333" y="404"/>
			<point x="315.667" y="391.667"/>
			<point x="348.333" y="350" type="curve"/>
			<point x="348.333" y="-110" type="line"/>
			<point x="445" y="-110" type="line"/>
			<point x="445" y="329" type="line" smooth="yes"/>
			<point x="445" y="364.333"/>
			<point x="445.851" y="397.092"/>
			<point x="449" y="420.333" type="curve"/>
			<point x="449" y="433.333"/>
			<point x="440" y="442.667"/>
			<point x="428" y="442.667" type="curve" smooth="yes"/>
			<point x="417" y="442.667"/>
			<point x="393.333" y="422.333"/>
			<point x="379.333" y="404.333" type="curve"/>
			<point x="342" y="426"/>
			<point x="311.333" y="440.667"/>
			<point x="260.667" y="440.667" type="curve" smooth="yes"/>
			<point x="135" y="440.667"/>
			<point x="35.3333" y="339.667"/>
		</contour>
		<contour>
			<point x="276.333" y="-234" type="curve"/>
			<point x="312.333" y="-233"/>
			<point x="352.333" y="-232"/>
			<point x="396.667" y="-232" type="curve"/>
			<point x="438.403" y="-232.22"/>
			<point x="479.93" y="-233"/>
			<point x="517" y="-234" type="curve"/>
			<point x="523" y="-227.917"/>
			<point x="523" y="-206.792"/>
			<point x="517" y="-200.667" type="curve"/>
			<point x="456" y="-197"/>
			<point x="445" y="-192.333"/>
			<point x="445" y="-110" type="curve"/>
			<point x="348.333" y="-110" type="line"/>
			<point x="348.333" y="-192.333"/>
			<point x="337.333" y="-197"/>
			<point x="276.333" y="-200.667" type="curve"/>
			<point x="270.333" y="-206.792"/>
			<point x="270.333" y="-227.917"/>
		</contour>
	</outline>
	<anchor name="m.uni0302" x="238" y="645"/>
	<anchor name="m.uni0316_2" x="348" y="-319"/>
	<anchor name="m.uni031A_3" x="469" y="732"/>
</glyph>
<glyph name="r" format="2">
  <advance width="393"/>
  <unicode hex="0072"/>
  <anchor x="247.667" y="500" name="t.uni0302"/>
  <anchor x="152" y="-60" name="b.minus-60"/>
  <outline>
    <contour>
      <point x="101.667" y="120" type="line"/>
      <point x="101.667" y="37.666"/>
      <point x="90.0003" y="35.666"/>
      <point x="28.3333" y="31.333" type="curve"/>
      <point x="22.3333" y="25.333"/>
      <point x="22.3333" y="4"/>
      <point x="28.3333" y="-2" type="curve"/>
      <point x="65.6673" y="-1"/>
      <point x="105.667" y="0"/>
      <point x="150.333" y="0" type="curve" smooth="yes"/>
      <point x="194.667" y="0"/>
      <point x="238.667" y="-1"/>
      <point x="276.333" y="-2" type="curve"/>
      <point x="282.333" y="4"/>
      <point x="282.333" y="25.333"/>
      <point x="276.333" y="31.333" type="curve"/>
      <point x="209.333" y="36"/>
      <point x="197.667" y="37.666"/>
      <point x="197.667" y="120" type="curve"/>
    </contour>
    <contour>
      <point x="197.667" y="120" type="line"/>
      <point x="197.667" y="263.334" type="line" smooth="yes"/>
      <point x="197.667" y="305.334"/>
      <point x="233" y="368.333"/>
      <point x="263" y="368.333" type="curve" smooth="yes"/>
      <point x="272" y="368.333"/>
      <point x="281.667" y="364"/>
      <point x="289.667" y="353.333" type="curve" smooth="yes"/>
      <point x="296.667" y="344"/>
      <point x="310.333" y="332.667"/>
      <point x="329.333" y="332.667" type="curve" smooth="yes"/>
      <point x="355" y="332.667"/>
      <point x="379.667" y="359.333"/>
      <point x="379.667" y="390" type="curve" smooth="yes"/>
      <point x="379.667" y="411.333"/>
      <point x="357.667" y="440.666"/>
      <point x="317.667" y="440.666" type="curve" smooth="yes"/>
      <point x="274.667" y="440.666"/>
      <point x="234.667" y="401.333"/>
      <point x="204" y="353.333" type="curve"/>
      <point x="199.672" y="346"/>
      <point x="195.798" y="351.333"/>
      <point x="195.667" y="354.667" type="curve" smooth="yes"/>
      <point x="193.667" y="391.333"/>
      <point x="191.333" y="425"/>
      <point x="188" y="431.667" type="curve"/>
      <point x="186.333" y="438"/>
      <point x="182.333" y="442.666"/>
      <point x="172.333" y="442.666" type="curve"/>
      <point x="137.667" y="431.333"/>
      <point x="102.667" y="420.667"/>
      <point x="34.6673" y="412.333" type="curve"/>
      <point x="32.6673" y="406.333"/>
      <point x="34.6673" y="389.333"/>
      <point x="36.6673" y="383.333" type="curve"/>
      <point x="91.0003" y="378.333"/>
      <point x="101.667" y="372"/>
      <point x="101.667" y="314.334" type="curve" smooth="yes"/>
      <point x="101.667" y="120" type="line"/>
    </contour>
  </outline>
</glyph>
<glyph name="s" format="2">
  <advance width="402"/>
  <unicode hex="0073"/>
  <anchor x="197.667" y="500" name="t.uni0302"/>
  <anchor x="216.333" y="-60" name="b.minus-60"/>
  <anchor x="209.333" y="0" name="b.cedilla"/>
  <outline>
    <contour>
      <point x="58" y="140.666" type="curve"/>
      <point x="67.588" y="92.218"/>
      <point x="71.764" y="43.691"/>
      <point x="72.349" y="-0.667" type="curve"/>
      <point x="111.179" y="-0.595"/>
      <point x="162.71" y="-10"/>
      <point x="203.667" y="-10" type="curve" smooth="yes"/>
      <point x="290.4" y="-10"/>
      <point x="359" y="37.694"/>
      <point x="359" y="120" type="curve" smooth="yes"/>
      <point x="359" y="186.02"/>
      <point x="312.09" y="229.466"/>
      <point x="242.334" y="253.956" type="curve" smooth="yes"/>
      <point x="179.165" y="276.711"/>
      <point x="147.333" y="292.204"/>
      <point x="147.333" y="341.666" type="curve" smooth="yes"/>
      <point x="147.333" y="381.666"/>
      <point x="177.666" y="403.333"/>
      <point x="210.333" y="403.333" type="curve" smooth="yes"/>
      <point x="236.333" y="403.333"/>
      <point x="286.334" y="387.333"/>
      <point x="303.334" y="310.333" type="curve"/>
      <point x="311.667" y="306.666"/>
      <point x="327.667" y="307.666"/>
      <point x="334.333" y="312.666" type="curve"/>
      <point x="328.982" y="351.597"/>
      <point x="327.457" y="385"/>
      <point x="329.124" y="418" type="curve"/>
      <point x="294.791" y="423.666"/>
      <point x="261.163" y="440.666"/>
      <point x="213.333" y="440.666" type="curve" smooth="yes"/>
      <point x="122.632" y="440.666"/>
      <point x="62.333" y="392.936"/>
      <point x="62.333" y="321.333" type="curve" smooth="yes"/>
      <point x="62.333" y="253.037"/>
      <point x="95.273" y="218.469"/>
      <point x="172.666" y="187.666" type="curve" smooth="yes"/>
      <point x="249.013" y="156.941"/>
      <point x="269.667" y="134.878"/>
      <point x="269.667" y="95" type="curve" smooth="yes"/>
      <point x="269.667" y="52.099"/>
      <point x="243.3" y="26.333"/>
      <point x="199.333" y="26.333" type="curve" smooth="yes"/>
      <point x="135" y="26.333"/>
      <point x="109.666" y="77"/>
      <point x="92" y="142" type="curve"/>
      <point x="82.666" y="147"/>
      <point x="67.333" y="146"/>
    </contour>
  </outline>
</glyph>
<glyph name="t" format="2">
  <advance width="333"/>
  <unicode hex="0074"/>
  <anchor x="142.333" y="633.333" name="t.uni0302"/>
  <anchor x="178.333" y="-60" name="b.minus-60"/>
  <anchor x="185" y="0" name="b.cedilla"/>
  <outline>
    <contour>
      <point x="64.334" y="430.667" type="line" smooth="yes"/>
      <point x="50.334" y="430.667"/>
      <point x="34.667" y="424.667"/>
      <point x="23.667" y="415.667" type="curve"/>
      <point x="23.667" y="394" type="line" smooth="yes"/>
      <point x="23.667" y="389"/>
      <point x="24.667" y="388"/>
      <point x="28.667" y="388" type="curve" smooth="yes"/>
      <point x="89.667" y="388" type="line"/>
      <point x="89.667" y="94.333" type="line" smooth="yes"/>
      <point x="89.667" y="22.667"/>
      <point x="123" y="-10"/>
      <point x="178.334" y="-10" type="curve" smooth="yes"/>
      <point x="227.334" y="-10"/>
      <point x="282.334" y="14"/>
      <point x="315.001" y="52.667" type="curve"/>
      <point x="313.667" y="63.333"/>
      <point x="307.697" y="70.651"/>
      <point x="297.001" y="73.333" type="curve"/>
      <point x="275.334" y="56.667"/>
      <point x="247.001" y="50"/>
      <point x="223.334" y="50" type="curve" smooth="yes"/>
      <point x="198.001" y="50"/>
      <point x="186.334" y="75.667"/>
      <point x="186.334" y="133.667" type="curve" smooth="yes"/>
      <point x="186.334" y="388" type="line"/>
      <point x="289.334" y="388" type="line" smooth="yes"/>
      <point x="299.334" y="388"/>
      <point x="313.334" y="392"/>
      <point x="313.334" y="401" type="curve" smooth="yes"/>
      <point x="313.334" y="424.667" type="line" smooth="yes"/>
      <point x="313.334" y="428.667"/>
      <point x="310.334" y="430.667"/>
      <point x="305.334" y="430.667" type="curve" smooth="yes"/>
      <point x="186.334" y="430.667" type="line"/>
      <point x="187.334" y="468" type="line" smooth="yes"/>
      <point x="189.102" y="533.673"/>
      <point x="193.334" y="567.334"/>
      <point x="194.334" y="575.667" type="curve"/>
      <point x="194.334" y="581.667"/>
      <point x="191.334" y="584.667"/>
      <point x="186.334" y="584.667" type="curve" smooth="yes"/>
      <point x="179.001" y="584.667"/>
      <point x="100.667" y="554"/>
      <point x="97.334" y="546.667" type="curve"/>
      <point x="93" y="535"/>
      <point x="89.667" y="496"/>
      <point x="89.667" y="430.667" type="curve"/>
    </contour>
  </outline>
</glyph>
<glyph name="u" format="2">
  <advance width="553"/>
  <unicode hex="0075"/>
  <anchor x="263.333" y="500" name="t.uni0302"/>
  <anchor x="442.667" y="10" name="b.ogonek"/>
  <anchor x="290" y="-60" name="b.minus-60"/>
  <outline>
    <contour>
      <point x="217.001" y="-10" type="curve" smooth="yes"/>
      <point x="258.001" y="-10"/>
      <point x="331.334" y="28"/>
      <point x="385.334" y="69.667" type="curve"/>
      <point x="383.667" y="107.334" type="line"/>
      <point x="343" y="71.001"/>
      <point x="286.667" y="46"/>
      <point x="261.001" y="46" type="curve" smooth="yes"/>
      <point x="227.667" y="46"/>
      <point x="184.334" y="57.001"/>
      <point x="184.334" y="139.667" type="curve" smooth="yes"/>
      <point x="184.334" y="316.667" type="line" smooth="yes"/>
      <point x="184.334" y="364.666"/>
      <point x="187.667" y="409.333"/>
      <point x="187.667" y="417.333" type="curve" smooth="yes"/>
      <point x="187.667" y="424.999"/>
      <point x="184.334" y="430.666"/>
      <point x="179.001" y="432.666" type="curve"/>
      <point x="169.667" y="431.666"/>
      <point x="152.667" y="430.666"/>
      <point x="136.667" y="430.666" type="curve" smooth="yes"/>
      <point x="98.334" y="430.666"/>
      <point x="61" y="431.666"/>
      <point x="24" y="432.666" type="curve"/>
      <point x="18" y="426.666"/>
      <point x="18" y="405.333"/>
      <point x="24" y="399.333" type="curve"/>
      <point x="71.334" y="396"/>
      <point x="87.667" y="385.333"/>
      <point x="87.667" y="314" type="curve" smooth="yes"/>
      <point x="87.667" y="134" type="line" smooth="yes"/>
      <point x="87.667" y="52.667"/>
      <point x="122.334" y="-10"/>
    </contour>
    <contour>
      <point x="379.334" y="2.333" type="curve"/>
      <point x="380.334" y="-6.333"/>
      <point x="389.667" y="-10"/>
      <point x="401.667" y="-10" type="curve"/>
      <point x="428.667" y="5.333"/>
      <point x="472.667" y="20"/>
      <point x="536.334" y="27.667" type="curve"/>
      <point x="541.001" y="33.667"/>
      <point x="540.334" y="50.334"/>
      <point x="535.667" y="56.334" type="curve"/>
      <point x="475.001" y="61.334"/>
      <point x="465.334" y="79.334"/>
      <point x="465.334" y="131" type="curve" smooth="yes"/>
      <point x="465.334" y="316.667" type="line" smooth="yes"/>
      <point x="465.334" y="364.666"/>
      <point x="468.667" y="409.333"/>
      <point x="468.667" y="417.333" type="curve" smooth="yes"/>
      <point x="468.667" y="424.999"/>
      <point x="465.334" y="430.666"/>
      <point x="460.001" y="432.666" type="curve"/>
      <point x="450.667" y="431.666"/>
      <point x="433.334" y="430.666"/>
      <point x="417.001" y="430.666" type="curve" smooth="yes"/>
      <point x="386.334" y="430.666"/>
      <point x="340.667" y="431.666"/>
      <point x="305" y="432.666" type="curve"/>
      <point x="299" y="426.666"/>
      <point x="299" y="405.333"/>
      <point x="305" y="399.333" type="curve"/>
      <point x="354.667" y="395.666"/>
      <point x="368.667" y="385.333"/>
      <point x="368.667" y="313.333" type="curve" smooth="yes"/>
      <point x="368.667" y="123" type="line" smooth="yes"/>
      <point x="368.667" y="79.667"/>
      <point x="371.667" y="44.333"/>
    </contour>
  </outline>
</glyph>
<glyph name="w" format="2">
  <advance width="757"/>
  <unicode hex="0077"/>
  <anchor x="376" y="500" name="t.uni0302"/>
  <anchor x="352.667" y="-60" name="b.minus-60"/>
  <outline>
    <contour>
      <point x="246.333" y="-12" type="curve" smooth="yes"/>
      <point x="255.667" y="-12"/>
      <point x="267.333" y="-7.334"/>
      <point x="274.667" y="10.333" type="curve" smooth="yes"/>
      <point x="373.333" y="256.333" type="line"/>
      <point x="474" y="8.333" type="line" smooth="yes"/>
      <point x="480.333" y="-7"/>
      <point x="492" y="-12"/>
      <point x="503" y="-12" type="curve" smooth="yes"/>
      <point x="512.333" y="-12"/>
      <point x="523.333" y="-7"/>
      <point x="530" y="9.666" type="curve" smooth="yes"/>
      <point x="658.333" y="322.666" type="line" smooth="yes"/>
      <point x="675.333" y="364.333"/>
      <point x="691.667" y="395.666"/>
      <point x="744.333" y="399.333" type="curve"/>
      <point x="750.333" y="405.333"/>
      <point x="750.333" y="426.666"/>
      <point x="744.333" y="432.666" type="curve"/>
      <point x="723.667" y="431.666"/>
      <point x="703" y="430.666"/>
      <point x="674.333" y="430.666" type="curve" smooth="yes"/>
      <point x="642" y="430.666"/>
      <point x="599.667" y="431.666"/>
      <point x="567.333" y="432.666" type="curve"/>
      <point x="561.333" y="426.666"/>
      <point x="561.333" y="405.333"/>
      <point x="567.333" y="399.333" type="curve"/>
      <point x="635.333" y="395.333"/>
      <point x="630" y="367.333"/>
      <point x="614.667" y="327.666" type="curve" smooth="yes"/>
      <point x="539.333" y="136.333" type="line" smooth="yes"/>
      <point x="531.333" y="115.666"/>
      <point x="526.667" y="116"/>
      <point x="520" y="133.333" type="curve" smooth="yes"/>
      <point x="443" y="337.666" type="line" smooth="yes"/>
      <point x="425.667" y="383"/>
      <point x="427.506" y="394.96"/>
      <point x="480" y="399.333" type="curve"/>
      <point x="486" y="405.333"/>
      <point x="486" y="426.666"/>
      <point x="480" y="432.666" type="curve"/>
      <point x="447.667" y="431.666"/>
      <point x="406.667" y="430.666"/>
      <point x="369.667" y="430.666" type="curve" smooth="yes"/>
      <point x="342.333" y="430.666"/>
      <point x="305" y="431.666"/>
      <point x="273.667" y="432.666" type="curve"/>
      <point x="267.667" y="426.666"/>
      <point x="267.667" y="405.333"/>
      <point x="273.667" y="399.333" type="curve"/>
      <point x="317.947" y="394.509"/>
      <point x="328.117" y="372.662"/>
      <point x="345.49" y="328.35" type="curve" smooth="yes"/>
      <point x="353" y="308.333" type="line"/>
      <point x="287.333" y="138" type="line" smooth="yes"/>
      <point x="277.667" y="113.666"/>
      <point x="275" y="112.333"/>
      <point x="265" y="137" type="curve"/>
      <point x="191.667" y="333.666" type="line" smooth="yes"/>
      <point x="174.333" y="379.333"/>
      <point x="175" y="395.666"/>
      <point x="221" y="399.333" type="curve"/>
      <point x="227" y="405.333"/>
      <point x="227" y="426.666"/>
      <point x="221" y="432.666" type="curve"/>
      <point x="189.667" y="431.666"/>
      <point x="153.333" y="430.666"/>
      <point x="113.667" y="430.666" type="curve" smooth="yes"/>
      <point x="76.667" y="430.666"/>
      <point x="41.667" y="431.666"/>
      <point x="12" y="432.666" type="curve"/>
      <point x="6" y="426.666"/>
      <point x="6" y="405.333"/>
      <point x="12" y="399.333" type="curve"/>
      <point x="59.106" y="393.701"/>
      <point x="71" y="380.666"/>
      <point x="91.333" y="329" type="curve" smooth="yes"/>
      <point x="219.333" y="8.333" type="line" smooth="yes"/>
      <point x="225.667" y="-7.334"/>
      <point x="235.333" y="-12"/>
    </contour>
  </outline>
</glyph>
<glyph name="braceleft" format="2">
  <advance width="287"/>
  <unicode hex="007B"/>
  <outline>
    <contour>
      <point x="188" y="552.001" type="line" smooth="yes"/>
      <point x="183.036" y="655.002"/>
      <point x="230" y="672.001"/>
      <point x="268" y="683.001" type="curve"/>
      <point x="274" y="689.001"/>
      <point x="274" y="701.001"/>
      <point x="268" y="707.001" type="curve"/>
      <point x="178" y="707.001"/>
      <point x="102.315" y="667.011"/>
      <point x="106" y="554.001" type="curve" smooth="yes"/>
      <point x="112" y="370.001" type="line"/>
      <point x="112" y="320.001"/>
      <point x="88" y="267.334"/>
      <point x="14" y="260.334" type="curve"/>
      <point x="5" y="251.334"/>
      <point x="6" y="241.667"/>
      <point x="14" y="233.667" type="curve"/>
      <point x="88" y="224.667"/>
      <point x="114" y="182"/>
      <point x="112" y="121" type="curve" smooth="yes"/>
      <point x="106" y="-49" type="line" smooth="yes"/>
      <point x="101" y="-179"/>
      <point x="167" y="-212"/>
      <point x="268" y="-212" type="curve"/>
      <point x="274" y="-206"/>
      <point x="274" y="-194"/>
      <point x="268" y="-188" type="curve"/>
      <point x="224" y="-188"/>
      <point x="184" y="-138"/>
      <point x="188" y="-54" type="curve" smooth="yes"/>
      <point x="196" y="95" type="line" smooth="yes"/>
      <point x="200" y="177"/>
      <point x="159" y="217"/>
      <point x="91" y="245" type="curve"/>
      <point x="91" y="249.001" type="line"/>
      <point x="158" y="268.001"/>
      <point x="200.289" y="297.014"/>
      <point x="196" y="386.001" type="curve" smooth="yes"/>
    </contour>
  </outline>
</glyph>
<glyph name="bar" format="2">
  <advance width="210"/>
  <unicode hex="007C"/>
  <outline>
    <contour>
      <point x="130" y="-232.333" type="curve"/>
      <point x="130" y="698" type="line"/>
      <point x="119.72" y="704"/>
      <point x="90.9467" y="704"/>
      <point x="80.6667" y="698" type="curve"/>
      <point x="80.6667" y="-232.333" type="line"/>
      <point x="90.9467" y="-238.333"/>
      <point x="119.72" y="-238.333"/>
    </contour>
  </outline>
</glyph>
<glyph name="braceright" format="2">
  <advance width="287"/>
  <unicode hex="007D"/>
  <outline>
    <contour>
      <point x="96.333" y="-57.334" type="line" smooth="yes"/>
      <point x="101.297" y="-160.335"/>
      <point x="54.333" y="-177.334"/>
      <point x="16.333" y="-188.334" type="curve"/>
      <point x="10.333" y="-194.334"/>
      <point x="10.333" y="-206.334"/>
      <point x="16.333" y="-212.334" type="curve"/>
      <point x="106.333" y="-212.334"/>
      <point x="182.018" y="-172.344"/>
      <point x="178.333" y="-59.334" type="curve" smooth="yes"/>
      <point x="172.333" y="124.666" type="line"/>
      <point x="172.333" y="174.666"/>
      <point x="196.333" y="227.333"/>
      <point x="270.333" y="234.333" type="curve"/>
      <point x="279.333" y="243.333"/>
      <point x="278.333" y="253"/>
      <point x="270.333" y="261" type="curve"/>
      <point x="197.333" y="270"/>
      <point x="170.18" y="312.672"/>
      <point x="172.333" y="373.667" type="curve" smooth="yes"/>
      <point x="178.333" y="543.667" type="line" smooth="yes"/>
      <point x="182.922" y="673.682"/>
      <point x="117.333" y="706.667"/>
      <point x="16.333" y="706.667" type="curve"/>
      <point x="10.333" y="700.667"/>
      <point x="10.333" y="688.667"/>
      <point x="16.333" y="682.667" type="curve"/>
      <point x="60.333" y="682.667"/>
      <point x="100.845" y="632.695"/>
      <point x="96.333" y="548.667" type="curve" smooth="yes"/>
      <point x="88.333" y="399.667" type="line" smooth="yes"/>
      <point x="83.931" y="317.687"/>
      <point x="125.333" y="277.667"/>
      <point x="193.333" y="249.667" type="curve"/>
      <point x="193.333" y="245.666" type="line"/>
      <point x="126.333" y="226.666"/>
      <point x="84.044" y="197.653"/>
      <point x="88.333" y="108.666" type="curve" smooth="yes"/>
    </contour>
  </outline>
</glyph>
<glyph name="asciitilde" format="2">
  <advance width="460"/>
  <unicode hex="007E"/>
  <outline>
    <contour>
      <point x="154.333" y="274.667" type="curve" smooth="yes"/>
      <point x="214.862" y="274.667"/>
      <point x="251.96" y="211"/>
      <point x="312.024" y="211" type="curve" smooth="yes"/>
      <point x="349.413" y="211"/>
      <point x="403.954" y="229.24"/>
      <point x="433" y="326.001" type="curve"/>
      <point x="429.335" y="335.095"/>
      <point x="421.783" y="338.927"/>
      <point x="413" y="340.667" type="curve"/>
      <point x="390.712" y="291.304"/>
      <point x="345.357" y="274.667"/>
      <point x="317.357" y="274.667" type="curve" smooth="yes"/>
      <point x="264.402" y="274.667"/>
      <point x="226.243" y="338.334"/>
      <point x="161" y="338.334" type="curve" smooth="yes"/>
      <point x="99.419" y="338.334"/>
      <point x="44.309" y="278.127"/>
      <point x="26.969" y="213.925" type="curve"/>
      <point x="32.389" y="209.105"/>
      <point x="41.121" y="204.667"/>
      <point x="49" y="204.667" type="curve"/>
      <point x="70.691" y="247.511"/>
      <point x="115.063" y="274.667"/>
    </contour>
  </outline>
</glyph>
<glyph name="exclamdown" format="2">
  <advance width="281"/>
  <unicode hex="00A1"/>
  <outline>
    <contour>
      <point x="140.333" y="-227.333" type="curve" smooth="yes"/>
      <point x="166.667" y="-227.333"/>
      <point x="199.667" y="-208.333"/>
      <point x="199.667" y="-153.667" type="curve" smooth="yes"/>
      <point x="199.667" y="-94"/>
      <point x="188" y="-61"/>
      <point x="179.667" y="9.33333" type="curve" smooth="yes"/>
      <point x="170" y="84.6667"/>
      <point x="161.333" y="184.667"/>
      <point x="159.667" y="214.667" type="curve" smooth="yes"/>
      <point x="158.667" y="230"/>
      <point x="155.667" y="241.333"/>
      <point x="140.333" y="241.333" type="curve" smooth="yes"/>
      <point x="126" y="241.333"/>
      <point x="122.333" y="227.667"/>
      <point x="121.667" y="214" type="curve" smooth="yes"/>
      <point x="120" y="188.333"/>
      <point x="115.667" y="115"/>
      <point x="101.667" y="10.3333" type="curve" smooth="yes"/>
      <point x="93" y="-58"/>
      <point x="81" y="-98.6667"/>
      <point x="81" y="-153.667" type="curve" smooth="yes"/>
      <point x="81" y="-206.667"/>
      <point x="112" y="-227.333"/>
    </contour>
    <contour>
      <point x="200" y="382.667" type="curve" smooth="yes"/>
      <point x="200" y="414.667"/>
      <point x="173.333" y="440.667"/>
      <point x="140.667" y="440.667" type="curve" smooth="yes"/>
      <point x="108" y="440.667"/>
      <point x="80.6667" y="414"/>
      <point x="80.6667" y="382" type="curve" smooth="yes"/>
      <point x="80.6667" y="349.667"/>
      <point x="107.333" y="323.667"/>
      <point x="140" y="323.667" type="curve" smooth="yes"/>
      <point x="172.667" y="323.667"/>
      <point x="200" y="350.333"/>
    </contour>
  </outline>
</glyph>
<glyph name="cent" format="2">
  <advance width="490"/>
  <unicode hex="00A2"/>
  <outline>
    <contour>
      <point x="242" y="602" type="line"/>
      <point x="242" y="512" type="line"/>
      <point x="143.722" y="497.675"/>
      <point x="66" y="407.575"/>
      <point x="66" y="287.333" type="curve" smooth="yes"/>
      <point x="66" y="174.708"/>
      <point x="125.481" y="90.3807"/>
      <point x="242" y="79.6667" type="curve"/>
      <point x="242" y="-12.6667" type="line"/>
      <point x="277.333" y="-12.6667" type="line"/>
      <point x="277.333" y="79.3333" type="line"/>
      <point x="331" y="83"/>
      <point x="382.333" y="109.333"/>
      <point x="423" y="175.333" type="curve"/>
      <point x="421" y="184.667" name=".hr01"/>
      <point x="415" y="193.667"/>
      <point x="405.333" y="194.333" type="curve"/>
      <point x="373.36" y="157.924"/>
      <point x="335.765" y="133.333"/>
      <point x="295" y="133.333" type="curve" smooth="yes"/>
      <point x="288.386" y="133.333"/>
      <point x="281.832" y="133.878"/>
      <point x="277.333" y="135.667" type="curve" name=".hr02"/>
      <point x="277.333" y="477.667" type="line"/>
      <point x="311" y="471.667"/>
      <point x="322" y="447.333"/>
      <point x="326" y="422" type="curve"/>
      <point x="327" y="417"/>
      <point x="327.333" y="411.667"/>
      <point x="329" y="407" type="curve"/>
      <point x="334" y="383.333"/>
      <point x="350" y="373"/>
      <point x="372" y="373" type="curve" smooth="yes"/>
      <point x="395.836" y="373"/>
      <point x="421.667" y="390.093" name=".hr03"/>
      <point x="421.667" y="419.667" type="curve" smooth="yes"/>
      <point x="421.667" y="468.667"/>
      <point x="370" y="512.667"/>
      <point x="277.333" y="514.333" type="curve" name=".hr04"/>
      <point x="277.333" y="602" type="line"/>
    </contour>
    <contour>
      <point x="242" y="147.333" type="line"/>
      <point x="196.667" y="172.333"/>
      <point x="164" y="232"/>
      <point x="164" y="313" type="curve" smooth="yes"/>
      <point x="164" y="406"/>
      <point x="194.667" y="463.667"/>
      <point x="242" y="476.667" type="curve"/>
    </contour>
  </outline>
</glyph>
<glyph name="sterling" format="2">
  <advance width="490"/>
  <unicode hex="00A3"/>
  <outline>
    <contour>
      <point x="86.721" y="297.333" type="curve" smooth="yes"/>
      <point x="135.333" y="297.333" type="line"/>
      <point x="135.333" y="282" type="line" smooth="yes"/>
      <point x="135.333" y="193"/>
      <point x="125" y="133"/>
      <point x="95.667" y="96" type="curve"/>
      <point x="49.608" y="74.944"/>
      <point x="16.667" y="48.389"/>
      <point x="16.667" y="16.333" type="curve" smooth="yes"/>
      <point x="16.667" y="0"/>
      <point x="27.248" y="-13.334"/>
      <point x="47.248" y="-13.334" type="curve" smooth="yes"/>
      <point x="73.539" y="-13.334"/>
      <point x="99" y="2.138"/>
      <point x="99" y="24.333" type="curve" smooth="yes"/>
      <point x="99" y="36"/>
      <point x="103.333" y="50"/>
      <point x="138.333" y="50" type="curve" smooth="yes"/>
      <point x="214.435" y="50"/>
      <point x="231.59" y="-10.667"/>
      <point x="316.333" y="-10.667" type="curve" smooth="yes"/>
      <point x="384.667" y="-10.667"/>
      <point x="433.667" y="34.333"/>
      <point x="456" y="86.333" type="curve"/>
      <point x="452" y="93.333"/>
      <point x="444.667" y="97.333"/>
      <point x="436.333" y="98.666" type="curve"/>
      <point x="410.333" y="62.999"/>
      <point x="364.333" y="50.666"/>
      <point x="334.333" y="50.666" type="curve" smooth="yes"/>
      <point x="276.972" y="50.666"/>
      <point x="272.271" y="95.967"/>
      <point x="155.353" y="96.064" type="curve"/>
      <point x="154.648" y="97.935" type="line"/>
      <point x="190.333" y="128"/>
      <point x="234" y="182"/>
      <point x="235.333" y="297.333" type="curve"/>
      <point x="324.333" y="297.333" type="line" smooth="yes"/>
      <point x="334.114" y="297.333"/>
      <point x="363.667" y="300.712"/>
      <point x="363.667" y="312.666" type="curve" smooth="yes"/>
      <point x="363.667" y="329.733" type="line" smooth="yes"/>
      <point x="363.667" y="338.001"/>
      <point x="347.849" y="339"/>
      <point x="341.333" y="339" type="curve" smooth="yes"/>
      <point x="235.333" y="339" type="line"/>
      <point x="235.333" y="411.333" type="line" smooth="yes"/>
      <point x="235.333" y="498.667"/>
      <point x="272.529" y="569.52"/>
      <point x="318.862" y="569.52" type="curve" smooth="yes"/>
      <point x="361.284" y="569.52"/>
      <point x="348.182" y="515.667"/>
      <point x="398.152" y="515.667" type="curve" smooth="yes"/>
      <point x="425.486" y="515.667"/>
      <point x="442.333" y="534"/>
      <point x="442.333" y="562" type="curve" smooth="yes"/>
      <point x="442.333" y="595.269"/>
      <point x="394.187" y="612"/>
      <point x="357.667" y="612" type="curve" smooth="yes"/>
      <point x="224.87" y="612"/>
      <point x="135.333" y="484.584"/>
      <point x="135.333" y="360.333" type="curve" smooth="yes"/>
      <point x="135.333" y="339" type="line"/>
      <point x="101" y="339" type="line" smooth="yes"/>
      <point x="82.766" y="339"/>
      <point x="63.333" y="334.525"/>
      <point x="63.333" y="322.68" type="curve" smooth="yes"/>
      <point x="63.333" y="306.586" type="line" smooth="yes"/>
      <point x="63.333" y="300.103"/>
      <point x="78.09" y="297.333"/>
    </contour>
  </outline>
</glyph>
